SplineFontDB: 2.0
FontName: THFahkwang-Bold
FullName: THFahkwang-Bold
FamilyName: TH Fah kwang
Weight: Bold
Copyright: Copyright (c) 2006 by Department of Intellectual Property (DIP), Ministry of Commerce and Software Industry Promotion Agency (Public Organization) (SIPA). All rights reserved.
Version: 1.1
ItalicAngle: 0
UnderlinePosition: -35
UnderlineWidth: 30
Ascent: 800
Descent: 200
NeedsXUIDChange: 1
XUID: [1021 375 425136265 717862]
FSType: 0
OS2Version: 3
OS2_WeightWidthSlopeOnly: 0
OS2_UseTypoMetrics: 1
CreationTime: 1158667080
ModificationTime: 1204728137
PfmFamily: 17
TTFWeight: 700
TTFWidth: 5
LineGap: 60
VLineGap: 0
Panose: 2 0 5 6 0 0 0 2 0 4
OS2TypoAscent: 0
OS2TypoAOffset: 1
OS2TypoDescent: 0
OS2TypoDOffset: 1
OS2TypoLinegap: 0
OS2WinAscent: -5
OS2WinAOffset: 1
OS2WinDescent: -231
OS2WinDOffset: 1
HheadAscent: -5
HheadAOffset: 1
HheadDescent: 231
HheadDOffset: 1
OS2SubXSize: 700
OS2SubYSize: 650
OS2SubXOff: 0
OS2SubYOff: 140
OS2SupXSize: 700
OS2SupYSize: 650
OS2SupXOff: 0
OS2SupYOff: 477
OS2StrikeYSize: 30
OS2StrikeYPos: 250
OS2FamilyClass: 773
OS2Vendor: 'ipth'
Lookup: 4 0 0 "'frac' Diagonal Fractions in Latin lookup 0"  {"'frac' Diagonal Fractions in Latin lookup 0 subtable"  } ['frac' ('latn' <'dflt' > ) ]
Lookup: 6 0 0 "'liga' Standard Ligatures in Latin lookup 1"  {"'liga' Standard Ligatures in Latin lookup 1 subtable"  } ['liga' ('latn' <'dflt' > ) ]
Lookup: 6 0 0 "'liga' Standard Ligatures in Latin lookup 2"  {"'liga' Standard Ligatures in Latin lookup 2 subtable"  } ['liga' ('latn' <'dflt' > ) ]
Lookup: 6 0 0 "'liga' Standard Ligatures in Latin lookup 3"  {"'liga' Standard Ligatures in Latin lookup 3 subtable"  } ['liga' ('latn' <'dflt' > ) ]
Lookup: 6 0 0 "'liga' Standard Ligatures in Latin lookup 4"  {"'liga' Standard Ligatures in Latin lookup 4 subtable"  } ['liga' ('latn' <'dflt' > ) ]
Lookup: 6 0 0 "'liga' Standard Ligatures in Latin lookup 5"  {"'liga' Standard Ligatures in Latin lookup 5 subtable"  } ['liga' ('latn' <'dflt' > ) ]

StartChar: .notdef
Encoding: 65536 -1 0
Width: 576
VWidth: 1533
Flags: W
HStem: 2 56<110 461> 724 59<112 461>
VStem: 0 74<133 649> 503 73<129 650>
Fore
0 2 m 1
 0 783 l 1
 576 783 l 1
 576 2 l 1
 0 2 l 1
461 724 m 1
 112 724 l 1
 287 458 l 1
 461 724 l 1
244 389 m 1
 74 649 l 1
 74 133 l 1
 244 389 l 1
110 58 m 1
 461 58 l 1
 287 324 l 1
 110 58 l 1
330 389 m 1
 503 129 l 1
 503 650 l 1
 330 389 l 1
EndSplineSet
EndChar
StartChar: numbersign
Encoding: 35 35 4
Width: 772
VWidth: 1533
Flags: W
HStem: 0 21G<195 288.062 397 491.967> 209 65<103 225 328 428 530 641> 412 68<133 256 357 460 560 670>
Fore
550 412 m 1
 530 274 l 1
 641 274 l 1
 641 209 l 1
 520 209 l 1
 489 0 l 1
 397 0 l 1
 428 209 l 1
 317 209 l 1
 285 0 l 1
 195 0 l 1
 225 209 l 1
 103 209 l 1
 103 274 l 1
 236 274 l 1
 256 412 l 1
 133 412 l 1
 133 480 l 1
 265 480 l 1
 296 687 l 1
 388 687 l 1
 357 480 l 1
 468 480 l 1
 500 687 l 1
 590 687 l 1
 560 480 l 1
 670 480 l 1
 670 412 l 1
 550 412 l 1
348 412 m 1
 328 274 l 1
 438 274 l 1
 460 412 l 1
 348 412 l 1
EndSplineSet
EndChar
StartChar: dollar
Encoding: 36 36 5
Width: 778
VWidth: 1533
Flags: W
HStem: 17 60<302.779 366 443 505.067> 616 60<294 366 443 493.602>
VStem: 110 126<475.152 568.661> 366 77<-83 17 676 771> 580 125<137.416 245.875>
Fore
236 512 m 256
 236 395 705 452 705 224 c 0
 705 100 597 35 443 18 c 1
 443 -83 l 1
 366 -83 l 1
 366 17 l 1
 231 25 90 92 74 239 c 1
 207 239 l 1
 210 158 271 77 399 77 c 0
 479 77 580 109 580 202 c 0
 580 346 110 282 110 494 c 0
 110 628 261 668 366 676 c 1
 366 771 l 1
 443 771 l 1
 443 675 l 1
 608 657 672 566 701 491 c 1
 575 491 l 1
 554 561 504 616 397 616 c 0
 337 616 236 595 236 512 c 256
EndSplineSet
EndChar
StartChar: percent
Encoding: 37 37 6
Width: 841
VWidth: 1533
Flags: W
HStem: -2 57<574.815 674.586> 282 55<168.335 266.157> 351 55<575.149 672.879> 633 57<168.335 268.953>
VStem: 37 104<390.367 581.74> 294 103<390.13 581.698> 443 104<108.29 296.768> 701 102<105.599 299.015>
Fore
624 406 m 0
 719 406 803 320 803 202 c 256
 803 84 717 -2 624 -2 c 0
 515 -2 443 100 443 202 c 256
 443 308 517 406 624 406 c 0
239 -17 m 1
 149 -17 l 1
 598 705 l 1
 690 705 l 1
 239 -17 l 1
218 690 m 0
 311 690 397 604 397 486 c 256
 397 368 311 282 218 282 c 0
 119 282 37 371 37 486 c 256
 37 601 119 690 218 690 c 0
624 55 m 256
 686 55 701 111 701 202 c 256
 701 294 686 351 624 351 c 0
 562 351 547 292 547 202 c 256
 547 111 562 55 624 55 c 256
218 337 m 256
 279 337 294 393 294 486 c 256
 294 580 279 633 218 633 c 0
 156 633 141 577 141 486 c 256
 141 391 156 337 218 337 c 256
EndSplineSet
EndChar
StartChar: ampersand
Encoding: 38 38 7
Width: 838
VWidth: 1533
Flags: W
HStem: -21 59<291.218 435.267> 627 60<300.673 410.006>
VStem: 64 132<129.61 251.482> 170 104<477.988 584.208> 437 112<472.951 599.039> 619 126<246.952 325.165 325.165 371>
Fore
745 371 m 1xdc
 740 267 710 194 662 133 c 1
 689 116 719 94 752 70 c 2
 845 -2 l 1
 659 -2 l 1
 628 15 619 27 576 51 c 1
 534 20 461 -21 345 -21 c 0
 140 -21 64 77 64 169 c 0xec
 64 282 163 331 228 363 c 1
 201 395 170 444 170 498 c 0
 170 593 246 687 373 687 c 0
 451 687 549 644 549 550 c 0
 549 477 504 420 389 368 c 1
 465 287 540 223 595 181 c 1
 608 212 619 251 619 298 c 0
 619 320 617 344 613 371 c 1
 745 371 l 1xdc
343 417 m 1
 415 453 437 491 437 541 c 0
 437 589 405 627 348 627 c 0
 303 627 274 579 274 552 c 0xdc
 274 510 286 479 343 417 c 1
196 200 m 0xec
 196 109 292 38 371 38 c 0
 393 38 447 39 520 94 c 1
 440 157 355 234 278 311 c 1
 217 278 196 244 196 200 c 0xec
EndSplineSet
EndChar
StartChar: quotesingle
Encoding: 39 39 8
Width: 259
VWidth: 1533
Flags: W
HStem: 386 351<109 149>
VStem: 70 119<664.141 724.555>
Fore
129 737 m 256
 170 737 189 709 189 672 c 0
 189 669 189 666 189 664 c 2
 149 386 l 1
 109 386 l 1
 71 664 l 2
 70 667 70 671 70 676 c 0
 70 702 82 737 129 737 c 256
EndSplineSet
EndChar
StartChar: parenleft
Encoding: 40 40 9
Width: 354
VWidth: 1533
Flags: W
HStem: 719 20G<151.5 297>
VStem: 57 116<83.8556 434.861>
Fore
173 258 m 0
 173 3 209 -79 297 -224 c 1
 238 -224 l 1
 60 12 57 172 57 258 c 256
 57 354 65 512 238 739 c 1
 297 739 l 1
 220 600 173 506 173 258 c 0
EndSplineSet
EndChar
StartChar: parenright
Encoding: 41 41 10
Width: 354
VWidth: 1533
Flags: W
HStem: 719 20G<57 204>
VStem: 181 116<84.128 432.606>
Fore
117 739 m 1
 291 505 297 351 297 258 c 256
 297 170 293 15 117 -224 c 1
 57 -224 l 1
 149 -72 181 1 181 258 c 0
 181 554 105 639 57 739 c 1
 117 739 l 1
EndSplineSet
EndChar
StartChar: asterisk
Encoding: 42 42 11
Width: 558
VWidth: 1533
Flags: W
HStem: 324 390<209 354 209 209>
VStem: 57 444<520 520 520 520>
Fore
328 500 m 1
 463 394 l 1
 354 324 l 1
 279 474 l 1
 204 324 l 1
 95 394 l 1
 230 500 l 1
 57 520 l 1
 98 636 l 1
 251 557 l 1
 209 714 l 1
 345 714 l 1
 302 553 l 1
 460 636 l 1
 501 520 l 1
 328 500 l 1
EndSplineSet
EndChar
StartChar: plus
Encoding: 43 43 12
Width: 719
VWidth: 1533
Flags: W
HStem: 0 21G<310 409> 251 80<52 310 409 667>
VStem: 310 99<0 251 331 581>
Fore
409 251 m 1
 409 0 l 1
 310 0 l 1
 310 251 l 1
 52 251 l 1
 52 331 l 1
 310 331 l 1
 310 581 l 1
 409 581 l 1
 409 331 l 1
 667 331 l 1
 667 251 l 1
 409 251 l 1
EndSplineSet
EndChar
StartChar: comma
Encoding: 44 44 13
Width: 403
VWidth: 1533
Flags: W
HStem: -15 136<138.837 208.031>
VStem: 210 60<-51.78 -11>
Fore
193 121 m 0
 255 121 270 70 270 29 c 0
 270 -38 223 -113 155 -144 c 1
 133 -115 l 1
 148 -108 205 -77 210 -11 c 1
 203 -13 196 -15 189 -15 c 0
 158 -15 118 10 118 48 c 0
 118 71 133 121 193 121 c 0
EndSplineSet
EndChar
StartChar: hyphen
Encoding: 45 45 14
Width: 492
VWidth: 1533
Flags: W
HStem: 261 84<23 469>
VStem: 23 446<261 345 261 345 261 261>
Fore
469 261 m 1
 23 261 l 1
 23 345 l 1
 469 345 l 1
 469 261 l 1
EndSplineSet
EndChar
StartChar: period
Encoding: 46 46 15
Width: 407
VWidth: 1533
Flags: W
HStem: -12 141<151.956 255.883>
VStem: 133 141<6.84285 110.769>
Fore
204 129 m 256
 246 129 274 99 274 58 c 256
 274 18 246 -12 204 -12 c 256
 162 -12 133 18 133 58 c 256
 133 101 163 129 204 129 c 256
EndSplineSet
EndChar
StartChar: slash
Encoding: 47 47 16
Width: 361
VWidth: 1533
Flags: W
HStem: -23 21G<-23 85.1053> 717 20G<276.895 385>
VStem: -23 408<-23 737 -23 -23>
Fore
77 -23 m 1
 -23 -23 l 1
 285 737 l 1
 385 737 l 1
 77 -23 l 1
EndSplineSet
EndChar
StartChar: zero
Encoding: 48 48 17
Width: 722
VWidth: 1533
Flags: W
HStem: -11 62<279.691 446.796> 647 61<279.212 446.596>
VStem: 32 129<222.358 476.702> 561 127<217.695 481.215>
Fore
360 708 m 256
 557 708 688 544 688 350 c 256
 688 155 557 -11 360 -11 c 256
 163 -11 32 161 32 350 c 256
 32 538 163 708 360 708 c 256
360 51 m 0
 514 51 561 204 561 350 c 256
 561 494 513 647 360 647 c 0
 238 647 161 539 161 350 c 256
 161 104 280 51 360 51 c 0
EndSplineSet
EndChar
StartChar: one
Encoding: 49 49 18
Width: 722
VWidth: 1533
Flags: W
HStem: 0 21G<308 432> 541 58<136 287.911> 687 20G<332 432>
VStem: 136 296<541 599> 308 124<0 541>
Fore
136 599 m 1xf0
 287 599 310 616 354 707 c 1
 432 707 l 1
 432 0 l 1
 308 0 l 1
 308 541 l 1xe8
 136 541 l 1
 136 599 l 1xf0
EndSplineSet
EndChar
StartChar: two
Encoding: 50 50 19
Width: 722
VWidth: 1533
Flags: W
HStem: 0 97<176 667> 644 58<252.83 437.296>
VStem: 526 126<406.517 559.069>
Fore
342 702 m 0
 487 702 652 642 652 478 c 0
 652 383 586 304 440 240 c 2
 329 194 l 2
 223 150 192 125 176 97 c 1
 667 97 l 1
 667 0 l 1
 41 0 l 1
 70 198 255 246 396 320 c 2
 444 348 l 2
 479 370 526 412 526 480 c 0
 526 556 468 644 342 644 c 0
 246 644 156 581 153 455 c 1
 25 455 l 1
 47 616 177 702 342 702 c 0
EndSplineSet
EndChar
StartChar: three
Encoding: 51 51 20
Width: 722
VWidth: 1533
Flags: W
HStem: -11 60<258.887 453.331> 336 63<296.219 445.541> 644 58<275.028 454.556>
VStem: 75 126<487.664 577.231> 523 126<459.855 584.501> 561 126<140.487 271.725>
Fore
356 702 m 0xf8
 479 702 649 662 649 520 c 0xf8
 649 444 595 400 544 376 c 1
 612 357 687 309 687 209 c 0
 687 44 497 -11 351 -11 c 0
 184 -11 55 75 32 236 c 1
 161 236 l 1
 164 110 253 49 351 49 c 0
 468 49 561 124 561 210 c 0xf4
 561 273 503 336 357 336 c 0
 324 336 291 333 256 327 c 1
 256 405 l 1
 283 401 308 399 332 399 c 0
 453 399 523 452 523 520 c 0
 523 560 493 644 356 644 c 0
 263 644 209 582 201 478 c 1
 75 478 l 1
 88 626 207 702 356 702 c 0xf8
EndSplineSet
EndChar
StartChar: four
Encoding: 52 52 21
Width: 722
VWidth: 1533
Flags: W
HStem: 0 21G<388 514> 169 73<143 389 514 644> 687 20G<453.188 514>
VStem: 389 125<0 169 242 504>
Fore
644 169 m 1
 514 169 l 1
 514 0 l 1
 388 0 l 1
 389 169 l 1
 26 169 l 1
 -3 202 l 1
 472 707 l 1
 514 707 l 1
 514 242 l 1
 684 242 l 1
 644 169 l 1
389 504 m 1
 143 242 l 1
 389 242 l 1
 389 504 l 1
EndSplineSet
EndChar
StartChar: five
Encoding: 53 53 22
Width: 722
VWidth: 1533
Flags: W
HStem: -11 59<266.773 452.534> 389 63<267.032 452.536> 598 97<202 618>
VStem: 558 130<142.813 293.784>
Fore
186 423 m 1
 217 436 280 452 357 452 c 0
 608 452 688 324 688 215 c 0
 688 48 491 -11 357 -11 c 0
 190 -11 63 75 38 235 c 1
 167 235 l 1
 170 113 259 48 356 48 c 0
 471 48 558 127 558 216 c 0
 558 320 465 389 345 389 c 0
 301 389 251 386 150 320 c 1
 92 336 l 1
 130 695 l 1
 653 695 l 1
 618 598 l 1
 202 598 l 1
 186 423 l 1
EndSplineSet
EndChar
StartChar: six
Encoding: 54 54 23
Width: 722
VWidth: 1533
Flags: W
HStem: -11 63<275.905 465.356> 428 67<276.928 463.6> 639 63<292.905 464.611>
VStem: 34 152<203.764 338.704> 553 132<149.191 339.566>
Fore
386 495 m 0
 563 495 685 397 685 251 c 0
 685 94 551 -11 368 -11 c 0
 168 -11 34 141 34 328 c 0
 34 535 152 702 382 702 c 0
 591 702 648 589 667 527 c 1
 543 527 l 1
 498 620 442 639 379 639 c 0
 242 639 176 506 166 409 c 1
 188 433 254 495 386 495 c 0
370 52 m 0
 481 52 553 122 553 241 c 0
 553 357 483 428 370 428 c 0
 257 428 186 357 186 241 c 0
 186 122 255 52 370 52 c 0
EndSplineSet
EndChar
StartChar: seven
Encoding: 55 55 24
Width: 722
VWidth: 1533
Flags: W
HStem: 0 21G<195 327> 599 96<77 566>
VStem: 195 132<0 157.812>
Fore
688 695 m 1
 688 657 686 608 595 504 c 2
 488 390 l 2
 380 280 327 173 327 0 c 1
 195 0 l 1
 195 278 365 377 475 491 c 2
 530 550 l 2
 546 568 559 585 566 599 c 1
 44 599 l 1
 77 695 l 1
 688 695 l 1
EndSplineSet
EndChar
StartChar: eight
Encoding: 56 56 25
Width: 722
VWidth: 1533
Flags: W
HStem: -11 63<247.783 474.398> 650 60<255.888 468.531>
VStem: 25 134<136.903 275.209> 74 121<503.361 602.826> 527 125<490.735 600.705> 572 126<135.708 253.206>
Fore
497 391 m 1xd8
 585 377 698 321 698 215 c 0
 698 47 501 -11 357 -11 c 0
 218 -11 25 37 25 201 c 0xe4
 25 308 143 365 204 382 c 1
 144 404 74 449 74 530 c 0
 74 669 257 710 368 710 c 0
 529 710 652 644 652 546 c 0
 652 453 545 405 497 391 c 1xd8
392 429 m 1
 460 447 527 486 527 541 c 0
 527 628 428 650 366 650 c 0
 298 650 195 629 195 547 c 0xd8
 195 500 253 464 392 429 c 1
357 52 m 0
 517 52 572 137 572 207 c 0
 572 263 480 321 302 348 c 1
 210 332 159 270 159 215 c 0xe4
 159 151 197 52 357 52 c 0
EndSplineSet
EndChar
StartChar: nine
Encoding: 57 57 26
Width: 722
VWidth: 1533
Flags: W
HStem: -11 63<255.383 429.264> 196 68<260.667 446.599> 639 63<260.172 444.365>
VStem: 38 132<353.867 541.983> 537 151<352.796 487.459>
Fore
354 702 m 0
 554 702 688 550 688 363 c 0
 688 156 569 -11 340 -11 c 0
 232 -11 102 19 55 164 c 1
 179 164 l 1
 224 71 280 52 343 52 c 0
 471 52 543 173 557 282 c 1
 512 236 440 196 337 196 c 0
 188 196 38 273 38 440 c 0
 38 597 168 702 354 702 c 0
353 264 m 0
 466 264 537 335 537 451 c 0
 537 568 466 639 354 639 c 0
 240 639 170 569 170 451 c 0
 170 335 240 264 353 264 c 0
EndSplineSet
EndChar
StartChar: colon
Encoding: 58 58 27
Width: 400
VWidth: 1533
Flags: W
HStem: -12 141<144.766 248.93> 370 142<145.569 248.204>
VStem: 126 142<7.25 109.625 389.875 492.375>
Fore
196 512 m 0
 235 512 268 484 268 442 c 0
 268 399 236 370 196 370 c 0
 154 370 126 403 126 442 c 0
 126 483 158 512 196 512 c 0
196 129 m 0
 238 129 268 99 268 58 c 256
 268 16 236 -12 196 -12 c 0
 159 -12 126 16 126 58 c 256
 126 101 158 129 196 129 c 0
EndSplineSet
EndChar
StartChar: semicolon
Encoding: 59 59 28
Width: 418
VWidth: 1533
Flags: W
HStem: -15 136<153.607 223.031> 370 142<159.875 262.375>
VStem: 140 142<4.3678 97.7321 389.796 492.431> 225 60<-52.8368 -11>
Fore
212 512 m 0xe0
 253 512 282 480 282 442 c 0
 282 403 254 370 212 370 c 0
 169 370 140 402 140 442 c 0
 140 484 173 512 212 512 c 0xe0
209 121 m 256
 270 121 285 68 285 29 c 0
 285 -38 239 -112 169 -144 c 1
 147 -115 l 1
 163 -108 220 -77 225 -11 c 1xd0
 218 -13 211 -15 204 -15 c 0
 173 -15 133 10 133 48 c 0
 133 71 147 121 209 121 c 256
EndSplineSet
EndChar
StartChar: less
Encoding: 60 60 29
Width: 720
VWidth: 1533
Flags: W
HStem: -11 21G<615.87 662>
Fore
198 291 m 1
 662 92 l 1
 662 -11 l 1
 60 250 l 1
 60 331 l 1
 662 592 l 1
 662 491 l 1
 198 291 l 1
EndSplineSet
EndChar
StartChar: equal
Encoding: 61 61 30
Width: 719
VWidth: 1533
Flags: W
HStem: 153 74<52 667> 363 74<52 667>
Fore
52 363 m 1
 52 437 l 1
 667 437 l 1
 667 363 l 1
 52 363 l 1
52 153 m 1
 52 227 l 1
 667 227 l 1
 667 153 l 1
 52 153 l 1
EndSplineSet
EndChar
StartChar: greater
Encoding: 62 62 31
Width: 720
VWidth: 1533
Flags: W
HStem: -11 21G<60 106.13>
Fore
60 -11 m 1
 60 92 l 1
 523 291 l 1
 60 491 l 1
 60 592 l 1
 662 331 l 1
 662 250 l 1
 60 -11 l 1
EndSplineSet
EndChar
StartChar: question
Encoding: 63 63 32
Width: 608
VWidth: 1533
Flags: W
HStem: -17 144<225.998 329.478> 681 56<225.118 366.84>
VStem: 40 126<480 593.957> 205 145<4.07428 107.125> 247 61<181 194 194 260.99> 408 145<462.903 618.048>
Fore
294 737 m 0xec
 424 737 553 673 553 527 c 0
 553 362 316 384 308 181 c 1
 247 181 l 1
 247 190 246 198 246 207 c 0
 246 419 408 406 408 529 c 256
 408 626 386 681 291 681 c 0
 188 681 166 573 166 480 c 1
 40 480 l 1
 40 641 138 737 294 737 c 0xec
278 127 m 256
 318 127 350 98 350 55 c 256
 350 12 316 -17 278 -17 c 256
 240 -17 205 12 205 55 c 256xf4
 205 98 238 127 278 127 c 256
EndSplineSet
EndChar
StartChar: at
Encoding: 64 64 33
Width: 942
VWidth: 1533
Flags: W
HStem: -23 64<386.407 596.324> 143 59<642.089 712.425> 144 69<369.962 482.624> 495 66<481.102 563.631> 685 52<387.838 606.484>
VStem: 66 130<227.355 467.038> 293 118<223.326 397.164> 793 84<307.247 506.348>
Fore
492 737 m 0xdf
 708 737 877 605 877 411 c 0
 877 293 788 143 649 143 c 0xdf
 586 143 551 208 544 227 c 1
 492 159 455 144 412 144 c 0xbf
 317 144 293 232 293 290 c 0
 293 385 358 561 520 561 c 0
 561 561 589 540 606 498 c 1
 639 550 l 1
 727 550 l 1
 649 265 l 2
 644 249 641 235 641 223 c 0
 641 210 645 202 661 202 c 0
 732 202 793 316 793 408 c 0
 793 556 663 685 494 685 c 0
 299 685 196 511 196 345 c 256
 196 163 335 41 504 41 c 0
 594 41 672 76 728 112 c 1
 767 51 l 1
 626 -22 549 -23 507 -23 c 0
 269 -23 66 123 66 342 c 0
 66 553 235 737 492 737 c 0xdf
411 294 m 0
 411 257 420 213 457 213 c 0xbf
 504 213 572 325 572 425 c 0
 572 467 558 495 538 495 c 0
 470 495 411 417 411 294 c 0
EndSplineSet
EndChar
StartChar: A
Encoding: 65 65 34
Width: 892
VWidth: 1533
Flags: W
HStem: 0 21G<8 103.362 725.928 885> 345 77<331 504> 719 20G<425.39 490.961>
Fore
737 0 m 1
 546 345 l 1
 288 345 l 1
 92 0 l 1
 8 0 l 1
 437 739 l 1
 480 739 l 1
 885 0 l 1
 737 0 l 1
420 581 m 1
 331 422 l 1
 504 422 l 1
 420 581 l 1
EndSplineSet
EndChar
StartChar: B
Encoding: 66 66 35
Width: 863
VWidth: 1533
Flags: W
HStem: 0 61<204 584.909> 351 63<204 538.329> 653 61<204 544.244>
VStem: 77 127<61 351 414 653> 624 133<478.007 593.283> 685 140<135.133 274.305>
Fore
624 389 m 1xf8
 818 345 825 242 825 205 c 0xf4
 825 123 774 0 434 0 c 2
 77 0 l 1
 77 714 l 1
 449 714 l 2
 650 714 757 651 757 541 c 256
 757 450 665 405 624 389 c 1xf8
400 414 m 2
 579 414 624 487 624 535 c 0xf8
 624 629 509 653 397 653 c 2
 204 653 l 1
 204 414 l 1
 400 414 l 2
489 61 m 2
 591 61 685 116 685 199 c 0xf4
 685 321 563 351 400 351 c 2
 204 351 l 1
 204 61 l 1
 489 61 l 2
EndSplineSet
EndChar
StartChar: C
Encoding: 67 67 36
Width: 903
VWidth: 1533
Flags: W
HStem: -23 58<379.35 582.785> 679 60<374.841 581.582>
VStem: 38 143<243.639 476.301>
Fore
865 207 m 1
 767 6 592 -23 486 -23 c 0
 225 -23 38 152 38 353 c 0
 38 585 236 739 488 739 c 0
 687 739 809 631 865 509 c 1
 711 509 l 1
 686 572 621 679 486 679 c 0
 303 679 181 535 181 363 c 256
 181 184 310 35 486 35 c 0
 602 35 679 116 714 207 c 1
 865 207 l 1
EndSplineSet
EndChar
StartChar: D
Encoding: 68 68 37
Width: 898
VWidth: 1533
Flags: W
HStem: 0 61<204 525.375> 653 61<204 531.328>
VStem: 77 127<61 653> 714 146<241.391 496.074>
Fore
353 714 m 2
 790 714 860 513 860 379 c 0
 860 76 621 -0 359 0 c 2
 77 0 l 1
 77 714 l 1
 353 714 l 2
374 61 m 2
 637 61 714 186 714 379 c 0
 714 543 621 653 374 653 c 2
 204 653 l 1
 204 61 l 1
 374 61 l 2
EndSplineSet
EndChar
StartChar: E
Encoding: 69 69 38
Width: 742
VWidth: 1533
Flags: W
HStem: 0 61<202 719> 353 61<202 610> 653 61<202 719>
VStem: 77 125<61 353 414 653>
Fore
77 0 m 1
 77 714 l 1
 719 714 l 1
 719 653 l 1
 202 653 l 1
 202 414 l 1
 610 414 l 1
 610 353 l 1
 202 353 l 1
 202 61 l 1
 719 61 l 1
 719 0 l 1
 77 0 l 1
EndSplineSet
EndChar
StartChar: F
Encoding: 70 70 39
Width: 742
VWidth: 1533
Flags: W
HStem: 0 21G<77 202> 353 61<202 610> 653 61<202 719>
VStem: 77 125<0 353 414 653>
Fore
202 653 m 1
 202 414 l 1
 610 414 l 1
 610 353 l 1
 202 353 l 1
 202 0 l 1
 77 0 l 1
 77 714 l 1
 719 714 l 1
 719 653 l 1
 202 653 l 1
EndSplineSet
EndChar
StartChar: G
Encoding: 71 71 40
Width: 932
VWidth: 1533
Flags: W
HStem: -23 60<370.287 590.342> 324 62<461 719> 679 60<372.747 575.182>
VStem: 37 145<239.895 480.092> 719 126<140 324>
Fore
37 353 m 0
 37 603 260 739 475 739 c 0
 677 739 809 642 863 509 c 1
 711 509 l 1
 682 578 617 679 475 679 c 0
 305 679 182 535 182 365 c 0
 182 158 328 37 471 37 c 0
 620 37 705 125 719 140 c 1
 719 324 l 1
 461 324 l 1
 461 386 l 1
 845 386 l 1
 845 107 l 1
 759 25 625 -23 471 -23 c 0
 278 -23 37 111 37 353 c 0
EndSplineSet
EndChar
StartChar: H
Encoding: 72 72 41
Width: 883
VWidth: 1533
Flags: W
HStem: 0 21G<77 202 681 806> 353 61<202 681> 694 20G<77 202 681 806>
VStem: 77 125<0 353 414 714> 681 125<0 353 414 714>
Fore
806 0 m 1
 681 0 l 1
 681 353 l 1
 202 353 l 1
 202 0 l 1
 77 0 l 1
 77 714 l 1
 202 714 l 1
 202 414 l 1
 681 414 l 1
 681 714 l 1
 806 714 l 1
 806 0 l 1
EndSplineSet
EndChar
StartChar: I
Encoding: 73 73 42
Width: 279
VWidth: 1533
Flags: MW
HStem: 0 21G<77 77 77 202> 694 20G<77 202 202 202>
VStem: 77 125<0 714>
Fore
77 0 m 1
 77 714 l 1
 202 714 l 1
 202 0 l 1
 77 0 l 1
EndSplineSet
EndChar
StartChar: J
Encoding: 74 74 43
Width: 574
VWidth: 1533
Flags: W
HStem: -31 59<180.325 308.468> 694 20G<371 498>
VStem: 371 127<112.062 714>
Fore
247 28 m 0
 319 28 371 95 371 207 c 2
 371 714 l 1
 498 714 l 1
 498 225 l 2
 498 49 371 -31 250 -31 c 0
 128 -31 2 34 -6 169 c 1
 126 169 l 1
 130 95 166 28 247 28 c 0
EndSplineSet
EndChar
StartChar: K
Encoding: 75 75 44
Width: 807
VWidth: 1533
Flags: W
HStem: 0 21G<77 202 632.652 800> 694 20G<77 202 587.312 741>
VStem: 77 125<0 302 394 714>
Fore
647 0 m 1
 350 414 l 1
 202 302 l 1
 202 0 l 1
 77 0 l 1
 77 714 l 1
 202 714 l 1
 202 394 l 1
 613 714 l 1
 741 714 l 1
 446 489 l 1
 800 0 l 1
 647 0 l 1
EndSplineSet
EndChar
StartChar: L
Encoding: 76 76 45
Width: 656
VWidth: 1533
Flags: W
HStem: 0 61<202 649> 694 20G<77 202>
VStem: 77 125<61 714>
Fore
77 0 m 1
 77 714 l 1
 202 714 l 1
 202 61 l 1
 649 61 l 1
 649 0 l 1
 77 0 l 1
EndSplineSet
EndChar
StartChar: M
Encoding: 77 77 46
Width: 987
VWidth: 1533
Flags: W
HStem: 0 21G<77 153 437.631 498.588 785 911> 694 20G<77 229.309 783.437 911>
VStem: 77 76<0 557> 785 126<0 549>
Fore
785 0 m 1
 785 549 l 1
 488 -12 l 1
 448 -12 l 1
 153 557 l 1
 153 0 l 1
 77 0 l 1
 77 714 l 1
 219 714 l 1
 503 163 l 1
 794 714 l 1
 911 714 l 1
 911 0 l 1
 785 0 l 1
EndSplineSet
EndChar
StartChar: N
Encoding: 78 78 47
Width: 863
VWidth: 1533
Flags: W
HStem: -23 21<77 153 724.591 787> 694 20G<77 220.427 710 787>
VStem: 77 76<-2 586> 710 77<190 714>
Fore
744 -23 m 1
 153 586 l 1
 153 -2 l 1
 77 -2 l 1
 77 714 l 1
 201 714 l 1
 710 190 l 1
 710 714 l 1
 787 714 l 1
 787 -23 l 1
 744 -23 l 1
EndSplineSet
EndChar
StartChar: O
Encoding: 79 79 48
Width: 956
VWidth: 1533
Flags: W
HStem: -26 55<369.008 586.477> 685 54<369.413 587.349>
VStem: 38 146<241.527 469.684> 773 145<243.92 470.606>
Fore
478 739 m 256
 726 739 918 565 918 357 c 256
 918 151 724 -26 477 -26 c 256
 235 -26 38 143 38 356 c 256
 38 566 233 739 478 739 c 256
477 29 m 256
 655 29 773 172 773 357 c 256
 773 543 655 685 478 685 c 0
 302 685 184 540 184 356 c 256
 184 170 301 29 477 29 c 256
EndSplineSet
EndChar
StartChar: P
Encoding: 80 80 49
Width: 803
VWidth: 1533
Flags: W
HStem: 0 21G<77 202> 308 63<202 511.164> 653 61<202 504.703>
VStem: 77 125<0 308 371 653> 626 139<452.096 572.58>
Fore
330 714 m 2
 583 714 765 675 765 517 c 0
 765 350 578 308 327 308 c 2
 202 308 l 1
 202 0 l 1
 77 0 l 1
 77 714 l 1
 330 714 l 2
328 371 m 2
 470 371 626 392 626 520 c 0
 626 573 568 653 333 653 c 2
 202 653 l 1
 202 371 l 1
 328 371 l 2
EndSplineSet
EndChar
StartChar: Q
Encoding: 81 81 50
Width: 956
VWidth: 1533
Flags: W
HStem: -31 52<367.597 417> 684 55<369.413 587.516>
VStem: 38 146<236.405 466.117> 773 145<238.831 467.331>
Fore
570 -25 m 1
 585 -104 696 -204 826 -156 c 1
 810 -212 l 1
 651 -285 465 -185 417 -31 c 1
 202 -4 38 155 38 351 c 0
 38 564 233 739 478 739 c 256
 727 739 918 564 918 353 c 0
 918 156 754 7 570 -25 c 1
477 21 m 256
 654 21 773 168 773 353 c 256
 773 538 655 684 478 684 c 0
 302 684 184 537 184 351 c 256
 184 183 285 21 477 21 c 256
EndSplineSet
EndChar
StartChar: R
Encoding: 82 82 51
Width: 818
VWidth: 1533
Flags: W
HStem: 0 21G<38 166 640 803> 308 63<166 489.069> 653 61<166 483.166>
VStem: 38 128<0 308 371 653> 584 149<453.853 584.474>
Fore
733 517 m 0
 733 424 609 364 543 350 c 1
 645 328 683 250 693 218 c 2
 722 130 l 2
 735 87 760 41 803 0 c 1
 652 0 l 1
 628 22 604 51 570 152 c 2
 555 201 l 2
 538 252 502 308 435 308 c 2
 166 308 l 1
 166 0 l 1
 38 0 l 1
 38 714 l 1
 291 714 l 2
 559 714 733 675 733 517 c 0
316 371 m 2
 482 371 584 401 584 520 c 0
 584 600 518 653 308 653 c 2
 166 653 l 1
 166 371 l 1
 316 371 l 2
EndSplineSet
EndChar
StartChar: S
Encoding: 83 83 52
Width: 789
VWidth: 1533
Flags: W
HStem: -25 60<299.242 508.407> 678 58<283.15 503.366>
VStem: 63 135<500.827 608.531> 616 135<119.255 236.994>
Fore
198 547 m 0
 198 370 751 474 751 213 c 0
 751 23 549 -25 394 -25 c 0
 222 -25 55 59 38 236 c 1
 186 236 l 1
 188 134 269 35 394 35 c 0
 517 35 616 96 616 187 c 0
 616 370 63 265 63 527 c 0
 63 689 261 736 394 736 c 0
 573 736 714 668 739 524 c 1
 604 524 l 1
 596 569 562 678 394 678 c 0
 276 678 198 622 198 547 c 0
EndSplineSet
EndChar
StartChar: T
Encoding: 84 84 53
Width: 746
VWidth: 1533
Flags: W
HStem: 0 21G<308 438> 653 61<15 308 438 731>
VStem: 308 130<0 653>
Fore
438 653 m 1
 438 0 l 1
 308 0 l 1
 308 653 l 1
 15 653 l 1
 15 714 l 1
 731 714 l 1
 731 653 l 1
 438 653 l 1
EndSplineSet
EndChar
StartChar: U
Encoding: 85 85 54
Width: 927
VWidth: 1533
Flags: W
HStem: -25 59<351.319 571.029> 694 20G<77 202 721 846>
VStem: 77 125<181.753 714> 721 125<181.753 278 278 714>
Fore
461 34 m 256
 607 34 721 132 721 278 c 2
 721 714 l 1
 846 714 l 1
 846 294 l 2
 846 71 667 -25 461 -25 c 0
 255 -25 77 71 77 294 c 2
 77 714 l 1
 202 714 l 1
 202 278 l 2
 202 132 316 34 461 34 c 256
EndSplineSet
EndChar
StartChar: V
Encoding: 86 86 55
Width: 861
VWidth: 1533
Flags: W
HStem: -20 21G<386.401 451.281> 694 20G<8 162.563 756.873 854>
Fore
440 -20 m 1
 397 -20 l 1
 8 714 l 1
 152 714 l 1
 452 146 l 1
 768 714 l 1
 854 714 l 1
 440 -20 l 1
EndSplineSet
EndChar
StartChar: W
Encoding: 87 87 56
Width: 1113
VWidth: 1533
Flags: W
HStem: -20 21G<296.907 358.422 753.367 814.147> 694 20G<8 155.187 545.359 597.571 1021.77 1105>
Fore
806 -20 m 1
 762 -20 l 1
 541 492 l 1
 351 -20 l 1
 305 -20 l 1
 8 714 l 1
 147 714 l 1
 357 201 l 1
 553 714 l 1
 589 714 l 1
 814 189 l 1
 1030 714 l 1
 1105 714 l 1
 806 -20 l 1
EndSplineSet
EndChar
StartChar: X
Encoding: 88 88 57
Width: 748
VWidth: 1533
Flags: W
HStem: -2 21G<8 113.02 574.232 737> 694 20G<32 194.664 634.587 741>
Fore
440 382 m 1
 737 -2 l 1
 590 -2 l 1
 359 291 l 1
 95 -2 l 1
 8 -2 l 1
 322 339 l 1
 32 714 l 1
 179 714 l 1
 403 428 l 1
 652 714 l 1
 741 714 l 1
 440 382 l 1
EndSplineSet
EndChar
StartChar: Y
Encoding: 89 89 58
Width: 829
VWidth: 1533
Flags: W
HStem: 0 21G<339 468> 694 20G<8 171.235 712.412 822>
VStem: 339 129<0 302>
Fore
468 317 m 1
 468 0 l 1
 339 0 l 1
 339 302 l 1
 8 714 l 1
 155 714 l 1
 431 374 l 1
 730 714 l 1
 822 714 l 1
 468 317 l 1
EndSplineSet
EndChar
StartChar: Z
Encoding: 90 90 59
Width: 745
VWidth: 1533
Flags: W
HStem: 0 61<213 676> 653 61<92 537>
Fore
213 61 m 1
 704 61 l 1
 676 0 l 1
 15 0 l 1
 537 653 l 1
 63 653 l 1
 92 714 l 1
 730 714 l 1
 213 61 l 1
EndSplineSet
EndChar
StartChar: bracketleft
Encoding: 91 91 60
Width: 349
VWidth: 1533
Flags: W
HStem: -201 21G<203.5 271> 717 20G<203.5 271>
VStem: 69 109<-102.443 639.191>
Fore
178 -25 m 2
 178 -135 195 -149 271 -161 c 1
 271 -201 l 1
 136 -201 69 -128 69 17 c 2
 69 520 l 2
 69 665 136 737 271 737 c 1
 271 698 l 1
 194 686 178 666 178 560 c 2
 178 -25 l 2
EndSplineSet
EndChar
StartChar: backslash
Encoding: 92 92 61
Width: 371
VWidth: 1533
Flags: W
HStem: -23 21G<279.816 399> 717 20G<-23 94.2368>
VStem: -23 422<-23 737 737 737>
Fore
288 -23 m 1
 -23 737 l 1
 86 737 l 1
 399 -23 l 1
 288 -23 l 1
EndSplineSet
EndChar
StartChar: bracketright
Encoding: 93 93 62
Width: 349
VWidth: 1533
Flags: W
HStem: -201 21G<78 145.5> 717 20G<78 145.5>
VStem: 170 111<-100.452 636.883>
Fore
170 560 m 2
 170 661 163 685 78 698 c 1
 78 737 l 1
 213 737 281 665 281 520 c 2
 281 17 l 2
 281 -128 213 -201 78 -201 c 1
 78 -161 l 1
 162 -148 170 -130 170 -25 c 2
 170 560 l 2
EndSplineSet
EndChar
StartChar: asciicircum
Encoding: 94 94 63
Width: 731
VWidth: 1533
Flags: W
HStem: 281 406<320 518 320 320>
Fore
518 281 m 1
 366 553 l 1
 215 281 l 1
 97 281 l 1
 320 687 l 1
 412 687 l 1
 638 281 l 1
 518 281 l 1
EndSplineSet
EndChar
StartChar: underscore
Encoding: 95 95 64
Width: 619
VWidth: 1533
Flags: W
HStem: -140 56<8 612>
Fore
8 -140 m 1
 8 -84 l 1
 612 -84 l 1
 612 -140 l 1
 8 -140 l 1
EndSplineSet
EndChar
StartChar: grave
Encoding: 96 96 65
Width: 349
VWidth: 1533
Flags: W
HStem: 652 196
VStem: -5 309<652 797 797 797>
Fore
-5 797 m 0
 -5 812 1 848 41 848 c 0
 65 848 87 835 101 823 c 2
 304 652 l 1
 227 652 l 1
 54 737 l 2
 15 757 -5 777 -5 797 c 0
EndSplineSet
EndChar
StartChar: a
Encoding: 97 97 66
Width: 657
VWidth: 1533
Flags: W
HStem: -15 58<222.633 384.844> 285 60<260.29 433.946 433.946 475> 491 59<241.364 409.249>
VStem: 31 128<100.476 211.526> 475 111<142.925 245 245 285 347 428.826> 504 108<-2 68.6427>
Fore
586 132 m 2xf8
 586 105 586 75 612 -2 c 1
 504 -2 l 1xf4
 490 38 488 53 486 67 c 1
 431 7 352 -15 274 -15 c 0
 167 -15 31 34 31 159 c 0
 31 308 230 345 394 345 c 0
 402 345 443 347 475 347 c 1
 475 403 448 491 324 491 c 0
 214 491 193 414 186 379 c 1
 58 379 l 1
 99 517 235 550 324 550 c 0
 548 550 586 427 586 345 c 2
 586 132 l 2xf8
302 43 m 0
 406 43 475 130 475 245 c 2
 475 285 l 1xf8
 396 285 l 2
 264 285 159 237 159 156 c 0
 159 99 225 43 302 43 c 0
EndSplineSet
Substitution2: "Single Substitution lookup 22 subtable" uni0E38
Substitution2: "Single Substitution lookup 22 subtable" uni0E38
EndChar
StartChar: b
Encoding: 98 98 67
Width: 709
VWidth: 1533
Flags: W
HStem: -17 61<290.098 442.019> 501 60<289.106 442.682>
VStem: 69 110<-2 67 167.032 374.909 469 742> 553 126<166.708 376.259>
Fore
679 273 m 0
 679 114 550 -17 382 -17 c 0
 291 -17 224 18 179 67 c 1
 179 -2 l 1
 69 -2 l 1
 69 742 l 1
 179 742 l 1
 179 469 l 1
 226 530 294 561 382 561 c 0
 551 561 679 446 679 273 c 0
553 270 m 0
 553 397 470 501 363 501 c 0
 268 501 179 397 179 270 c 0
 179 145 269 44 363 44 c 0
 458 44 553 132 553 270 c 0
EndSplineSet
Substitution2: "Single Substitution lookup 22 subtable" uni0E39
Substitution2: "Single Substitution lookup 22 subtable" uni0E39
EndChar
StartChar: c
Encoding: 99 99 68
Width: 685
VWidth: 1533
Flags: W
HStem: -15 59<269.481 442.226> 491 59<274.808 443.071>
VStem: 38 131<163.284 370.932>
Fore
655 173 m 1
 606 20 469 -15 365 -15 c 0
 191 -15 38 98 38 267 c 256
 38 437 191 550 365 550 c 0
 473 550 608 513 655 360 c 1
 527 360 l 1
 487 461 426 491 359 491 c 0
 243 491 169 393 169 273 c 0
 169 142 236 44 359 44 c 0
 436 44 492 87 527 173 c 1
 655 173 l 1
EndSplineSet
Substitution2: "Single Substitution lookup 22 subtable" uni0E3A
Substitution2: "Single Substitution lookup 22 subtable" uni0E3A
EndChar
StartChar: d
Encoding: 100 100 69
Width: 709
VWidth: 1533
Flags: W
HStem: -17 61<268.272 419.445> 501 60<267.216 419.512>
VStem: 31 125<165.048 377.139> 529 112<-2 67 169.674 373.588 469 742>
Fore
31 273 m 0
 31 446 158 561 327 561 c 0
 414 561 481 530 529 469 c 1
 529 742 l 1
 641 742 l 1
 641 -2 l 1
 529 -2 l 1
 529 67 l 1
 485 18 417 -17 327 -17 c 0
 171 -17 31 99 31 273 c 0
529 270 m 0
 529 394 443 501 345 501 c 0
 244 501 156 401 156 270 c 0
 156 123 259 44 345 44 c 256
 445 44 529 151 529 270 c 0
EndSplineSet
EndChar
StartChar: e
Encoding: 101 101 70
Width: 693
VWidth: 1533
Flags: W
HStem: -17 61<278.483 448.611> 314 63<196 518> 492 58<275.193 438.351>
VStem: 38 131<163.266 305.727 300.346 311.108> 541 115<136.053 215>
Fore
38 261 m 0
 38 447 196 550 357 550 c 0
 519 550 645 473 662 314 c 1
 170 314 l 1
 170 313 169 302 169 286 c 0
 169 88 290 44 371 44 c 0
 470 44 533 135 541 215 c 1
 656 215 l 1
 648 62 511 -17 370 -17 c 0
 157 -17 38 129 38 261 c 0
351 492 m 0
 283 492 219 440 196 377 c 1
 518 377 l 1
 499 428 451 492 351 492 c 0
EndSplineSet
EndChar
StartChar: f
Encoding: 102 102 71
Width: 375
VWidth: 1533
Flags: W
HStem: 0 21G<117 228> 451 63<51 117 228 308> 661 79<255.168 351.429>
VStem: 117 111<0 451 514 609.219>
Fore
388 632 m 1
 351 652 324 661 308 661 c 0
 281 661 228 647 228 592 c 2
 228 514 l 1
 340 514 l 1
 308 451 l 1
 228 451 l 1
 228 0 l 1
 117 0 l 1
 117 451 l 1
 18 451 l 1
 51 514 l 1
 117 514 l 1
 117 656 239 740 361 740 c 0
 370 740 379 740 388 739 c 1
 388 632 l 1
EndSplineSet
EndChar
StartChar: g
Encoding: 103 103 72
Width: 708
VWidth: 1533
Flags: W
HStem: -204 57<221.073 464.909> 49 78<258.569 439.807> 153 62<249.054 430.396> 489 61<249.216 414.455> 523 98<556.599 619.228>
VStem: 20 123<-89.4279 5.48925> 60 127<277.905 429.136> 495 127<279.447 428.831> 553 115<-86.8831 -1.02869>
Fore
238 144 m 0xeb
 238 130 269 127 320 127 c 0
 430 127 549 127 628 67 c 0
 655 47 668 18 668 -20 c 0
 668 -58 656 -89 633 -112 c 0
 569 -176 459 -204 324 -204 c 0
 224 -204 20 -161 20 -43 c 0xec80
 20 29 140 69 173 77 c 1
 136 86 120 109 120 130 c 0
 120 163 152 179 184 182 c 1
 76 243 60 319 60 353 c 256
 60 471 196 550 342 550 c 0xf2
 364 550 409 547 452 537 c 1
 490 605 546 621 656 621 c 1
 656 512 l 1
 627 519 602 523 583 523 c 0
 576 523 539 520 515 509 c 1
 538 497 622 447 622 353 c 0
 622 244 493 153 342 153 c 2
 265 153 l 2
 244 153 238 149 238 144 c 0xeb
495 353 m 0xf3
 495 441 435 489 342 489 c 0
 250 489 187 441 187 353 c 0
 187 263 249 215 342 215 c 256
 434 215 495 264 495 353 c 0xf3
553 -49 m 0xe480
 553 -10 512 49 348 49 c 0
 188 49 143 10 143 -49 c 0
 143 -82 196 -147 348 -147 c 0
 468 -147 553 -88 553 -49 c 0xe480
EndSplineSet
EndChar
StartChar: h
Encoding: 104 104 73
Width: 683
VWidth: 1533
Flags: W
HStem: 0 21G<69 179 500 615> 491 59<267.99 436.303> 682 20G<69 179>
VStem: 69 110<0 392.33 465 702> 500 115<0 430.611>
Fore
360 550 m 0
 499 550 615 489 615 340 c 2
 615 0 l 1
 500 0 l 1
 500 365 l 2
 500 415 463 491 348 491 c 0
 247 491 179 400 179 299 c 2
 179 0 l 1
 69 0 l 1
 69 702 l 1
 179 702 l 1
 179 465 l 1
 231 533 313 550 360 550 c 0
EndSplineSet
EndChar
StartChar: i
Encoding: 105 105 74
Width: 297
VWidth: 1533
Flags: W
HStem: 0 21G<92 202> 524 20G<92 202> 572 135<95.6218 201.567>
VStem: 77 144<591.625 688.375> 92 110<0 544>
Fore
221 639 m 0xf0
 221 603 190 572 149 572 c 256
 107 572 77 602 77 639 c 0
 77 680 109 707 149 707 c 256
 187 707 221 680 221 639 c 0xf0
92 544 m 1xe8
 202 544 l 1
 202 0 l 1
 92 0 l 1
 92 544 l 1xe8
EndSplineSet
EndChar
StartChar: j
Encoding: 106 106 75
Width: 325
VWidth: 1533
Flags: W
HStem: -189 80<-0.135572 83.9469> 521 20G<120 232> 570 137<123.322 229.378>
VStem: 104 144<589.125 688.375> 120 112<-56.5312 57 57 541>
Fore
248 639 m 256xf0
 248 598 216 570 176 570 c 256
 138 570 104 598 104 639 c 256
 104 680 138 707 176 707 c 256
 216 707 248 680 248 639 c 256xf0
232 80 m 2xe8
 232 -144 111 -189 31 -189 c 0
 -2 -189 -52 -183 -90 -155 c 1
 -41 -78 l 1
 -16 -102 13 -109 26 -109 c 0
 83 -109 120 -75 120 57 c 2
 120 541 l 1
 232 541 l 1
 232 80 l 2xe8
EndSplineSet
EndChar
StartChar: k
Encoding: 107 107 76
Width: 614
VWidth: 1533
Flags: W
HStem: 0 21G<69 179 484.886 629> 526 20G<439.234 581>
VStem: 69 110<0 241 324 742>
Fore
268 307 m 1
 179 241 l 1
 179 0 l 1
 69 0 l 1
 69 742 l 1
 179 742 l 1
 179 324 l 1
 465 546 l 1
 581 546 l 1
 353 373 l 1
 629 0 l 1
 500 0 l 1
 268 307 l 1
EndSplineSet
EndChar
StartChar: l
Encoding: 108 108 77
Width: 248
VWidth: 1533
Flags: W
HStem: 0 21G<69 179>
VStem: 69 110<0 742>
Fore
69 742 m 1
 179 742 l 1
 179 0 l 1
 69 0 l 1
 69 742 l 1
EndSplineSet
EndChar
StartChar: m
Encoding: 109 109 78
Width: 1048
VWidth: 1533
Flags: W
HStem: 0 21G<69 179 474 589 865 980> 489 60<267.793 410.681 655.436 803.782>
VStem: 69 110<0 390.889 460 534> 474 115<0 406.106> 865 115<0 427.292>
Fore
733 549 m 0
 862 549 980 488 980 345 c 2
 980 0 l 1
 865 0 l 1
 865 354 l 2
 865 435 802 489 728 489 c 0
 645 489 589 430 589 273 c 2
 589 0 l 1
 474 0 l 1
 474 293 l 2
 474 384 448 489 342 489 c 0
 244 489 179 389 179 299 c 2
 179 0 l 1
 69 0 l 1
 69 534 l 1
 179 534 l 1
 179 460 l 1
 214 518 281 549 359 549 c 0
 413 549 500 532 549 429 c 1
 590 529 663 549 733 549 c 0
EndSplineSet
EndChar
StartChar: n
Encoding: 110 110 79
Width: 683
VWidth: 1533
Flags: W
HStem: 0 21G<69 179 500 615> 489 60<268.406 435.932>
VStem: 69 110<0 391.826 465 534> 500 115<0 429.199>
Fore
360 549 m 0
 497 549 615 487 615 339 c 2
 615 0 l 1
 500 0 l 1
 500 363 l 2
 500 413 463 489 348 489 c 0
 247 489 179 400 179 299 c 2
 179 0 l 1
 69 0 l 1
 69 534 l 1
 179 534 l 1
 179 465 l 1
 229 531 309 549 360 549 c 0
EndSplineSet
EndChar
StartChar: o
Encoding: 111 111 80
Width: 708
VWidth: 1533
Flags: W
HStem: -15 59<260.36 451.635> 488 59<260.523 447.706>
VStem: 31 128<157.598 376.219> 550 128<160.381 376.019>
Fore
678 267 m 256
 678 98 539 -15 353 -15 c 0
 165 -15 31 98 31 267 c 256
 31 454 188 547 354 547 c 0
 519 547 678 453 678 267 c 256
550 267 m 256
 550 444 441 488 354 488 c 256
 268 488 159 444 159 267 c 256
 159 89 269 44 356 44 c 256
 442 44 550 89 550 267 c 256
EndSplineSet
EndChar
StartChar: p
Encoding: 112 112 81
Width: 717
VWidth: 1533
Flags: W
HStem: -198 21G<69 179> -29 60<289.883 443.327> 486 61<286.866 442.748>
VStem: 69 110<-198 60 157.091 364.544> 553 126<155.741 363.676>
Fore
679 259 m 0
 679 86 554 -29 382 -29 c 0
 291 -29 224 10 179 60 c 1
 179 -198 l 1
 69 -198 l 1
 69 532 l 1
 164 532 l 1
 172 452 l 1
 218 517 298 547 382 547 c 0
 549 547 679 416 679 259 c 0
553 262 m 0
 553 396 462 486 363 486 c 0
 269 486 179 387 179 262 c 0
 179 135 268 31 363 31 c 0
 471 31 553 135 553 262 c 0
EndSplineSet
EndChar
StartChar: q
Encoding: 113 113 82
Width: 717
VWidth: 1533
Flags: W
HStem: -198 21G<538 649> -29 60<273.03 426.958> 486 61<273.02 430.028>
VStem: 38 126<154.2 364.561> 538 111<-198 60 157.091 364.544>
Fore
336 547 m 0
 431 547 506 508 546 452 c 1
 553 532 l 1
 649 532 l 1
 649 -198 l 1
 538 -198 l 1
 538 60 l 1
 494 10 426 -29 336 -29 c 0
 163 -29 38 86 38 259 c 0
 38 418 169 547 336 547 c 0
538 262 m 0
 538 387 448 486 353 486 c 256
 248 486 164 387 164 262 c 0
 164 128 252 31 353 31 c 256
 448 31 538 135 538 262 c 0
EndSplineSet
EndChar
StartChar: r
Encoding: 114 114 83
Width: 404
VWidth: 1533
Flags: W
HStem: 0 21G<69 179> 461 84<256.891 358.346>
VStem: 69 110<0 398.069 451 534>
Fore
179 451 m 1
 204 494 252 545 362 545 c 0
 373 545 384 544 396 543 c 1
 376 438 l 1
 363 447 331 461 314 461 c 0
 206 461 179 375 179 290 c 2
 179 0 l 1
 69 0 l 1
 69 534 l 1
 179 534 l 1
 179 451 l 1
EndSplineSet
EndChar
StartChar: s
Encoding: 115 115 84
Width: 636
VWidth: 1533
Flags: W
HStem: -18 59<235.125 426.247> 488 59<225.898 403.586>
VStem: 38 115<81.17 155.447> 72 114<358.131 451.417> 481 117<87.2209 181.952 353 407.109>
Fore
598 161 m 0xd8
 598 18 439 -18 320 -18 c 0
 204 -18 69 32 38 178 c 1
 153 178 l 1xe8
 165 118 214 41 320 41 c 0
 413 41 481 77 481 143 c 0
 481 204 388 214 280 229 c 0
 155 246 72 294 72 389 c 0
 72 515 235 547 325 547 c 0
 470 547 575 477 596 353 c 1
 480 353 l 1
 466 419 418 488 324 488 c 0
 216 488 186 438 186 405 c 0
 186 346 252 331 297 324 c 0
 388 301 598 305 598 161 c 0xd8
EndSplineSet
EndChar
StartChar: t
Encoding: 116 116 85
Width: 394
VWidth: 1533
Flags: W
HStem: -9 72<239.589 349.653> 448 58<35 115 227 333>
VStem: 117 110<74.8993 448>
Fore
227 153 m 2
 227 102 236 63 281 63 c 256
 312 63 343 80 379 101 c 1
 379 17 l 1
 354 2 312 -9 273 -9 c 0
 193 -9 117 31 117 170 c 2
 117 448 l 1
 35 448 l 1
 35 506 l 1
 115 506 l 1
 173 656 l 1
 227 656 l 1
 227 506 l 1
 333 506 l 1
 333 448 l 1
 227 448 l 1
 227 153 l 2
EndSplineSet
EndChar
StartChar: u
Encoding: 117 117 86
Width: 683
VWidth: 1533
Flags: W
HStem: -17 60<246.011 411.862> 514 20G<69 182 503 615>
VStem: 69 113<102.801 534> 503 112<-2 69 143.055 534>
Fore
334 43 m 0
 428 43 503 128 503 235 c 2
 503 534 l 1
 615 534 l 1
 615 -2 l 1
 503 -2 l 1
 503 69 l 1
 461 12 388 -17 322 -17 c 0
 183 -17 69 45 69 193 c 2
 69 534 l 1
 182 534 l 1
 182 170 l 2
 182 119 220 43 334 43 c 0
EndSplineSet
EndChar
StartChar: v
Encoding: 118 118 87
Width: 645
VWidth: 1533
Flags: W
HStem: -17 21G<296.038 352.853> 514 20G<5 141.078 556.173 641>
Fore
307 -17 m 1
 5 534 l 1
 130 534 l 1
 351 135 l 1
 567 534 l 1
 641 534 l 1
 342 -17 l 1
 307 -17 l 1
EndSplineSet
EndChar
StartChar: w
Encoding: 119 119 88
Width: 962
VWidth: 1533
Flags: W
HStem: -17 21G<268.091 323.027 642.757 699.728> 514 20G<5 136.746 482.4 524.27 876.435 958>
Fore
652 -17 m 1
 481 353 l 1
 314 -17 l 1
 278 -17 l 1
 5 534 l 1
 127 534 l 1
 319 140 l 1
 491 540 l 1
 515 540 l 1
 699 143 l 1
 886 534 l 1
 958 534 l 1
 690 -17 l 1
 652 -17 l 1
EndSplineSet
EndChar
StartChar: x
Encoding: 120 120 89
Width: 630
VWidth: 1533
Flags: W
HStem: 0 21G<18 122.113 472.604 626> 514 20G<5 158.137 486.451 590>
Fore
296 212 m 1
 104 0 l 1
 18 0 l 1
 256 256 l 1
 5 534 l 1
 140 534 l 1
 325 330 l 1
 504 534 l 1
 590 534 l 1
 365 287 l 1
 626 0 l 1
 491 0 l 1
 296 212 l 1
EndSplineSet
EndChar
StartChar: y
Encoding: 121 121 90
Width: 650
VWidth: 1533
Flags: W
HStem: -202 79<78.6597 209.628> 514 20G<5 140.878 561.317 645>
Fore
67 -92 m 1
 92 -115 127 -123 143 -123 c 0
 225 -123 274 -41 274 14 c 0
 274 25 274 38 259 67 c 2
 5 534 l 1
 130 534 l 1
 353 124 l 1
 572 534 l 1
 645 534 l 1
 354 -14 l 2
 263 -181 188 -202 147 -202 c 256
 70 -202 36 -181 18 -169 c 1
 67 -92 l 1
EndSplineSet
EndChar
StartChar: z
Encoding: 122 122 91
Width: 630
VWidth: 1533
Flags: W
HStem: 0 60<202 552> 474 60<106 429>
Fore
584 60 m 1
 552 0 l 1
 15 0 l 1
 429 474 l 1
 78 474 l 1
 106 534 l 1
 615 534 l 1
 202 60 l 1
 584 60 l 1
EndSplineSet
EndChar
StartChar: braceleft
Encoding: 123 123 92
Width: 432
VWidth: 1533
Flags: W
HStem: -209 46<294.814 359> 695 44<297.451 359>
VStem: 153 121<-140.937 207.644 323.686 671.784>
Fore
51 265 m 1
 124 294 153 319 153 391 c 2
 153 586 l 2
 153 678 197 739 359 739 c 1
 359 695 l 1
 291 695 274 661 274 590 c 2
 274 403 l 2
 274 333 233 284 178 262 c 1
 233 248 274 199 274 129 c 2
 274 -58 l 2
 274 -129 291 -163 359 -163 c 1
 359 -209 l 1
 236 -209 153 -176 153 -55 c 2
 153 141 l 2
 153 228 107 250 51 265 c 1
EndSplineSet
EndChar
StartChar: bar
Encoding: 124 124 93
Width: 315
VWidth: 1533
Flags: W
HStem: -279 1118<103 212 103 212 103 103>
VStem: 103 109<-279 839>
Fore
103 -279 m 1
 103 839 l 1
 212 839 l 1
 212 -279 l 1
 103 -279 l 1
EndSplineSet
EndChar
StartChar: braceright
Encoding: 125 125 94
Width: 432
VWidth: 1533
Flags: W
HStem: -209 46<74 133.934> 695 44<74 135.807>
VStem: 158 121<-140.937 207.644 323.101 673.441>
Fore
279 391 m 2
 279 319 308 294 382 265 c 1
 320 248 279 224 279 141 c 2
 279 -55 l 2
 279 -176 198 -209 74 -209 c 1
 74 -163 l 1
 141 -163 158 -129 158 -58 c 2
 158 129 l 2
 158 199 199 248 255 262 c 1
 176 293 158 359 158 403 c 2
 158 590 l 2
 158 660 141 695 74 695 c 1
 74 739 l 1
 237 739 279 678 279 586 c 2
 279 391 l 2
EndSplineSet
EndChar
StartChar: asciitilde
Encoding: 126 126 95
Width: 706
VWidth: 1533
Flags: W
HStem: 221 81<378.187 526.267> 279 83<180.276 329.472>
Fore
472 302 m 0x80
 503 302 529 315 567 374 c 1
 641 313 l 1
 572 239 531 221 471 221 c 0x80
 383 221 318 279 230 279 c 0
 192 279 174 254 136 205 c 1
 66 270 l 1
 119 331 154 362 238 362 c 0x40
 318 362 393 302 472 302 c 0x80
EndSplineSet
EndChar
StartChar: uni0E33.alt1
Encoding: 65537 -1 96
Width: 640
VWidth: 1533
Flags: W
HStem: 0 21<442 564> 570 54<213.846 383.323> 690 49<-464.279 -350.41> 895 53<-464.279 -350.41>
VStem: -543 52<765.171 869.426> -325 52<765.389 868.996> 442 122<0 504.923>
Back
-273 819 m 256
 -273 801.667 -276.5 785 -283.5 769 c 128
 -290.5 753 -300.167 739.167 -312.5 727.5 c 128
 -324.833 715.833 -339.167 706.667 -355.5 700 c 128
 -371.833 693.333 -389.333 690 -408 690 c 256
 -426 690 -443.167 693.333 -459.5 700 c 128
 -475.833 706.667 -490.167 715.833 -502.5 727.5 c 128
 -514.833 739.167 -524.667 753 -532 769 c 128
 -539.333 785 -543 801.667 -543 819 c 256
 -543 836.333 -539.333 852.833 -532 868.5 c 128
 -524.667 884.167 -514.833 898 -502.5 910 c 128
 -490.167 922 -475.833 931.333 -459.5 938 c 128
 -443.167 944.667 -426 948 -408 948 c 260
 -389.333 948 -371.833 944.667 -355.5 938 c 128
 -339.167 931.333 -324.833 922 -312.5 910 c 128
 -300.167 898 -290.5 884.167 -283.5 868.5 c 128
 -276.5 852.833 -273 836.333 -273 819 c 256
434 0 m 1
 434 426 l 2
 434 467.333 422.667 501.667 400 529 c 128
 377.333 556.333 341 570 291 570 c 0
 264.333 570 241.667 565.667 223 557 c 128
 204.333 548.333 188.5 536.833 175.5 522.5 c 128
 162.5 508.167 152.5 491.833 145.5 473.5 c 128
 138.5 455.167 134.333 437 133 419 c 1
 8 419 l 1
 19.3333 482.333 49 532.333 97 569 c 128
 145 605.667 209.667 624 291 624 c 0
 371.667 624 436.167 606.333 484.5 571 c 128
 532.833 535.667 557 478.667 557 400 c 2
 557 0 l 1
 434 0 l 1
-325 817 m 256
 -325 838.333 -333.167 856.667 -349.5 872 c 128
 -365.833 887.333 -385.333 895 -408 895 c 256
 -430.667 895 -450.167 887.333 -466.5 872 c 128
 -482.833 856.667 -491 838.333 -491 817 c 256
 -491 795.667 -482.833 777.333 -466.5 762 c 128
 -450.167 746.667 -430.667 739 -408 739 c 256
 -385.333 739 -365.833 746.667 -349.5 762 c 128
 -333.167 777.333 -325 795.667 -325 817 c 256
EndSplineSet
Refer: 284 3661 N 1 0 0 1 -284 0 2
Refer: 261 3634 N 1 0 0 1 0 0 2
EndChar
StartChar: quotedbl
Encoding: 34 34 97
Width: 420
VWidth: 1533
Flags: W
HStem: 386 351<109 149 271 311>
VStem: 70 282<671 702 676 676 676 676> 70 119<664.141 724.555> 231 121<664.141 724.385>
Fore
291 737 m 256x90
 333 737 352 708 352 676 c 0xc0
 352 671 352 667 351 664 c 2
 311 386 l 1
 271 386 l 1
 232 664 l 2
 231 667 231 671 231 676 c 0
 231 707 249 737 291 737 c 256x90
129 737 m 256
 170 737 189 709 189 672 c 0
 189 669 189 666 189 664 c 2xa0
 149 386 l 1
 109 386 l 1
 71 664 l 2
 70 667 70 671 70 676 c 0
 70 702 82 737 129 737 c 256
EndSplineSet
EndChar
StartChar: exclam
Encoding: 33 33 98
Width: 358
VWidth: 1533
Flags: W
HStem: -15 138<126.878 235.122> 719 20G<150 209>
VStem: 107 148<5.27668 102.723 601.423 712.024>
Fore
179 739 m 256
 239 739 257 685 257 629 c 0
 257 620 256 610 255 601 c 2
 207 164 l 1
 153 164 l 1
 104 601 l 2
 103 610 102 620 102 629 c 0
 102 684 121 739 179 739 c 256
255 54 m 0
 255 13 220 -15 181 -15 c 256
 142 -15 107 13 107 54 c 256
 107 95 142 123 181 123 c 256
 220 123 255 96 255 54 c 0
EndSplineSet
EndChar
StartChar: uni0E4E.alt1
Encoding: 65538 -1 99
Width: 0
VWidth: 1533
Flags: W
HStem: 676 36<-317.501 -257.86 -261.344 -254.375 -254.375 -241> 978 39<-260.234 -184.285 -189.415 -179.154 -179.154 -161>
VStem: -400 62<720.632 801.894> -330 55<883.928 962.204>
Back
-159 960 m 1
 -202.333 967.333 -234.5 965 -255.5 953 c 128
 -276.5 941 -287 926.333 -287 909 c 0
 -287 899.667 -281 889 -269 877 c 128
 -257 865 -234.333 859 -201 859 c 1
 -218 823 l 1
 -255.333 819 -288.667 811.333 -318 800 c 128
 -347.333 788.667 -362 771.333 -362 748 c 0
 -362 730 -350.667 715.833 -328 705.5 c 128
 -305.333 695.167 -267.667 691 -215 693 c 1
 -228 655 l 1
 -258.667 651 -289.167 649.167 -319.5 649.5 c 128
 -349.833 649.833 -377 653.333 -401 660 c 128
 -425 666.667 -444.333 677.167 -459 691.5 c 128
 -473.667 705.833 -481 724.667 -481 748 c 0
 -481 763.333 -476.167 776.833 -466.5 788.5 c 128
 -456.833 800.167 -444.333 810.667 -429 820 c 128
 -413.667 829.333 -397.167 836.5 -379.5 841.5 c 128
 -361.833 846.5 -344.333 849.667 -327 851 c 1
 -350.333 854.333 -367.667 861.833 -379 873.5 c 128
 -390.333 885.167 -396 898.667 -396 914 c 0
 -396 938.667 -388.833 958.167 -374.5 972.5 c 128
 -360.167 986.833 -341.5 997 -318.5 1003 c 128
 -295.5 1009 -269.167 1011.67 -239.5 1011 c 128
 -209.833 1010.33 -179 1007.67 -147 1003 c 1
 -159 960 l 1
EndSplineSet
Refer: 285 3662 N 1 0 0 1 -37 0 2
EndChar
StartChar: exclamdown
Encoding: 161 161 100
Width: 315
VWidth: 1533
Flags: W
HStem: 461 140<117.75 222.888>
VStem: 96 153<-125.452 -15.4226 482.25 581.11>
Fore
244 532 m 0
 244 494 213 461 170 461 c 256
 128 461 97 494 97 532 c 256
 97 570 128 601 170 601 c 256
 209 601 244 574 244 532 c 0
172 -153 m 256
 111 -153 96 -91 96 -41 c 0
 96 -32 96 -24 97 -15 c 2
 146 423 l 1
 199 423 l 1
 247 -15 l 2
 248 -24 249 -34 249 -43 c 0
 249 -99 231 -153 172 -153 c 256
EndSplineSet
EndChar
StartChar: cent
Encoding: 162 162 101
Width: 607
VWidth: 1533
Flags: W
HStem: -18 21G<274 356> 104 46<231.759 274 356 390.385> 547 46<356 391.172> 547 158<276.252 355.533>
VStem: 37 109<252.006 443.625> 274 82<-18 103 593 705>
Fore
146 353 m 0xdc
 146 238 206 150 313 150 c 0
 382 150 432 188 461 264 c 1
 570 264 l 1
 532 140 424 110 356 103 c 1
 356 -18 l 1
 274 -18 l 1
 274 104 l 1
 142 120 37 219 37 350 c 0
 37 476 136 569 274 592 c 1
 274 705 l 1
 356 705 l 1xdc
 356 593 l 1xec
 426 586 534 555 569 432 c 1
 461 432 l 1
 432 509 382 547 313 547 c 0
 210 547 146 458 146 353 c 0xdc
EndSplineSet
EndChar
StartChar: sterling
Encoding: 163 163 102
Width: 781
VWidth: 1533
Flags: W
HStem: -18 107<552.177 646.949> -15 66<112.754 224.107> 169 52<131.695 256.084> 333 58<176 242 408 558> 639 54<374.763 506.558>
VStem: 0 107<59.0996 144.893> 235 101<472.111 580.533> 725 57<125.417 208.304>
Fore
350 106 m 1xbf
 315 63 233 -15 129 -15 c 0x7f
 85 -15 -0 12 0 84 c 0
 0 194 140 221 202 221 c 0
 235 221 260 218 284 215 c 1
 284 225 l 2
 284 236 284 270 267 333 c 1
 147 333 l 1
 176 391 l 1
 242 391 l 1
 238 415 235 449 235 475 c 0
 235 568 279 693 454 693 c 0
 503 693 548 683 590 664 c 0
 631 645 667 608 698 553 c 1
 575 507 l 1
 555 628 459 639 428 639 c 0
 381 639 336 587 336 543 c 0
 336 513 337 483 380 391 c 1
 587 391 l 1
 558 333 l 1
 408 333 l 1
 415 305 415 268 415 261 c 0
 415 233 408 205 399 184 c 1
 413 178 428 170 446 159 c 2
 498 128 l 2
 552 95 578 89 598 89 c 0
 623 89 680 95 725 210 c 1
 782 193 l 1
 759 107 692 -18 558 -18 c 0
 474 -18 414 53 350 106 c 1xbf
107 92 m 0
 107 59 142 51 172 51 c 0
 233 51 265 121 273 147 c 1
 255 156 227 169 201 169 c 0
 169 169 107 157 107 92 c 0
EndSplineSet
EndChar
StartChar: currency
Encoding: 164 164 103
Width: 716
VWidth: 1533
Flags: W
HStem: 69 72<270.249 446.88> 538 78<268.435 447.313>
VStem: 58 101<250.057 429.063> 558 92<251.562 429.184>
Fore
596 500 m 1
 627 460 650 407 650 343 c 0
 650 286 633 234 598 187 c 1
 664 127 l 1
 592 60 l 1
 527 121 l 1
 483 93 423 69 354 69 c 0
 293 69 237 85 186 118 c 1
 123 60 l 1
 52 127 l 1
 113 184 l 1
 76 232 58 285 58 343 c 0
 58 407 86 464 115 503 c 1
 52 561 l 1
 123 627 l 1
 187 569 l 1
 243 605 304 616 354 616 c 0
 417 616 475 600 526 567 c 1
 590 627 l 1
 662 561 l 1
 596 500 l 1
359 141 m 256
 472 141 558 235 558 340 c 256
 558 454 464 538 359 538 c 256
 252 538 159 455 159 340 c 256
 159 232 247 141 359 141 c 256
EndSplineSet
EndChar
StartChar: yen
Encoding: 165 165 104
Width: 788
VWidth: 1533
Flags: W
HStem: 170 55<155 320 446 616> 284 55<155 296 460 616>
VStem: 320 126<2 170 225 284>
Fore
460 339 m 1
 616 339 l 1
 616 284 l 1
 446 284 l 1
 446 225 l 1
 616 225 l 1
 616 170 l 1
 446 170 l 1
 446 2 l 1
 320 2 l 1
 320 170 l 1
 155 170 l 1
 155 225 l 1
 320 225 l 1
 320 284 l 1
 155 284 l 1
 155 339 l 1
 296 339 l 1
 5 698 l 1
 150 698 l 1
 402 385 l 1
 679 698 l 1
 783 698 l 1
 460 339 l 1
EndSplineSet
EndChar
StartChar: brokenbar
Encoding: 166 166 105
Width: 283
VWidth: 1533
Flags: W
HStem: 345 409<92 192 92 192 92 92>
VStem: 92 100<-196 215 345 754>
Fore
92 345 m 1
 92 754 l 1
 192 754 l 1
 192 345 l 1
 92 345 l 1
92 -196 m 1
 92 215 l 1
 192 215 l 1
 192 -196 l 1
 92 -196 l 1
EndSplineSet
EndChar
StartChar: section
Encoding: 167 167 106
Width: 657
VWidth: 1533
Flags: W
HStem: -175 60<235.753 403.046> 682 57<276.516 411.305>
VStem: 69 127<273.922 366.675> 124 115<522.797 644.573> 465 128<-48.5029 53.9063 237.329 311.647 560 607.639>
Fore
239 580 m 0xd8
 239 417 590 493 590 285 c 0
 590 265 586 218 518 164 c 1
 563 134 593 85 593 32 c 0
 593 -117 430 -175 308 -175 c 0
 179 -175 53 -97 37 48 c 1
 166 48 l 1
 169 -45 223 -115 308 -115 c 0
 388 -115 465 -78 465 11 c 0
 465 165 69 82 69 302 c 0xe8
 69 391 137 436 164 451 c 1
 139 478 124 516 124 563 c 0
 124 687 239 739 350 739 c 0
 492 739 558 655 587 560 c 1
 468 560 l 1
 449 622 421 682 350 682 c 0
 304 682 239 662 239 580 c 0xd8
454 196 m 1
 471 211 472 231 472 265 c 0
 472 353 286 373 227 403 c 1
 203 383 196 351 196 320 c 0
 196 233 378 214 454 196 c 1
EndSplineSet
EndChar
StartChar: dieresis
Encoding: 168 168 107
Width: 392
VWidth: 1533
Flags: W
HStem: 658 141<33.9565 137.883 256.843 360.406>
VStem: 15 141<676.843 780.769> 238 141<676.843 780.044>
Fore
308 799 m 256
 351 799 379 769 379 728 c 256
 379 688 350 658 308 658 c 256
 266 658 238 690 238 728 c 256
 238 770 268 799 308 799 c 256
86 799 m 256
 128 799 156 769 156 728 c 256
 156 688 128 658 86 658 c 256
 44 658 15 688 15 728 c 256
 15 771 45 799 86 799 c 256
EndSplineSet
EndChar
StartChar: copyright
Encoding: 169 169 108
Width: 881
VWidth: 1533
Flags: W
HStem: -38 78<333.25 549.651> 141 43<363.893 511.648> 534 39<367.132 509.249> 679 75<335.676 548.837>
VStem: 37 84<250.014 468.618> 202 97<266.444 447.497> 760 85<250.285 466.339>
Fore
442 754 m 256
 654 754 845 577 845 357 c 256
 845 142 662 -38 442 -38 c 256
 215 -38 37 145 37 357 c 256
 37 564 210 754 442 754 c 256
442 40 m 256
 609 40 760 186 760 359 c 256
 760 530 612 679 442 679 c 256
 269 679 121 530 121 359 c 256
 121 182 277 40 442 40 c 256
299 362 m 0
 299 288 327 184 438 184 c 0
 499 184 542 217 569 284 c 1
 662 284 l 1
 634 192 554 141 443 141 c 0
 308 141 202 235 202 357 c 256
 202 487 317 573 443 573 c 0
 521 573 627 546 662 432 c 1
 569 432 l 1
 538 507 490 534 438 534 c 0
 341 534 299 445 299 362 c 0
EndSplineSet
EndChar
StartChar: ordfeminine
Encoding: 170 170 109
Width: 427
VWidth: 1533
Flags: W
HStem: 334 370<150 227 173 204 248.5 260> 334 34<127.403 257.067> 534 35<144.757 267.431 267.431 295.5 295.5 307> 668 36<139.884 274.136>
VStem: 15 80<398.634 492.919> 34 78<613.554 661.075> 307 69<344.111 391 422.047 429 503 534 569 633.373>
Fore
376 429 m 2x86
 376 398 382 363 391 343 c 1
 325 343 l 1
 318 367 313 372 313 391 c 1
 279 350 227 334 173 334 c 0x86
 82 334 15 380 15 448 c 0
 15 496 58 569 251 569 c 0
 258 569 274 570 284 570 c 0
 292 570 299 569 307 569 c 1
 307 611 286 668 204 668 c 0x3a
 155 668 124 644 112 595 c 1
 34 595 l 1
 61 683 150 704 204 704 c 0
 349 704 376 624 376 570 c 2
 376 429 l 2x86
192 368 m 0x6a
 257 368 307 422 307 503 c 2
 307 534 l 1
 251 534 l 2
 161 534 95 499 95 446 c 0
 95 415 129 368 192 368 c 0x6a
EndSplineSet
EndChar
StartChar: guillemotleft
Encoding: 171 171 110
Width: 627
VWidth: 1533
Flags: W
HStem: 55 471<500 501 500 500>
VStem: 107 468<112 291 291 291>
Fore
501 55 m 1
 328 291 l 1
 500 526 l 1
 573 471 l 1
 425 291 l 1
 575 112 l 1
 501 55 l 1
281 55 m 1
 107 291 l 1
 278 526 l 1
 351 471 l 1
 204 291 l 1
 354 112 l 1
 281 55 l 1
EndSplineSet
EndChar
StartChar: logicalnot
Encoding: 172 172 111
Width: 631
VWidth: 1533
Flags: W
HStem: 129 303<471 586 15 471 586 586> 376 56<15 471>
VStem: 471 115<129 376>
Fore
471 129 m 1xa0
 471 376 l 1
 15 376 l 1x60
 15 432 l 1
 586 432 l 1
 586 129 l 1
 471 129 l 1xa0
EndSplineSet
EndChar
StartChar: registered
Encoding: 174 174 112
Width: 881
VWidth: 1533
Flags: W
HStem: -38 78<333.25 549.651> 328 35<333 498.995> 518 34<333 509.928> 679 75<335.676 548.837>
VStem: 37 84<250.014 468.618> 264 69<159 328 363 518> 534 75<242 243.5 392.962 494.409> 760 85<250.285 466.339>
Fore
442 754 m 256
 654 754 845 577 845 357 c 256
 845 142 662 -38 442 -38 c 256
 215 -38 37 145 37 357 c 256
 37 564 210 754 442 754 c 256
442 40 m 256
 609 40 760 186 760 359 c 256
 760 530 612 679 442 679 c 256
 269 679 121 530 121 359 c 256
 121 182 277 40 442 40 c 256
609 445 m 0
 609 386 540 357 512 350 c 1
 568 338 588 300 595 278 c 2
 609 232 l 2
 623 196 630 180 655 159 c 1
 570 159 l 1
 557 171 548 180 527 242 c 2
 518 270 l 2
 510 298 492 328 452 328 c 2
 333 328 l 1
 333 159 l 1
 264 159 l 1
 264 552 l 1
 403 552 l 2
 498 552 609 550 609 445 c 0
534 445 m 0
 534 503 482 518 412 518 c 2
 333 518 l 1
 333 363 l 1
 417 363 l 2
 490 363 534 379 534 445 c 0
EndSplineSet
EndChar
StartChar: macron
Encoding: 175 175 113
Width: 381
VWidth: 1533
Flags: W
HStem: 599 91<29 351 29 351 29 29>
Fore
29 599 m 1
 29 690 l 1
 351 690 l 1
 351 599 l 1
 29 599 l 1
EndSplineSet
EndChar
StartChar: degree
Encoding: 176 176 114
Width: 441
VWidth: 1533
Flags: W
HStem: 366 66<158.886 287.167> 650 71<158.886 286.615>
VStem: 44 69<477.65 603.967> 330 67<474.22 606.847>
Fore
221 721 m 256
 312 721 397 647 397 543 c 256
 397 446 320 366 221 366 c 256
 123 366 44 446 44 543 c 256
 44 639 123 721 221 721 c 256
222 432 m 256
 285 432 330 482 330 540 c 0
 330 604 281 650 222 650 c 256
 164 650 113 603 113 540 c 0
 113 479 164 432 222 432 c 256
EndSplineSet
EndChar
StartChar: plusminus
Encoding: 177 177 115
Width: 703
VWidth: 1533
Flags: W
HStem: 0 72<44 659> 314 72<44 302 402 659>
VStem: 302 100<132 314 386 567>
Fore
402 314 m 1
 402 132 l 1
 302 132 l 1
 302 314 l 1
 44 314 l 1
 44 386 l 1
 302 386 l 1
 302 567 l 1
 402 567 l 1
 402 386 l 1
 659 386 l 1
 659 314 l 1
 402 314 l 1
44 0 m 1
 44 72 l 1
 659 72 l 1
 659 0 l 1
 44 0 l 1
EndSplineSet
EndChar
StartChar: twosuperior
Encoding: 178 178 116
Width: 455
VWidth: 1533
Flags: W
HStem: 282 58<130 426> 670 34<156.626 280.699>
VStem: 316 99<528.591 633.541>
Fore
218 704 m 0
 302 704 415 670 415 570 c 0
 415 506 359 462 298 434 c 2
 233 406 l 2
 156 374 141 359 130 340 c 1
 426 340 l 1
 426 282 l 1
 26 282 l 1
 36 348 81 390 136 420 c 2
 195 451 l 2
 316 503 316 546 316 570 c 0
 316 602 296 670 218 670 c 0
 170 670 119 636 117 557 c 1
 15 557 l 1
 30 655 114 704 218 704 c 0
EndSplineSet
EndChar
StartChar: threesuperior
Encoding: 179 179 117
Width: 455
VWidth: 1533
Flags: W
HStem: 278 35<158.944 293.016> 486 39<171.351 284.25> 672 35<173.371 288.478>
VStem: 44 100<579.125 642.676> 313 99<552.448 648.155> 337 98<355.497 447.274>
Fore
343 511 m 1xf8
 434 479 435 425 435 409 c 0
 435 310 313 278 222 278 c 0
 183 278 44 283 18 425 c 1
 120 425 l 1
 121 355 165 313 222 313 c 0
 284 313 337 357 337 411 c 0xf4
 337 471 271 486 222 486 c 0
 197 486 172 483 153 480 c 1
 153 529 l 1
 171 526 188 525 203 525 c 0
 273 525 313 558 313 596 c 0
 313 618 299 672 225 672 c 0
 172 672 148 628 144 572 c 1
 44 572 l 1
 57 694 183 707 225 707 c 0
 306 707 412 685 412 596 c 0
 412 545 367 520 343 511 c 1xf8
EndSplineSet
EndChar
StartChar: acute
Encoding: 180 180 118
Width: 280
VWidth: 1533
Flags: W
HStem: 652 191
VStem: 48 265<652 799 652 652>
Fore
264 843 m 256
 292 843 313 827 313 799 c 0
 313 772 294 760 284 754 c 2
 101 652 l 1
 48 652 l 1
 207 814 l 2
 233 836 238 843 264 843 c 256
EndSplineSet
EndChar
StartChar: mu
Encoding: 181 181 119
Width: 666
VWidth: 1533
Flags: W
HStem: -18 61<253.464 406.91> 514 20G<61 175 495 607>
VStem: 61 114<-192 25 102.028 534> 495 112<-3 67 140.174 534>
Fore
327 43 m 0
 428 43 495 132 495 233 c 2
 495 534 l 1
 607 534 l 1
 607 -3 l 1
 495 -3 l 1
 495 67 l 1
 453 10 378 -18 314 -18 c 0
 273 -18 215 -10 175 25 c 1
 175 -192 l 1
 61 -192 l 1
 61 534 l 1
 175 534 l 1
 175 169 l 2
 175 119 212 43 327 43 c 0
EndSplineSet
EndChar
StartChar: paragraph
Encoding: 182 182 120
Width: 619
VWidth: 1533
Flags: W
HStem: 652 66<350 414 514 590>
VStem: 29 321<372.625 587.766> 250 100<-150 242> 414 100<-150 652>
Fore
29 489 m 0xd0
 29 626 137 718 276 718 c 2
 590 718 l 1
 590 652 l 1
 514 652 l 1
 514 -150 l 1
 414 -150 l 1
 414 652 l 1
 350 652 l 1
 350 -150 l 1
 250 -150 l 1
 250 242 l 1xb0
 93 253 29 362 29 489 c 0xd0
EndSplineSet
EndChar
StartChar: periodcentered
Encoding: 183 183 121
Width: 346
VWidth: 1533
Flags: W
HStem: 239 227<104.684 240.09>
VStem: 58 229<283.927 419.525>
Fore
172 239 m 0
 106 239 58 289 58 351 c 0
 58 419 109 466 172 466 c 0
 240 466 287 415 287 351 c 0
 287 289 239 239 172 239 c 0
EndSplineSet
EndChar
StartChar: cedilla
Encoding: 184 184 122
Width: 275
VWidth: 1533
Flags: W
HStem: -241 241<109 166 109 118 109 109> -241 39<66.5015 148.043>
VStem: 6 256<-221 -146 -221 -146 -221 -221> 158 104<-192.086 -121.221>
Fore
166 -72 m 0x90
 197 -72 262 -87 262 -146 c 0
 262 -203 198 -241 118 -241 c 0xa0
 65 -241 41 -237 6 -221 c 1
 21 -173 l 1
 45 -194 81 -202 101 -202 c 0x60
 135 -202 158 -183 158 -150 c 0
 158 -130 144 -117 106 -117 c 0
 89 -117 70 -120 49 -126 c 1
 109 0 l 1
 166 0 l 1
 129 -77 l 1
 144 -77 151 -72 166 -72 c 0x90
EndSplineSet
EndChar
StartChar: onesuperior
Encoding: 185 185 123
Width: 424
VWidth: 1533
Flags: W
HStem: 281 433<193 255> 622 27<64 164.705>
VStem: 64 191<622 649> 167 88<281 622>
Fore
167 281 m 1x90
 167 622 l 1x50
 64 622 l 1
 64 649 l 1x60
 143 649 164 651 193 714 c 1
 255 714 l 1
 255 281 l 1
 167 281 l 1x90
EndSplineSet
EndChar
StartChar: ordmasculine
Encoding: 186 186 124
Width: 463
VWidth: 1533
Flags: W
HStem: 337 37<165.528 301.056> 672 35<166.362 300.72>
VStem: 9 106<438.766 605.97> 351 103<438.616 607.371>
Fore
233 707 m 256
 361 707 454 633 454 523 c 256
 454 411 358 337 232 337 c 256
 122 337 9 399 9 523 c 256
 9 647 125 707 233 707 c 256
233 374 m 0
 280 374 351 396 351 523 c 0
 351 645 280 672 233 672 c 256
 186 672 115 644 115 523 c 0
 115 399 186 374 233 374 c 0
EndSplineSet
EndChar
StartChar: guillemotright
Encoding: 187 187 125
Width: 593
VWidth: 1533
Flags: W
HStem: 55 471<368 371 368 368>
VStem: 74 467<291 471 471 471>
Fore
371 55 m 1
 297 112 l 1
 445 291 l 1
 294 471 l 1
 368 526 l 1
 541 291 l 1
 371 55 l 1
150 55 m 1
 77 112 l 1
 224 291 l 1
 74 471 l 1
 147 526 l 1
 320 291 l 1
 150 55 l 1
EndSplineSet
EndChar
StartChar: onequarter
Encoding: 188 188 126
Width: 1079
VWidth: 1533
Flags: W
HStem: 0 21G<155 270.266 705 805> 100 44<580 705 805 882> 622 27<92 180.392> 685 20G<655.734 771>
VStem: 181 81<285 622> 705 100<0 100 144 281>
Fore
882 100 m 1
 805 100 l 1
 805 0 l 1
 705 0 l 1
 705 100 l 1
 491 100 l 1
 474 121 l 1
 759 423 l 1
 805 423 l 1
 805 144 l 1
 906 144 l 1
 882 100 l 1
256 -17 m 1
 155 -17 l 1
 670 705 l 1
 771 705 l 1
 256 -17 l 1
92 649 m 1
 173 649 178 650 207 714 c 1
 262 714 l 1
 262 285 l 1
 181 285 l 1
 181 622 l 1
 92 622 l 1
 92 649 l 1
705 281 m 1
 580 144 l 1
 705 144 l 1
 705 281 l 1
EndSplineSet
LCarets2: 2 0 0 
Ligature2: "'frac' Diagonal Fractions in Latin lookup 0 subtable" one fraction four
Ligature2: "'frac' Diagonal Fractions in Latin lookup 0 subtable" one slash four
EndChar
StartChar: onehalf
Encoding: 189 189 127
Width: 1079
VWidth: 1533
Flags: W
HStem: -2 57<667 963> 386 34<705.615 818.975> 615 35<55 156.656> 685 20G<655.734 771>
VStem: 158 100<290 615> 854 100<228.96 349.387>
Fore
756 420 m 0
 841 420 954 386 954 285 c 0
 954 173 790 137 708 94 c 0
 689 83 675 70 667 55 c 1
 963 55 l 1
 963 -2 l 1
 563 -2 l 1
 578 86 650 128 736 167 c 2
 760 178 l 2
 848 221 854 256 854 287 c 0
 854 318 834 386 756 386 c 0
 709 386 656 354 656 273 c 1
 553 273 l 1
 578 415 723 420 756 420 c 0
256 -17 m 1
 155 -17 l 1
 670 705 l 1
 771 705 l 1
 256 -17 l 1
55 650 m 1
 149 650 162 662 189 714 c 1
 258 714 l 1
 258 290 l 1
 158 290 l 1
 158 615 l 1
 55 615 l 1
 55 650 l 1
EndSplineSet
LCarets2: 2 0 0 
Ligature2: "'frac' Diagonal Fractions in Latin lookup 0 subtable" one fraction two
Ligature2: "'frac' Diagonal Fractions in Latin lookup 0 subtable" one slash two
EndChar
StartChar: threequarters
Encoding: 190 190 128
Width: 1079
VWidth: 1533
Flags: W
HStem: 0 21G<262 377.294 796 895> 100 44<670 796 895 972> 278 35<196.73 329.805> 486 39<208.351 321.25> 672 35<209.124 325.267>
VStem: 55 101<363.757 425> 81 100<579.125 645.431> 350 99<552.448 648.155> 374 98<355.497 447.274> 796 99<0 100 144 281>
Fore
972 100 m 1xf840
 895 100 l 1
 895 0 l 1
 796 0 l 1
 796 100 l 1
 581 100 l 1
 563 121 l 1
 849 423 l 1
 895 423 l 1
 895 144 l 1
 995 144 l 1
 972 100 l 1xf840
380 511 m 1
 471 479 472 425 472 409 c 0
 472 310 349 278 259 278 c 0
 152 278 70 326 55 425 c 1
 156 425 l 1
 159 345 211 313 259 313 c 0
 321 313 374 357 374 411 c 0xfcc0
 374 471 308 486 259 486 c 0
 234 486 209 483 190 480 c 1
 190 529 l 1
 208 526 225 525 240 525 c 0
 310 525 350 558 350 596 c 0
 350 618 336 672 262 672 c 0
 207 672 185 628 181 572 c 1
 81 572 l 1
 92 692 217 707 262 707 c 0
 342 707 449 685 449 596 c 0xfb40
 449 545 402 520 380 511 c 1
363 -17 m 1
 262 -17 l 1
 777 705 l 1
 879 705 l 1
 363 -17 l 1
796 281 m 1
 670 144 l 1
 796 144 l 1
 796 281 l 1
EndSplineSet
LCarets2: 2 0 0 
Ligature2: "'frac' Diagonal Fractions in Latin lookup 0 subtable" three fraction four
Ligature2: "'frac' Diagonal Fractions in Latin lookup 0 subtable" three slash four
EndChar
StartChar: questiondown
Encoding: 191 191 129
Width: 547
VWidth: 1533
Flags: W
HStem: -152 31<206.924 367.573> 497 102<259.236 344.246>
VStem: 48 101<-41.6803 113.165> 250 103<506.396 589.34> 293 23<349.132 423.739 423.739 457> 435 82<-29.1216 77>
Fore
302 599 m 256xf4
 333 599 353 576 353 547 c 256
 353 517 330 497 302 497 c 256
 272 497 250 520 250 547 c 256
 250 578 274 599 302 599 c 256xf4
287 -121 m 0
 399 -121 435 -31 435 77 c 1
 517 77 l 1
 517 -69 421 -152 284 -152 c 0
 164 -152 48 -88 48 49 c 0
 48 220 293 207 293 457 c 1
 313 457 l 1
 316 405 316 411 316 392 c 0xec
 316 192 149 168 149 46 c 0
 149 -52 185 -121 287 -121 c 0
EndSplineSet
EndChar
StartChar: Aring
Encoding: 197 197 134
Width: 876
VWidth: 1533
Flags: W
HStem: 0 21G<0 95.3545 719.876 877> 347 76<325 497> 912 68<376.618 504.107>
VStem: 264 69<737.225 868.58> 549 69<737.304 869.34>
Fore
618 802 m 0
 618 708 551 660 523 645 c 1
 877 0 l 1
 731 0 l 1
 538 347 l 1
 281 347 l 1
 84 0 l 1
 0 0 l 1
 373 641 l 1
 312 666 264 723 264 802 c 0
 264 903 346 980 440 980 c 256
 543 980 618 896 618 802 c 0
440 695 m 0
 503 695 549 743 549 802 c 0
 549 866 500 912 440 912 c 0
 382 912 333 865 333 802 c 0
 333 740 383 695 440 695 c 0
412 581 m 1
 325 423 l 1
 497 423 l 1
 412 581 l 1
EndSplineSet
EndChar
StartChar: AE
Encoding: 198 198 135
Width: 1159
VWidth: 1533
Flags: W
HStem: 0 61<702 1144> 353 61<392 573 702 1035> 652 64<702 1144>
VStem: 573 129<61 353 414 638>
Fore
573 0 m 1
 573 353 l 1
 348 353 l 1
 92 0 l 1
 0 0 l 1
 518 716 l 1
 1144 716 l 1
 1144 652 l 1
 702 652 l 1
 702 414 l 1
 1035 414 l 1
 1035 353 l 1
 702 353 l 1
 702 61 l 1
 1144 61 l 1
 1144 0 l 1
 573 0 l 1
573 638 m 1
 553 638 l 1
 392 414 l 1
 573 414 l 1
 573 638 l 1
EndSplineSet
EndChar
StartChar: Eth
Encoding: 208 208 145
Width: 881
VWidth: 1533
Flags: W
HStem: 0 61<201 526.673> 353 61<-6 74 201 415> 653 61<201 528.328>
VStem: 74 127<61 353 414 653> 711 146<241.391 496.074>
Fore
350 714 m 2
 787 714 857 513 857 379 c 0
 857 76 617 -0 356 0 c 2
 74 0 l 1
 74 353 l 1
 -6 353 l 1
 -6 414 l 1
 74 414 l 1
 74 714 l 1
 350 714 l 2
371 61 m 2
 634 61 711 186 711 379 c 0
 711 543 618 653 371 653 c 2
 201 653 l 1
 201 414 l 1
 415 414 l 1
 415 353 l 1
 201 353 l 1
 201 61 l 1
 371 61 l 2
EndSplineSet
EndChar
StartChar: multiply
Encoding: 215 215 152
Width: 703
VWidth: 1533
Flags: W
HStem: -6 21G<85.7879 128.217 574.696 617.515>
Fore
423 291 m 1
 667 60 l 1
 596 -6 l 1
 351 224 l 1
 107 -6 l 1
 37 60 l 1
 281 291 l 1
 37 521 l 1
 107 587 l 1
 351 357 l 1
 596 587 l 1
 667 521 l 1
 423 291 l 1
EndSplineSet
EndChar
StartChar: Oslash
Encoding: 216 216 153
Width: 968
VWidth: 1533
Flags: W
HStem: -26 55<359.475 576.931> 684 55<369.224 583.996>
VStem: 34 145<270.99 467.351> 767 145<244.677 479.039>
Fore
474 739 m 0
 578 739 665 710 731 667 c 1
 852 791 l 1
 954 791 l 1
 791 622 l 1
 866 556 912 463 912 357 c 0
 912 154 726 -26 472 -26 c 0
 374 -26 291 2 227 38 c 1
 117 -75 l 1
 15 -75 l 1
 166 83 l 1
 39 190 34 315 34 356 c 0
 34 557 221 739 474 739 c 0
474 684 m 0
 297 684 179 537 179 356 c 0
 179 274 203 206 236 155 c 1
 673 607 l 1
 622 654 554 684 474 684 c 0
472 29 m 0
 649 29 767 173 767 357 c 0
 767 433 748 497 718 547 c 1
 284 98 l 1
 329 58 391 29 472 29 c 0
EndSplineSet
EndChar
StartChar: Thorn
Encoding: 222 222 159
Width: 835
VWidth: 1533
Flags: W
HStem: 0 21G<109 241> 181 63<241 285.5 285.5 508.221> 544 62<241 293.738 293.738 508.984>
VStem: 109 132<0 181 244 544 606 745> 627 160<329.158 461.547>
Fore
347 607 m 0
 568 607 787 565 787 399 c 0
 787 194 493 180 330 180 c 0
 300 180 271 180 241 181 c 1
 241 0 l 1
 109 0 l 1
 109 745 l 1
 239 745 l 1
 239 606 l 1
 282 606 336 607 347 607 c 0
627 400 m 0
 627 529 429 544 330 544 c 2
 241 544 l 1
 241 244 l 1
 325 244 l 2
 451 244 627 256 627 400 c 0
EndSplineSet
EndChar
StartChar: uni00DF
Encoding: 223 223 160
Width: 734
VWidth: 1533
Flags: W
HStem: -18 67<354.009 484.183> 393 72<343.933 448.198> 751 60<271.474 426.105>
VStem: 74 125<-2 647.051> 483 146<525.706 691.252> 544 154<124.582 299.734>
Fore
497 440 m 1xf8
 591 418 698 325 698 218 c 0
 698 85 575 -18 432 -18 c 0
 331 -18 290 5 264 20 c 1
 308 112 l 1
 330 84 372 49 422 49 c 0
 510 49 544 149 544 219 c 0xf4
 544 303 512 393 382 393 c 0
 363 393 342 392 319 388 c 1
 319 474 l 1
 349 467 360 465 370 465 c 0
 438 465 483 485 483 598 c 256
 483 669 456 751 350 751 c 0
 259 751 199 693 199 529 c 2
 199 -2 l 1
 74 -2 l 1
 74 524 l 2
 74 694 169 811 350 811 c 0
 481 811 629 755 629 604 c 0
 629 526 568 456 497 440 c 1xf8
EndSplineSet
EndChar
StartChar: ae
Encoding: 230 230 167
Width: 1157
VWidth: 1533
Flags: W
HStem: -17 60<224.228 379.59 732.854 894.472> 317 59<268.158 484> 356 61<641 963> 538 63<260.538 420.263 710.635 879.841>
VStem: 31 135<98.1669 240.19> 484 129<172.771 316.624>
Fore
825 41 m 0xbc
 899 41 982 111 992 232 c 1
 1119 232 l 1
 1089 102 996 -18 811 -18 c 0
 715 -18 599 24 534 127 c 1
 471 27 403 -17 264 -17 c 0
 166 -17 31 21 31 172 c 256
 31 373 319 376 484 376 c 1xdc
 484 460 454 538 331 538 c 0
 277 538 215 499 196 426 c 1
 67 426 l 1
 90 491 124 537 171 562 c 0
 218 588 271 601 331 601 c 0
 458 601 521 558 567 478 c 1
 589 507 659 601 797 601 c 0
 971 601 1077 519 1116 356 c 1
 619 356 l 1
 615 335 613 299 613 285 c 0
 613 171 676 41 825 41 c 0xbc
963 417 m 1xbc
 943 463 897 540 797 540 c 0
 700 540 650 475 641 417 c 1
 963 417 l 1xbc
294 43 m 0
 425 43 484 149 484 267 c 2
 484 317 l 1
 397 317 l 2xdc
 294 317 166 286 166 170 c 0
 166 103 212 43 294 43 c 0
EndSplineSet
EndChar
StartChar: eth
Encoding: 240 240 177
Width: 634
VWidth: 1533
Flags: W
HStem: -12 52<230.64 410.019> 455 52<228.578 386.498> 716 20G<400.483 455.02>
VStem: 28 113<142.204 350.281> 495 114<167.616 356.206>
Fore
609 296 m 0
 609 91 475 -12 317 -12 c 256
 171 -12 28 78 28 247 c 256
 28 403 153 507 319 507 c 0
 355 507 380 502 411 488 c 1
 394 516 374 547 297 610 c 1
 113 523 l 1
 89 575 l 1
 242 647 l 1
 189 682 127 705 97 716 c 1
 117 765 l 1
 238 722 278 701 314 678 c 1
 446 736 l 1
 469 685 l 1
 377 644 l 1
 455 584 609 435 609 296 c 0
495 247 m 256
 495 339 460 455 319 455 c 256
 195 455 141 367 141 248 c 0
 141 159 177 40 320 40 c 256
 460 40 495 154 495 247 c 256
EndSplineSet
EndChar
StartChar: divide
Encoding: 247 247 184
Width: 702
VWidth: 1533
Flags: W
HStem: -21 170<293.131 405.984> 262 80<44 658> 432 171<294.413 406.38>
VStem: 265 170<6.56137 120.231 461.166 572.922>
Fore
350 603 m 0
 399 603 435 563 435 518 c 256
 435 468 395 432 350 432 c 256
 299 432 265 473 265 518 c 256
 265 567 307 603 350 603 c 0
44 262 m 1
 44 342 l 1
 658 342 l 1
 658 262 l 1
 44 262 l 1
350 149 m 256
 394 149 435 113 435 63 c 256
 435 13 394 -21 350 -21 c 256
 299 -21 265 20 265 63 c 0
 265 109 300 149 350 149 c 256
EndSplineSet
EndChar
StartChar: oslash
Encoding: 248 248 185
Width: 732
VWidth: 1533
Flags: W
HStem: -15 55<281.996 473.844> 494 53<281.196 469.665>
VStem: 54 122<187.62 373.721> 575 121<158.175 346.227>
Fore
54 265 m 0
 54 434 188 547 376 547 c 0
 451 547 517 530 572 495 c 1
 659 578 l 1
 750 578 l 1
 621 455 l 1
 665 411 696 349 696 265 c 0
 696 97 560 -15 376 -15 c 0
 299 -15 234 3 179 38 c 1
 89 -48 l 1
 0 -48 l 1
 130 75 l 1
 89 119 54 181 54 265 c 0
376 494 m 0
 288 494 176 449 176 267 c 0
 176 218 185 177 202 144 c 1
 515 440 l 1
 479 476 433 494 376 494 c 0
377 40 m 0
 464 40 575 85 575 265 c 0
 575 315 567 356 550 388 c 1
 238 94 l 1
 273 58 320 40 377 40 c 0
EndSplineSet
EndChar
StartChar: thorn
Encoding: 254 254 191
Width: 786
VWidth: 1533
Flags: W
HStem: -32 61<322.991 483.574> 560 62<319.903 484.044>
VStem: 69 112<507 961> 69 120<-225 77 181.688 409.854> 619 137<183.487 406.788>
Fore
422 622 m 0xe8
 611 622 756 475 756 294 c 0
 756 98 611 -32 422 -32 c 0
 282 -32 210 51 189 77 c 1
 189 -225 l 1
 69 -225 l 1xd8
 69 961 l 1
 181 961 l 1
 181 507 l 1
 231 583 323 622 422 622 c 0xe8
402 29 m 256
 518 29 619 142 619 297 c 0
 619 460 509 560 402 560 c 0
 298 560 189 453 189 297 c 256
 189 151 290 29 402 29 c 256
EndSplineSet
EndChar
StartChar: Lslash
Encoding: 321 321 193
Width: 708
VWidth: 1533
Flags: W
HStem: 0 61<199 645> 694 20G<74 199>
VStem: 74 125<61 329 375 376 422 714>
Back
74 0 m 1
 74 714 l 1
 199 714 l 1
 199 61 l 1
 645 61 l 1
 645 0 l 1
 74 0 l 1
18 308 m 1
 18 354 l 1
 417 503 l 1
 417 457 l 1
 18 308 l 1
EndSplineSet
Fore
18 308 m 1
 18 354 l 1
 74 375 l 1
 74 714 l 1
 199 714 l 1
 199 422 l 1
 417 503 l 1
 417 457 l 1
 199 376 l 1
 199 61 l 1
 645 61 l 1
 645 0 l 1
 74 0 l 1
 74 329 l 1
 18 308 l 1
EndSplineSet
EndChar
StartChar: lslash
Encoding: 322 322 194
Width: 325
VWidth: 1533
Flags: W
HStem: 0 21G<110 236> 694 20G<110 236>
VStem: 44 249<377 517 377 378> 110 126<0 402 448 449 495 714>
Back
44 377 m 1xe0
 44 423 l 1
 293 517 l 1
 293 471 l 1
 44 377 l 1xe0
110 0 m 1xd0
 110 714 l 1
 236 714 l 1
 236 0 l 1
 110 0 l 1xd0
EndSplineSet
Fore
44 377 m 1xe0
 44 423 l 1xe0
 110 448 l 1
 110 714 l 1
 236 714 l 1
 236 495 l 1xd0
 293 517 l 1
 293 471 l 1xe0
 236 449 l 1
 236 0 l 1
 110 0 l 1
 110 402 l 1xd0
 44 377 l 1xe0
EndSplineSet
EndChar
StartChar: OE
Encoding: 338 338 195
Width: 1344
VWidth: 1533
Flags: W
HStem: -26 55<337.375 553.625> 0 61<845 1331> 351 63<843 1222> 653 63<843 1331> 684 55<339.987 557.652>
VStem: 29 146<233.734 479.154> 718 125<61 83 204.922 351 414 515.854 635 653>
Fore
29 356 m 256xa6
 29 571 209 739 448 739 c 0xae
 555 739 645 704 718 635 c 1
 718 716 l 1
 1331 716 l 1
 1331 653 l 1
 843 653 l 1
 843 414 l 1
 1222 414 l 1
 1222 351 l 1
 843 351 l 1
 845 61 l 1
 1331 61 l 1
 1331 0 l 1
 718 0 l 1x76
 718 83 l 1
 645 17 555 -26 446 -26 c 0
 201 -26 29 146 29 356 c 256xa6
446 29 m 0
 609 29 718 155 718 320 c 2
 718 394 l 2
 718 560 610 684 448 684 c 0
 260 684 175 524 175 356 c 0
 175 187 259 29 446 29 c 0
EndSplineSet
EndChar
StartChar: oe
Encoding: 339 339 196
Width: 1090
VWidth: 1533
Flags: W
HStem: -15 59<236.814 406.702 709.258 857.012> 310 60<636 923> 488 59<246.322 398.606 702.339 850.398>
VStem: 28 119<155.539 377.513> 495 117<162.341 308.748> 943 107<132.533 215>
Fore
552 431 m 1
 601 506 683 550 779 550 c 0
 937 550 1041 458 1056 310 c 1
 613 310 l 1
 612 300 612 290 612 279 c 0
 612 141 683 44 791 44 c 0
 852 44 927 101 943 215 c 1
 1050 215 l 1
 1042 68 925 -17 791 -17 c 0
 690 -17 600 34 553 115 c 1
 488 -4 362 -15 320 -15 c 0
 153 -15 28 97 28 265 c 256
 28 425 140 547 320 547 c 0
 459 547 520 481 552 431 c 1
923 370 m 1
 901 460 833 492 773 492 c 0
 705 492 648 437 636 370 c 1
 923 370 l 1
495 265 m 256
 495 384 447 488 320 488 c 256
 195 488 147 382 147 267 c 256
 147 171 182 44 322 44 c 256
 448 44 495 149 495 265 c 256
EndSplineSet
EndChar
StartChar: florin
Encoding: 402 402 202
Width: 763
VWidth: 1533
Flags: W
HStem: -222 59<110.068 239.713> 446 52<262 350 478 572> 724 66<533.844 650.199>
Fore
354 498 m 1
 375 636 451 790 630 790 c 0
 681 790 736 730 756 704 c 1
 645 650 l 1
 637 676 617 724 581 724 c 0
 494 724 486 560 478 498 c 1
 589 498 l 1
 572 446 l 1
 472 446 l 1
 419 35 l 2
 400 -98 295 -222 123 -222 c 0
 67 -222 32 -170 15 -129 c 1
 129 -104 l 1
 139 -132 166 -163 199 -163 c 0
 254 -163 278 -83 290 -6 c 2
 350 446 l 1
 245 446 l 1
 262 498 l 1
 354 498 l 1
EndSplineSet
EndChar
StartChar: circumflex
Encoding: 710 710 203
Width: 674
VWidth: 1533
Flags: W
HStem: 679 186<304 460 304 304>
VStem: 159 362<679 679 679 679>
Fore
460 679 m 1
 340 780 l 1
 221 679 l 1
 159 679 l 1
 304 865 l 1
 379 865 l 1
 521 679 l 1
 460 679 l 1
EndSplineSet
EndChar
StartChar: caron
Encoding: 711 711 204
Width: 343
VWidth: 1533
Flags: W
HStem: 642 186<-28 210 -28 -28>
VStem: -28 393<828 828 828 828>
Fore
210 642 m 1
 129 642 l 1
 -28 828 l 1
 40 828 l 1
 169 727 l 1
 301 828 l 1
 365 828 l 1
 210 642 l 1
EndSplineSet
EndChar
StartChar: breve
Encoding: 728 728 205
Width: 338
VWidth: 1533
Flags: W
HStem: 641 64<96.4994 237.077>
VStem: -3 342<755 817 817 817 817 817>
Fore
167 705 m 256
 236 705 268 743 285 817 c 1
 339 817 l 1
 334 733 288 641 167 641 c 256
 31 641 -1 755 -3 817 c 1
 49 817 l 1
 65 745 96 705 167 705 c 256
EndSplineSet
EndChar
StartChar: dotaccent
Encoding: 729 729 206
Width: 280
VWidth: 1533
Flags: W
HStem: 627 140<90 191.157>
VStem: 70 140<647.067 746.277>
Fore
140 767 m 256
 180 767 210 738 210 696 c 256
 210 653 175 627 140 627 c 0
 100 627 70 661 70 695 c 0
 70 729 96 767 140 767 c 256
EndSplineSet
EndChar
StartChar: ring
Encoding: 730 730 207
Width: 280
VWidth: 1533
Flags: W
HStem: 630 60<92.9988 187.319> 819 60<93.6654 187.001>
VStem: 17 60<706.184 802.364> 204 61<706.359 802.148>
Fore
141 879 m 256
 217 879 265 821 265 754 c 0
 265 681 209 630 141 630 c 256
 73 630 17 681 17 754 c 0
 17 822 67 879 141 879 c 256
141 690 m 256
 175 690 204 717 204 754 c 256
 204 791 175 819 141 819 c 256
 104 819 77 788 77 754 c 0
 77 716 107 690 141 690 c 256
EndSplineSet
EndChar
StartChar: ogonek
Encoding: 731 731 208
Width: 280
VWidth: 1533
Flags: W
HStem: -255 59<69.391 167.632>
VStem: -12 102<-188.552 -86.5588>
Fore
141 -196 m 0
 168 -196 224 -175 259 -140 c 1
 282 -181 l 1
 192 -250 132 -255 100 -255 c 0
 41 -255 -12 -216 -12 -147 c 0
 -12 -49 131 4 248 31 c 1
 268 3 l 1
 228 -13 90 -59 90 -138 c 0
 90 -177 107 -196 141 -196 c 0
EndSplineSet
EndChar
StartChar: tilde
Encoding: 732 732 209
Width: 360
VWidth: 1533
Flags: W
HStem: 681 118<45 48 174 180 314 338 -3 362 314 314> 681 61<205.46 295.306> 731 62<73.6756 153.872>
Fore
262 742 m 0x40
 283 742 297 756 314 799 c 1
 362 799 l 1
 358 775 338 681 241 681 c 0x80
 174 681 141 731 98 731 c 0x20
 88 731 67 729 48 681 c 1
 -3 681 l 1x80
 7 735 45 793 118 793 c 0x20
 180 793 221 742 262 742 c 0x40
EndSplineSet
EndChar
StartChar: hungarumlaut
Encoding: 733 733 210
Width: 280
VWidth: 1533
Flags: W
HStem: 650 195<118 152>
VStem: -32 354<650 811 650 650>
Fore
281 845 m 0
 301 845 322 831 322 811 c 0
 322 799 316 787 305 776 c 2
 153 650 l 1
 118 650 l 1
 232 814 l 2
 248 838 261 845 281 845 c 0
130 845 m 0
 152 845 170 831 170 811 c 1
 172 811 l 1
 172 799 166 787 155 776 c 2
 3 650 l 1
 -32 650 l 1
 81 814 l 2
 97 838 110 845 130 845 c 0
EndSplineSet
EndChar
StartChar: uni0E01
Encoding: 3585 3585 212
Width: 732
VWidth: 1533
Flags: W
HStem: 0 21G<77 199 534 656> 570 54<254.746 459.902>
VStem: 77 122<0 328.199> 534 122<0 501.483>
Fore
357 624 m 0
 474 624 656 582 656 414 c 2
 656 0 l 1
 534 0 l 1
 534 429 l 2
 534 523 457 570 357 570 c 256
 258 570 172 519 172 422 c 1
 268 422 l 1
 268 382 l 1
 222 365 199 331 199 282 c 2
 199 0 l 1
 77 0 l 1
 77 268 l 2
 77 316 119 370 187 380 c 1
 41 380 l 1
 55 544 194 624 357 624 c 0
EndSplineSet
EndChar
StartChar: uni0E02
Encoding: 3586 3586 213
Width: 731
VWidth: 1533
Flags: W
HStem: 0 61<265 530> 281 55<108.908 219.277> 501 46<138.516 146.523 142.52 218.641> 572 52<143.133 295.27>
VStem: 8 73<364.168 472.482> 143 122<61 202> 247 58<363.586 473.192> 366 83<338.337 501.064> 530 123<61 613>
Fore
449 426 m 0xfb80
 449 292 335 226 265 202 c 1
 265 61 l 1
 530 61 l 1
 530 613 l 1
 653 613 l 1
 653 0 l 1
 143 0 l 1
 143 209 l 1xfd80
 230 227 366 292 366 417 c 0
 366 497 316 572 213 572 c 0
 176 572 146 557 138 547 c 1
 144 547 150 548 155 548 c 0
 241 548 305 493 305 411 c 0
 305 339 243 281 164 281 c 0
 99 281 8 323 8 437 c 0
 8 530 89 624 227 624 c 256
 350 624 449 541 449 426 c 0xfb80
164 336 m 256
 212 336 247 375 247 419 c 256xfb80
 247 462 212 501 164 501 c 256
 116 501 81 462 81 419 c 256
 81 371 120 336 164 336 c 256
EndSplineSet
EndChar
StartChar: uni0E03
Encoding: 3587 3587 214
Width: 760
VWidth: 1533
Flags: W
HStem: 0 61<296 561> 267 55<102.173 211.488> 488 42<117.915 124.581 121.248 210.558> 572 52<131.289 229.115 283.546 371.082>
VStem: 0 74<350.804 458.363> 173 123<61 218> 239 58<349.586 459.268> 402 99<368.56 536.369> 561 123<61 613>
Fore
501 448 m 0xfb80
 501 313 372 247 296 218 c 1
 296 61 l 1
 561 61 l 1
 561 613 l 1
 684 613 l 1
 684 0 l 1
 173 0 l 1
 173 225 l 1xfd80
 240 251 402 312 402 446 c 0
 402 525 368 570 328 570 c 0
 300 570 278 546 267 527 c 1
 238 568 203 572 184 572 c 0
 147 572 125 549 117 530 c 1
 118 530 124 535 147 535 c 0
 225 535 297 485 297 397 c 0
 297 325 236 267 156 267 c 0
 79 267 0 321 0 432 c 0
 0 543 79 624 175 624 c 0
 230 624 257 597 264 583 c 1
 270 591 298 624 348 624 c 0
 428 624 501 570 501 448 c 0xfb80
156 322 m 256
 204 322 239 361 239 405 c 256xfb80
 239 448 204 488 156 488 c 256
 109 488 74 447 74 405 c 256
 74 357 113 322 156 322 c 256
EndSplineSet
EndChar
StartChar: uni0E04
Encoding: 3588 3588 215
Width: 774
VWidth: 1533
Flags: W
HStem: 0 21G<78 202.473 575 698> 198 57<339.273 436.521> 420 54<337.229 437.345> 570 54<279.062 493.113>
VStem: 61 125<285.79 479.615> 80 118<72 227> 465 56<282.719 391.803> 575 123<0 497.543>
Fore
386 624 m 256xfb
 536 624 698 569 698 405 c 2
 698 0 l 1
 575 0 l 1
 575 432 l 2
 575 515 498 570 386 570 c 0
 273 570 186 514 186 411 c 0xfb
 186 356 198 255 198 227 c 1
 236 351 l 2
 274 474 358 474 382 474 c 256
 471 474 521 409 521 336 c 256
 521 261 467 198 382 198 c 0
 371 198 324 198 274 241 c 1
 196 0 l 1
 78 0 l 1
 79 24 80 48 80 72 c 0xf7
 80 199 61 246 61 389 c 0
 61 559 241 624 386 624 c 256xfb
382 255 m 0
 425 255 465 290 465 337 c 256
 465 385 425 420 382 420 c 0
 338 420 299 385 299 337 c 0
 299 294 335 255 382 255 c 0
EndSplineSet
EndChar
StartChar: uni0E05
Encoding: 3589 3589 216
Width: 774
VWidth: 1533
Flags: W
HStem: 0 21G<78 203.054 575 698> 198 57<332.466 442.778> 420 54<343.02 443.543> 570 56<231.422 348 434.458 547.341>
VStem: 61 125<278.042 503.421> 471 56<282.785 391.803> 575 123<0 540.857>
Fore
514 626 m 0
 589 626 698 591 698 449 c 2
 698 0 l 1
 575 0 l 1
 575 461 l 2
 575 554 525 570 492 570 c 0
 466 570 435 562 411 518 c 1
 366 518 l 1
 355 558 318 570 291 570 c 0
 207 570 186 488 186 423 c 0
 186 357 193 302 198 218 c 1
 242 351 l 2
 285 472 356 474 388 474 c 256
 477 474 527 409 527 336 c 256
 527 261 473 198 388 198 c 0
 343 198 306 218 281 241 c 1
 196 0 l 1
 78 0 l 1
 80 28 81 55 81 80 c 0
 81 195 61 315 61 397 c 0
 61 516 134 626 270 626 c 0
 328 626 374 603 392 567 c 1
 416 599 457 626 514 626 c 0
388 255 m 256
 436 255 471 294 471 337 c 256
 471 385 432 420 388 420 c 256
 340 420 305 381 305 337 c 256
 305 294 340 255 388 255 c 256
EndSplineSet
EndChar
StartChar: uni0E06
Encoding: 3590 3590 217
Width: 844
VWidth: 1533
Flags: W
HStem: -8 66<173.987 271.464> 195 63<175.908 263.988 261.7 266.277 266.277 285> 281 52<103.273 208.512> 491 39<119.432 125.766 122.599 208.629> 572 52<134.733 236.94 293.623 374.462>
VStem: 8 69<358.149 464.736> 87 69<76.3092 175.827> 235 55<359.968 464.534> 285 123<71.5405 124 124 152 256 319.243> 394 115<414.428 550.218> 645 123<81 613>
Fore
509 483 m 0xff60
 509 385 408 370 408 285 c 2
 408 222 l 1
 645 81 l 1
 645 613 l 1
 768 613 l 1
 768 0 l 1
 661 0 l 1
 408 152 l 1
 408 144 l 2
 408 45 343 -8 239 -8 c 0
 142 -8 87 58 87 127 c 0
 87 209 157 258 247 258 c 0
 270 258 274 256 285 256 c 1xfea0
 285 345 394 370 394 481 c 0
 394 528 373 569 336 570 c 0
 299 570 278 533 274 527 c 1
 245 568 211 572 192 572 c 0
 148 572 124 543 118 530 c 1
 121 530 124 535 149 535 c 0
 237 535 290 470 290 405 c 256
 290 339 230 281 156 281 c 256
 72 281 8 338 8 440 c 0
 8 547 88 624 182 624 c 0
 239 624 265 597 271 583 c 1
 277 590 309 624 365 624 c 0
 428 624 509 596 509 483 c 0xff60
156 333 m 0
 199 333 235 370 235 411 c 0xff20
 235 456 196 491 156 491 c 0
 111 491 77 452 77 411 c 0
 77 371 111 333 156 333 c 0
224 58 m 0
 245 58 285 69 285 124 c 2
 285 192 l 1xfea0
 267 195 244 195 239 195 c 0
 206 195 156 181 156 126 c 0
 156 80 193 58 224 58 c 0
EndSplineSet
EndChar
StartChar: uni0E07
Encoding: 3591 3591 218
Width: 671
VWidth: 1533
Flags: W
HStem: 0 61<345 472> 339 55<357.732 457.489> 569 55<358.71 469.107>
VStem: 271 56<425.589 538.249> 472 123<61 351> 501 94<423.713 537.768>
Fore
426 624 m 0xf8
 532 624 595 560 595 457 c 2
 595 0 l 1xf4
 293 0 l 1
 253 109 134 301 0 365 c 1
 113 438 l 1
 233 370 322 160 345 61 c 1
 472 61 l 1
 472 351 l 1
 453 343 433 339 414 339 c 256
 336 339 271 404 271 481 c 0
 271 547 317 624 426 624 c 0xf8
414 394 m 256
 464 394 501 436 501 481 c 256
 501 532 460 569 414 569 c 256
 368 569 327 531 327 481 c 256
 327 431 369 394 414 394 c 256
EndSplineSet
EndChar
StartChar: uni0E08
Encoding: 3592 3592 219
Width: 699
VWidth: 1533
Flags: W
HStem: 0 21G<478.04 607> 144 51<230.745 346.397> 370 53<232.256 345.164> 570 54<237.076 438.625>
VStem: 144 57<225.386 338.803> 497 110<153 249.77> 515 123<155.528 486.366>
Fore
336 624 m 0xfa
 513 624 638 545 638 385 c 0xfa
 638 260 607 135 607 0 c 1
 486 0 l 1
 406 201 l 1
 376 163 335 144 288 144 c 0
 197 144 144 213 144 284 c 256
 144 353 196 423 288 423 c 0
 342 423 404 401 435 316 c 2
 497 153 l 1xfc
 499 235 515 303 515 426 c 0
 515 485 478 570 336 570 c 0
 229 570 133 506 133 385 c 1
 0 385 l 1
 28 607 261 624 336 624 c 0xfa
288 195 m 256
 340 195 376 236 376 282 c 256
 376 328 340 370 288 370 c 256
 236 370 201 327 201 282 c 256
 201 237 236 195 288 195 c 256
EndSplineSet
EndChar
StartChar: uni0E09
Encoding: 3593 3593 220
Width: 797
VWidth: 1533
Flags: W
HStem: -12 56<549.81 661.268> 106 55<84.9208 186.489> 336 55<86.6822 198.107> 570 54<265.112 512.263>
VStem: 0 55<192.191 304.639> 34 125<451.734 515.379> 230 94<190.713 304.768> 598 123<285 496.155> 693 67<75.3959 188.524>
Fore
675 256 m 1xf7
 720 240 760 187 760 132 c 0
 760 46 686 -12 606 -12 c 0
 523 -12 454 51 449 129 c 1
 426 114 386 86 316 0 c 1
 201 0 l 1
 201 118 l 1
 182 110 162 106 143 106 c 256
 66 106 0 169 0 248 c 0xfa80
 0 314 46 391 155 391 c 0
 261 391 324 327 324 224 c 2
 324 110 l 1
 472 240 538 267 598 285 c 1
 598 429 l 2
 598 485 560 570 386 570 c 0
 261 570 183 520 159 422 c 1
 34 422 l 1
 53 491 117 624 386 624 c 0
 544 624 721 580 721 405 c 2
 721 278 l 1
 692 268 683 262 675 256 c 1xf7
606 44 m 256
 656 44 693 87 693 132 c 256
 693 182 651 219 606 219 c 256
 555 219 518 178 518 132 c 256
 518 86 555 44 606 44 c 256
143 161 m 256
 193 161 230 203 230 248 c 256
 230 299 189 336 143 336 c 256
 93 336 55 295 55 248 c 256
 55 202 93 161 143 161 c 256
EndSplineSet
EndChar
StartChar: uni0E0A
Encoding: 3594 3594 221
Width: 745
VWidth: 1533
Flags: W
HStem: 0 61<265 546> 281 55<108.908 219.277> 501 46<138.516 146.523 142.52 218.641> 572 52<143.133 295.27>
VStem: 8 73<364.168 472.482> 143 122<61 202> 247 58<363.586 473.192> 366 83<338.337 501.064> 546 122<61 426.9>
Fore
546 370 m 2xfd80
 546 433 506 460 465 474 c 1
 527 497 558 565 558 613 c 1
 699 613 l 1
 693 576 650 504 564 477 c 1
 638 460 668 410 668 365 c 2
 668 0 l 1
 143 0 l 1
 143 209 l 1xfd80
 230 227 366 292 366 417 c 0
 366 497 316 572 213 572 c 0
 176 572 146 557 138 547 c 1
 144 547 150 548 155 548 c 0
 241 548 305 493 305 411 c 0xfb80
 305 339 243 281 164 281 c 0
 99 281 8 323 8 437 c 0
 8 530 89 624 227 624 c 256
 350 624 449 541 449 426 c 0
 449 292 335 226 265 202 c 1
 265 61 l 1
 546 61 l 1
 546 370 l 2xfd80
164 336 m 256
 212 336 247 375 247 419 c 256xfb80
 247 462 212 501 164 501 c 256
 116 501 81 462 81 419 c 256
 81 371 120 336 164 336 c 256
EndSplineSet
EndChar
StartChar: uni0E0B
Encoding: 3595 3595 222
Width: 791
VWidth: 1533
Flags: W
HStem: 0 61<296 592> 267 55<102.173 211.488> 488 42<117.915 124.617 121.266 210.558> 572 52<131.289 229.115 283.546 371.082>
VStem: 0 74<350.804 458.363> 173 123<61 218> 239 58<349.586 459.268> 402 99<368.56 536.369> 592 122<61 426.9>
Fore
592 370 m 2xfd80
 592 433 552 460 511 474 c 1
 573 497 604 565 604 613 c 1
 745 613 l 1
 739 576 696 504 610 477 c 1
 684 460 714 410 714 365 c 2
 714 0 l 1
 173 0 l 1
 173 225 l 1xfd80
 240 251 402 312 402 446 c 0
 402 525 368 570 328 570 c 0
 300 570 278 546 267 527 c 1
 238 568 203 572 184 572 c 0
 147 572 125 549 117 530 c 1
 120 530 123 535 147 535 c 0
 225 535 297 485 297 397 c 0xfb80
 297 325 236 267 156 267 c 0
 79 267 0 321 0 432 c 0
 0 543 79 624 175 624 c 0
 230 624 257 597 264 583 c 1
 270 591 298 624 348 624 c 0
 428 624 501 570 501 448 c 0
 501 313 372 247 296 218 c 1
 296 61 l 1
 592 61 l 1
 592 370 l 2xfd80
156 322 m 256
 204 322 239 361 239 405 c 256xfb80
 239 448 204 488 156 488 c 256
 109 488 74 447 74 405 c 256
 74 357 113 322 156 322 c 256
EndSplineSet
EndChar
StartChar: uni0E0C
Encoding: 3596 3596 223
Width: 1091
VWidth: 1533
Flags: W
HStem: -8 56<206.047 309.521 569.432 682.43> 222 56<213.317 315.245> 570 54<254.746 459.902>
VStem: 77 93<78.8979 191.102> 77 122<265 328.199> 345 55<79.0755 190.786> 477 61<75.4762 173.134> 534 122<274 501.483> 713 60<75.9289 123> 892 123<103 613>
Fore
357 624 m 0xecc0
 474 624 656 582 656 414 c 2
 656 274 l 1xedc0
 761 231 873 124 892 103 c 1
 892 613 l 1
 1015 613 l 1
 1015 0 l 1
 902 0 l 1
 821 84 782 116 773 123 c 1
 773 54 714 -11 626 -11 c 0
 540 -11 477 56 477 127 c 0xe6c0
 477 155 486 222 550 251 c 1
 534 261 l 1
 534 429 l 2
 534 523 457 570 357 570 c 256
 258 570 172 519 172 422 c 1
 268 422 l 1
 268 382 l 1
 222 365 199 331 199 282 c 2
 199 265 l 1xedc0
 218 274 238 278 258 278 c 256
 341 278 400 206 400 135 c 0
 400 66 350 -8 245 -8 c 0
 139 -8 77 56 77 159 c 2xf4c0
 77 268 l 2
 77 316 119 370 187 380 c 1
 41 380 l 1
 55 544 194 624 357 624 c 0xecc0
626 44 m 256
 676 44 713 87 713 132 c 256
 713 182 671 219 626 219 c 256
 575 219 538 178 538 132 c 256xe6c0
 538 86 575 44 626 44 c 256
258 48 m 256
 308 48 345 90 345 135 c 256
 345 185 303 222 258 222 c 256
 207 222 170 181 170 135 c 256xf4c0
 170 89 208 48 258 48 c 256
EndSplineSet
EndChar
StartChar: uni0E0D
Encoding: 3597 3597 224
Width: 1085
VWidth: 1533
Flags: W
HStem: -311 58<602.229 800.782> -78 47<601.009 716.424> -8 56<201.392 313.833> 0 61<656 885> 222 56<213.317 315.245> 570 54<254.746 459.902>
VStem: 77 93<78.8979 191.102> 77 122<265 328.199> 345 55<79.0755 190.786> 520 52<-224.158 -107.57> 534 122<61 501.483> 747 55<-212.275 -107.397> 885 122<61 613>
Fore
357 624 m 0xed98
 474 624 656 582 656 414 c 2
 656 61 l 1
 885 61 l 1
 885 613 l 1
 1007 613 l 1
 1007 0 l 1
 534 0 l 1
 534 429 l 2
 534 523 457 570 357 570 c 256
 258 570 172 519 172 422 c 1
 268 422 l 1
 268 382 l 1
 222 365 199 331 199 282 c 2
 199 265 l 1xddb8
 218 274 238 278 258 278 c 256
 341 278 400 206 400 135 c 0
 400 66 350 -8 245 -8 c 0
 139 -8 77 56 77 159 c 2xee98
 77 268 l 2
 77 316 119 370 187 380 c 1
 41 380 l 1
 55 544 194 624 357 624 c 0xed98
777 -251 m 1
 841 -237 883 -157 883 -82 c 0
 883 -71 882 -60 880 -49 c 1
 998 -49 l 1
 990 -187 884 -311 713 -311 c 0
 603 -311 520 -267 520 -166 c 0xccd8
 520 -85 587 -31 661 -31 c 256
 733 -31 802 -77 802 -166 c 0
 802 -183 799 -229 777 -251 c 1
659 -253 m 256
 710 -253 747 -213 747 -166 c 256
 747 -115 707 -78 659 -78 c 256
 607 -78 572 -119 572 -166 c 256
 572 -213 608 -253 659 -253 c 256
258 48 m 256xee98
 308 48 345 90 345 135 c 256
 345 185 303 222 258 222 c 256
 207 222 170 181 170 135 c 256
 170 89 208 48 258 48 c 256xee98
EndSplineSet
Substitution2: "Single Substitution lookup 22 subtable" uni0E0D.alt1
Substitution2: "Single Substitution lookup 22 subtable" uni0E0D.alt1
EndChar
StartChar: uni0E0E
Encoding: 3598 3598 225
Width: 873
VWidth: 1533
Flags: W
HStem: -270 57<240.603 359.964> -115 66<556.924 617.303> -103 62<230.755 413.193> -8 56<101.632 212.77> 222 52<102.466 204.518> 570 54<393.929 600.387>
VStem: 15 56<78.7548 191.221> 100 110<-198.62 -122.301> 216 123<267 332.436> 245 94<78.7413 191.15> 673 123<-186 500.292>
Fore
497 624 m 0xdfa0
 632 624 796 570 796 414 c 2
 796 -261 l 1
 665 -261 l 1
 617 -231 569 -201 501 -167 c 1
 450 -198 395 -270 270 -270 c 0
 186 -270 100 -237 100 -164 c 0
 100 -90 189 -41 294 -41 c 0xbfa0
 370 -41 404 -52 492 -90 c 1
 516 -76 552 -61 630 -49 c 1
 630 -115 l 1
 616 -116 569 -129 569 -129 c 1
 632 -158 665 -181 673 -186 c 1
 673 429 l 2
 673 523 597 570 497 570 c 256
 395 570 311 517 311 422 c 1
 408 422 l 1
 408 382 l 1
 362 365 339 331 339 282 c 2xdfa0
 339 163 l 2xdf60
 339 54 268 -8 166 -8 c 0
 63 -8 15 69 15 135 c 0
 15 207 73 274 158 274 c 0
 187 274 205 271 216 267 c 1
 216 281 l 2
 216 335 277 368 327 380 c 1
 181 380 l 1
 195 544 334 624 497 624 c 0xdfa0
158 48 m 256
 208 48 245 90 245 135 c 256x9f60
 245 185 203 222 158 222 c 256
 108 222 71 180 71 135 c 256
 71 85 113 48 158 48 c 256
210 -163 m 256
 210 -203 260 -213 285 -213 c 0
 320 -213 356 -205 435 -135 c 1
 397 -115 351 -103 299 -103 c 0xbf20
 254 -103 210 -124 210 -163 c 256
EndSplineSet
Substitution2: "Single Substitution lookup 22 subtable" uni0E0E.alt1
Substitution2: "Single Substitution lookup 22 subtable" uni0E0E.alt1
EndChar
StartChar: uni0E0F
Encoding: 3599 3599 226
Width: 873
VWidth: 1533
Flags: W
HStem: -279 60<134.231 253.834> -104 60<124.315 286.036> -8 56<101.632 212.77> 222 52<102.466 204.518> 570 54<393.929 600.387>
VStem: 14 90<-204.987 -124.365> 15 56<78.7548 191.221> 216 123<267 332.436> 245 94<78.7413 191.15> 673 123<-173 500.732>
Fore
497 624 m 0xfb40
 632 624 796 570 796 414 c 2
 796 -261 l 1
 670 -261 l 1
 572 -172 l 1
 466 -273 l 1
 416 -218 387 -198 368 -179 c 1
 323 -221 267 -279 170 -279 c 0
 118 -279 14 -257 14 -167 c 0
 14 -75 121 -44 196 -44 c 0
 249 -44 304 -58 365 -92 c 1
 399 -64 423 -52 466 -43 c 1
 466 -110 l 1
 452 -113 421 -130 420 -130 c 1
 439 -147 459 -162 472 -175 c 1
 572 -86 l 1
 673 -173 l 1
 673 429 l 2
 673 524 597 570 497 570 c 256
 395 570 311 517 311 422 c 1
 408 422 l 1
 408 382 l 1
 362 365 339 331 339 282 c 2xfd40
 339 163 l 2xf8c0
 339 54 268 -8 166 -8 c 0
 63 -8 15 69 15 135 c 0
 15 207 73 274 158 274 c 0
 187 274 205 271 216 267 c 1
 216 281 l 2
 216 335 277 368 327 380 c 1
 181 380 l 1
 195 544 334 624 497 624 c 0xfb40
158 48 m 256
 208 48 245 90 245 135 c 256
 245 185 203 222 158 222 c 256
 108 222 71 180 71 135 c 256xfac0
 71 85 113 48 158 48 c 256
104 -167 m 0xfc40
 104 -209 152 -219 179 -219 c 0
 230 -219 256 -202 319 -144 c 1
 281 -120 243 -104 193 -104 c 256
 163 -104 104 -117 104 -167 c 0xfc40
EndSplineSet
Substitution2: "Single Substitution lookup 22 subtable" uni0E0F.alt1
Substitution2: "Single Substitution lookup 22 subtable" uni0E0F.alt1
EndChar
StartChar: uni0E10
Encoding: 3600 3600 227
Width: 665
VWidth: 1533
Flags: W
HStem: -262 80<388.331 526.619> -253 46<37.2828 116.747> -121 46<24.8546 136.23> -75 44<427.863 526.471> 0 21G<443.677 570> 95 45<153.216 273.272> 333 44<153.432 273.519> 397 49<152 477> 498 59<385.894 493.896> 558 63<199.6 324.509>
VStem: -54 71<-198.713 -131.136> 61 56<177.544 295.414> 359 56<-169.527 -87.483> 453 116<63.4688 261.657> 477 126<189.127 397> 538 61<-169.649 -87.0576>
Fore
432 557 m 0x3ffa
 461 557 489 578 489 613 c 1
 630 613 l 1
 614 505 510 498 477 498 c 0
 387 498 346 558 267 558 c 0
 190 558 152 495 152 446 c 1
 603 446 l 1
 603 429 l 2x3ffa
 603 301 569 134 569 36 c 0
 569 24 569 12 570 0 c 1
 455 0 l 1
 348 189 l 1
 329 129 265 95 210 95 c 0
 124 95 61 159 61 236 c 0
 61 310 122 377 210 377 c 0
 303 377 343 323 365 285 c 2
 454 126 l 1
 453 134 453 142 453 151 c 0x3ffc
 453 211 477 317 477 397 c 1
 8 397 l 1
 8 526 82 621 219 621 c 256
 339 621 368 557 432 557 c 0x3ffa
599 -140 m 0x3ff9
 599 -213 531 -262 449 -262 c 0xbff9
 390 -262 339 -240 307 -213 c 1
 299 -227 287 -238 273 -255 c 1
 221 -255 l 1
 210 -234 200 -219 192 -209 c 1
 163 -231 117 -253 69 -253 c 0x7ff9
 27 -253 -54 -235 -54 -164 c 0
 -54 -111 3 -75 71 -75 c 0
 120 -75 166 -94 190 -117 c 1
 214 -74 216 -65 218 -51 c 1
 285 -51 l 1
 277 -93 256 -140 236 -163 c 1
 238 -166 252 -184 255 -190 c 1
 301 -133 l 1
 320 -164 368 -203 423 -210 c 1
 390 -196 359 -166 359 -126 c 0
 359 -70 413 -31 477 -31 c 256x3ffa
 537 -31 599 -67 599 -140 c 0x3ff9
310 236 m 256
 310 286 268 333 213 333 c 0
 156 333 117 284 117 236 c 256
 117 183 162 140 212 140 c 0
 269 140 310 186 310 236 c 256
477 -182 m 256xbffa
 511 -182 538 -161 538 -129 c 256xbff9
 538 -98 512 -75 477 -75 c 256
 444 -75 415 -97 415 -129 c 256
 415 -160 442 -182 477 -182 c 256xbffa
17 -164 m 0
 17 -198 52 -207 75 -207 c 0x7ff8
 96 -207 122 -201 159 -164 c 1
 135 -137 107 -121 72 -121 c 0
 44 -121 17 -139 17 -164 c 0
EndSplineSet
Substitution2: "Single Substitution lookup 22 subtable" uni0E10.alt1
Substitution2: "Single Substitution lookup 22 subtable" uni0E10.alt1
EndChar
StartChar: uni0E11
Encoding: 3601 3601 228
Width: 910
VWidth: 1533
Flags: W
HStem: 0 21G<262 389.294 711 834> 282 52<95.6268 199.743> 492 40<110.149 121.343 115.746 200.487> 573 53<126.434 228.15 285.666 366.606>
VStem: 0 69<361.436 464.816> 227 55<361.058 466.235> 262 123<127 309.975> 386 115<432.615 554.491> 711 123<0 504>
Fore
713 621 m 1xfb80
 784 621 834 595 834 530 c 2
 834 0 l 1
 711 0 l 1
 711 504 l 1
 376 0 l 1
 262 0 l 1
 262 251 l 2xfb80
 262 317 316 327 367 405 c 0
 380 424 386 450 386 483 c 0
 386 529 366 572 328 572 c 0
 304 572 282 555 267 529 c 1
 237 571 200 573 184 573 c 0
 151 573 121 555 110 532 c 1
 113 532 119 536 141 536 c 0
 235 536 282 468 282 406 c 256xfd80
 282 335 217 282 149 282 c 256
 86 282 -0 320 0 442 c 0
 0 532 67 626 175 626 c 0
 228 626 257 598 264 584 c 1
 280 606 316 626 357 626 c 0
 419 626 501 598 501 484 c 0
 501 418 455 402 404 344 c 0
 391 331 385 312 385 288 c 2
 385 127 l 1
 713 621 l 1xfb80
149 334 m 0
 191 334 227 373 227 412 c 0xfd80
 227 457 189 492 149 492 c 0
 107 492 69 458 69 412 c 0
 69 373 105 334 149 334 c 0
EndSplineSet
EndChar
StartChar: uni0E12
Encoding: 3602 3602 229
Width: 1117
VWidth: 1533
Flags: W
HStem: -11 55<595.432 708.43> 202 53<317.38 398.859> 429 52<318.191 429.901> 570 56<232.415 340.799 427.953 535.583>
VStem: 61 125<102.299 496.875> 81 123<72.9168 92.5 82.7084 396.986> 230 57<285.367 399.047> 461 62<285.024 397.48> 503 61<75.4762 173.134> 560 122<274 545.023> 739 60<75.9289 120.301> 918 123<103 613>
Fore
506 626 m 0xfa30
 580 626 682 591 682 449 c 2
 682 274 l 1xfa70
 787 231 899 124 918 103 c 1
 918 613 l 1
 1041 613 l 1
 1041 0 l 1
 928 0 l 1
 842 89 802 121 799 123 c 1
 799 54 740 -11 652 -11 c 0
 566 -11 503 56 503 127 c 0xf2b0
 503 155 512 222 576 251 c 1
 560 261 l 1
 560 461 l 2
 560 521 542 570 484 570 c 0
 452 570 428 557 403 518 c 1
 359 518 l 1
 341 561 318 570 291 570 c 256
 212 570 186 485 186 415 c 0xfa70
 186 279 205 249 205 113 c 0
 205 99 204 86 204 72 c 1
 278 99 360 155 402 207 c 1
 396 205 386 202 372 202 c 0
 289 202 230 264 230 344 c 0
 230 416 288 481 374 481 c 256
 456 481 523 427 523 343 c 0
 523 289 495 178 342 74 c 0
 300 46 249 21 190 0 c 1
 78 0 l 1
 80 28 81 55 81 80 c 0xf730
 81 193 61 310 61 389 c 0
 61 506 133 626 270 626 c 0
 339 626 371 593 385 567 c 1
 408 597 447 626 506 626 c 0xfa30
652 44 m 256
 702 44 739 87 739 132 c 256
 739 182 697 219 652 219 c 256
 601 219 564 178 564 132 c 256xf2b0
 564 86 601 44 652 44 c 256
374 255 m 256
 424 255 461 297 461 342 c 256xf330
 461 392 419 429 374 429 c 256
 324 429 287 387 287 342 c 256
 287 292 329 255 374 255 c 256
EndSplineSet
EndChar
StartChar: uni0E13
Encoding: 3603 3603 230
Width: 1091
VWidth: 1533
Flags: W
HStem: -8 56<206.047 309.521 841.748 954.3> 222 56<213.317 315.245> 570 54<254.746 459.902>
VStem: 77 93<78.8979 191.102> 77 122<265 328.199> 345 55<79.0755 190.786> 534 122<107 501.483> 891 122<285 613> 986 69<74.9762 188.624>
Fore
967 256 m 1xef
 1013 241 1055 187 1055 132 c 0
 1055 49 980 -12 898 -12 c 0
 812 -12 748 48 744 124 c 1
 727 111 669 41 658 0 c 1
 534 0 l 1
 534 429 l 2
 534 523 457 570 357 570 c 256
 258 570 172 519 172 422 c 1
 268 422 l 1
 268 382 l 1
 222 365 199 331 199 282 c 2
 199 265 l 1xee80
 218 274 238 278 258 278 c 256
 341 278 400 206 400 135 c 0
 400 66 350 -8 245 -8 c 0
 139 -8 77 56 77 159 c 2xf6
 77 268 l 2
 77 316 119 370 187 380 c 1
 41 380 l 1
 55 544 194 624 357 624 c 0
 474 624 656 582 656 414 c 2
 656 107 l 1
 711 182 783 257 891 285 c 1
 891 613 l 1
 1013 613 l 1
 1013 278 l 1
 994 272 984 267 967 256 c 1xef
898 44 m 256
 949 44 986 86 986 132 c 256
 986 178 948 219 898 219 c 256
 848 219 811 177 811 132 c 256
 811 87 848 44 898 44 c 256
258 48 m 256
 308 48 345 90 345 135 c 256
 345 185 303 222 258 222 c 256
 207 222 170 181 170 135 c 256xf6
 170 89 208 48 258 48 c 256
EndSplineSet
EndChar
StartChar: uni0E14
Encoding: 3604 3604 231
Width: 758
VWidth: 1533
Flags: W
HStem: 0 21G<78 297.5 560 682> 212 52<310.303 397.414> 438 53<310.603 424.017> 570 54<277.467 480.046>
VStem: 61 125<102.289 479.038> 81 121<75.2893 95.0231 85.1562 393.495> 222 57<294.204 407.034> 454 61<295.578 406.75> 560 122<0 496.341>
Fore
379 624 m 0xfb80
 525 624 682 566 682 405 c 2
 682 0 l 1
 560 0 l 1
 560 428 l 2
 560 513 484 570 379 570 c 0
 270 570 186 511 186 406 c 0xfb80
 186 315 203 206 203 115 c 0
 203 102 203 89 202 75 c 1
 302 114 375 180 402 218 c 1
 391 214 379 212 366 212 c 0
 275 212 222 279 222 353 c 0
 222 427 282 491 366 491 c 256
 448 491 515 436 515 353 c 0
 515 237 413 83 182 0 c 1
 78 0 l 1
 80 28 81 55 81 80 c 0xf780
 81 193 61 310 61 389 c 0
 61 555 239 624 379 624 c 0xfb80
366 264 m 256
 417 264 454 305 454 351 c 256
 454 397 416 438 366 438 c 256
 316 438 279 396 279 351 c 256
 279 301 321 264 366 264 c 256
EndSplineSet
EndChar
StartChar: uni0E15
Encoding: 3605 3605 232
Width: 758
VWidth: 1533
Flags: W
HStem: 0 21G<78 219.5 560 682> 202 53<318.303 398.673> 429 52<318.809 429.901> 570 56<232.415 340.799 427.953 535.583>
VStem: 61 125<102.299 496.875> 81 123<72.9168 92.5 82.7084 396.986> 230 57<286.458 397.956> 461 62<285.024 397.48> 560 122<0 545.023>
Fore
506 626 m 0xfb80
 580 626 682 591 682 449 c 2
 682 0 l 1
 560 0 l 1
 560 461 l 2
 560 521 542 570 484 570 c 0
 452 570 428 557 403 518 c 1
 359 518 l 1
 341 561 318 570 291 570 c 256
 212 570 186 485 186 415 c 0xfb80
 186 279 205 249 205 113 c 0
 205 99 204 86 204 72 c 1
 278 99 360 155 402 207 c 1
 389 203 380 202 374 202 c 0
 283 202 230 270 230 343 c 0
 230 419 291 481 374 481 c 256
 456 481 523 427 523 343 c 0
 523 289 495 178 342 74 c 0
 300 46 249 21 190 0 c 1
 78 0 l 1
 80 28 81 55 81 80 c 0xf780
 81 193 61 310 61 389 c 0
 61 506 133 626 270 626 c 0
 339 626 371 593 385 567 c 1
 408 597 447 626 506 626 c 0xfb80
374 255 m 256
 424 255 461 297 461 342 c 256
 461 392 419 429 374 429 c 256
 324 429 287 387 287 342 c 256
 287 292 329 255 374 255 c 256
EndSplineSet
EndChar
StartChar: uni0E16
Encoding: 3606 3606 233
Width: 732
VWidth: 1533
Flags: W
HStem: -8 56<201.392 313.833> 222 56<213.317 315.245> 570 54<254.746 459.902>
VStem: 77 93<78.8979 191.102> 77 122<265 328.199> 345 55<79.0755 190.786> 534 122<0 501.483>
Fore
357 624 m 0xee
 474 624 656 582 656 414 c 2
 656 0 l 1
 534 0 l 1
 534 429 l 2
 534 523 457 570 357 570 c 256
 258 570 172 519 172 422 c 1
 268 422 l 1
 268 382 l 1
 222 365 199 331 199 282 c 2
 199 265 l 1xee
 218 274 238 278 258 278 c 256
 341 278 400 206 400 135 c 0
 400 66 350 -8 245 -8 c 0
 139 -8 77 56 77 159 c 2xf6
 77 268 l 2
 77 316 119 370 187 380 c 1
 41 380 l 1
 55 544 194 624 357 624 c 0xee
258 48 m 256
 308 48 345 90 345 135 c 256
 345 185 303 222 258 222 c 256
 207 222 170 181 170 135 c 256xf6
 170 89 208 48 258 48 c 256
EndSplineSet
EndChar
StartChar: uni0E17
Encoding: 3607 3607 234
Width: 826
VWidth: 1533
Flags: W
HStem: 0 21G<216 350.636 627 750> 339 55<101.732 201.489> 569 55<102.71 213.107>
VStem: 15 56<425.589 538.249> 216 123<123 351> 245 94<423.713 537.768> 627 123<0 495>
Fore
629 621 m 1xfa
 700 621 750 595 750 530 c 2
 750 0 l 1
 627 0 l 1
 627 495 l 1
 339 0 l 1xf6
 216 0 l 1
 216 351 l 1xfa
 197 343 177 339 158 339 c 256
 80 339 15 404 15 481 c 0
 15 547 61 624 170 624 c 0
 276 624 339 560 339 457 c 2xf6
 339 123 l 1
 629 621 l 1xfa
158 394 m 256
 208 394 245 436 245 481 c 256
 245 532 204 569 158 569 c 256
 112 569 71 531 71 481 c 256
 71 431 113 394 158 394 c 256
EndSplineSet
EndChar
StartChar: uni0E18
Encoding: 3608 3608 235
Width: 700
VWidth: 1533
Flags: W
HStem: 0 61<207 501> 386 54<172 501> 504 109<498 591.327> 557 64<222.715 356.57>
VStem: 84 123<61 325> 501 123<61 386>
Fore
442 570 m 0xdc
 487 570 496 603 498 613 c 1
 644 613 l 1
 636 538 579 504 500 504 c 0xec
 410 504 373 557 294 557 c 0
 196 557 175 468 172 440 c 1
 624 440 l 1
 624 0 l 1
 84 0 l 1
 84 325 l 1
 207 325 l 1
 207 61 l 1
 501 61 l 1
 501 386 l 1
 40 386 l 1
 50 582 162 621 253 621 c 0
 358 621 384 570 442 570 c 0xdc
EndSplineSet
EndChar
StartChar: uni0E19
Encoding: 3609 3609 236
Width: 812
VWidth: 1533
Flags: W
HStem: -12 56<569.561 681.101> 345 49<99.702 203.756> 569 55<99.7466 212.633>
VStem: 15 54<424.897 538.384> 221 122<118 356> 244 99<424.898 537.328> 618 123<285 613> 713 69<75.005 187.708>
Fore
695 256 m 1xfa
 740 241 782 188 782 132 c 0
 782 52 712 -12 627 -12 c 0
 540 -12 476 48 472 124 c 1
 424 89 368 42 333 -2 c 1
 221 -2 l 1
 221 356 l 1xf9
 205 349 184 345 163 345 c 0
 78 345 15 410 15 484 c 0
 15 552 69 624 170 624 c 0
 276 624 343 559 343 457 c 2xf4
 343 118 l 1
 403 170 500 239 618 285 c 1
 618 613 l 1
 741 613 l 1
 741 278 l 1
 722 272 712 267 695 256 c 1xfa
626 44 m 256
 676 44 713 87 713 132 c 256
 713 182 671 219 626 219 c 256
 575 219 538 178 538 132 c 256
 538 86 575 44 626 44 c 256
156 394 m 256
 207 394 244 435 244 481 c 256xf4
 244 531 203 569 156 569 c 256
 110 569 69 531 69 481 c 256
 69 431 111 394 156 394 c 256
EndSplineSet
EndChar
StartChar: uni0E1A
Encoding: 3610 3610 237
Width: 827
VWidth: 1533
Flags: W
HStem: 0 61<339 629> 339 55<101.732 201.489> 569 55<102.71 213.107>
VStem: 15 56<425.589 538.249> 216 123<61 351> 245 94<423.713 537.768> 629 122<61 613>
Fore
170 624 m 0xfa
 276 624 339 560 339 457 c 2xf6
 339 61 l 1
 629 61 l 1
 629 613 l 1
 751 613 l 1
 751 0 l 1
 216 0 l 1
 216 351 l 1
 197 343 177 339 158 339 c 256
 80 339 15 404 15 481 c 0
 15 547 61 624 170 624 c 0xfa
158 394 m 256
 208 394 245 436 245 481 c 256
 245 532 204 569 158 569 c 256
 112 569 71 531 71 481 c 256
 71 431 113 394 158 394 c 256
EndSplineSet
EndChar
StartChar: uni0E1B
Encoding: 3611 3611 238
Width: 827
VWidth: 1533
Flags: W
HStem: 0 61<339 629> 339 55<101.732 201.489> 569 55<102.71 213.107>
VStem: 15 56<425.589 538.249> 216 123<61 351> 245 94<423.713 537.768> 629 122<61 813>
Fore
170 624 m 0xfa
 276 624 339 560 339 457 c 2xf6
 339 61 l 1
 629 61 l 1
 629 813 l 1
 751 813 l 1
 751 0 l 1
 216 0 l 1
 216 351 l 1
 197 343 177 339 158 339 c 256
 80 339 15 404 15 481 c 0
 15 547 61 624 170 624 c 0xfa
158 394 m 256
 208 394 245 436 245 481 c 256
 245 532 204 569 158 569 c 256
 112 569 71 531 71 481 c 256
 71 431 113 394 158 394 c 256
EndSplineSet
EndChar
StartChar: uni0E1C
Encoding: 3612 3612 239
Width: 771
VWidth: 1533
Flags: W
HStem: 0 21G<77 211.323 560.677 695> 345 47<198.141 299.581> 575 49<184.961 299.857>
VStem: 59 93<365.531 529.946> 77 123<104.609 214.791> 334 57<427.174 541.205> 572 123<106 613>
Fore
187 354 m 1xf6
 190 269 200 206 200 142 c 0
 200 129 200 117 199 104 c 1
 388 340 l 1
 572 106 l 1
 572 613 l 1
 695 613 l 1
 695 0 l 1
 576 0 l 1
 386 248 l 1
 196 0 l 1
 77 0 l 1xee
 77 184 59 304 59 400 c 0
 59 467 67 532 114 579 c 0
 144 609 185 624 236 624 c 0
 339 624 391 552 391 484 c 0
 391 404 321 345 244 345 c 0
 223 345 204 348 187 354 c 1xf6
244 392 m 0
 290 392 334 434 334 484 c 0
 334 534 290 575 244 575 c 0
 192 575 152 531 152 484 c 0xf6
 152 437 192 392 244 392 c 0
EndSplineSet
EndChar
StartChar: uni0E1D
Encoding: 3613 3613 240
Width: 771
VWidth: 1533
Flags: W
HStem: 0 21G<77 211.323 560.677 695> 345 47<198.141 299.581> 575 49<184.961 299.857>
VStem: 59 93<365.531 529.946> 77 123<104.609 214.791> 334 57<427.174 541.205> 572 123<106 813>
Fore
187 354 m 1xf6
 190 269 200 206 200 142 c 0
 200 129 200 117 199 104 c 1
 388 340 l 1
 572 106 l 1
 572 813 l 1
 695 813 l 1
 695 0 l 1
 576 0 l 1
 386 248 l 1
 196 0 l 1
 77 0 l 1xee
 77 184 59 304 59 400 c 0
 59 467 67 532 114 579 c 0
 144 609 185 624 236 624 c 0
 339 624 391 552 391 484 c 0
 391 404 321 345 244 345 c 0
 223 345 204 348 187 354 c 1xf6
244 392 m 0
 290 392 334 434 334 484 c 0
 334 534 290 575 244 575 c 0
 192 575 152 531 152 484 c 0xf6
 152 437 192 392 244 392 c 0
EndSplineSet
EndChar
StartChar: uni0E1E
Encoding: 3614 3614 241
Width: 895
VWidth: 1533
Flags: W
HStem: 0 21G<216 361.225 674.775 819> 339 55<101.732 201.489> 569 55<102.71 213.107>
VStem: 15 56<425.589 538.249> 216 123<146 351> 245 94<423.713 537.768> 696 123<147 613>
Fore
170 624 m 0xfa
 276 624 339 560 339 457 c 2xf6
 339 146 l 1
 520 629 l 1
 696 147 l 1
 696 613 l 1
 819 613 l 1
 819 0 l 1
 682 0 l 1
 518 454 l 1
 354 0 l 1
 216 0 l 1
 216 351 l 1
 197 343 177 339 158 339 c 256
 80 339 15 404 15 481 c 0
 15 547 61 624 170 624 c 0xfa
158 394 m 256
 208 394 245 436 245 481 c 256
 245 532 204 569 158 569 c 256
 112 569 71 531 71 481 c 256
 71 431 113 394 158 394 c 256
EndSplineSet
EndChar
StartChar: uni0E1F
Encoding: 3615 3615 242
Width: 895
VWidth: 1533
Flags: W
HStem: 0 21G<216 361.225 674.775 819> 339 55<101.732 201.489> 569 55<102.71 213.107>
VStem: 15 56<425.589 538.249> 216 123<146 351> 245 94<423.713 537.768> 696 123<147 813>
Fore
170 624 m 0xfa
 276 624 339 560 339 457 c 2xf6
 339 146 l 1
 520 629 l 1
 696 147 l 1
 696 813 l 1
 819 813 l 1
 819 0 l 1
 682 0 l 1
 518 454 l 1
 354 0 l 1
 216 0 l 1
 216 351 l 1
 197 343 177 339 158 339 c 256
 80 339 15 404 15 481 c 0
 15 547 61 624 170 624 c 0xfa
158 394 m 256
 208 394 245 436 245 481 c 256
 245 532 204 569 158 569 c 256
 112 569 71 531 71 481 c 256
 71 431 113 394 158 394 c 256
EndSplineSet
EndChar
StartChar: uni0E20
Encoding: 3616 3616 243
Width: 873
VWidth: 1533
Flags: W
HStem: -8 56<101.632 212.77> 222 52<102.466 204.518> 570 54<393.929 600.387>
VStem: 15 56<78.7548 191.221> 216 123<267 332.436> 245 94<78.7413 191.15> 673 123<0 500.292>
Fore
497 624 m 0xfa
 632 624 796 570 796 414 c 2
 796 0 l 1
 673 0 l 1
 673 429 l 2
 673 523 597 570 497 570 c 256
 395 570 311 517 311 422 c 1
 408 422 l 1
 408 382 l 1
 362 365 339 331 339 282 c 2xfa
 339 163 l 2xf6
 339 54 268 -8 166 -8 c 0
 63 -8 15 69 15 135 c 0
 15 207 73 274 158 274 c 0
 187 274 205 271 216 267 c 1
 216 281 l 2
 216 335 277 368 327 380 c 1
 181 380 l 1
 195 544 334 624 497 624 c 0xfa
158 48 m 256
 208 48 245 90 245 135 c 256xf6
 245 185 203 222 158 222 c 256
 108 222 71 180 71 135 c 256
 71 85 113 48 158 48 c 256
EndSplineSet
EndChar
StartChar: uni0E21
Encoding: 3617 3617 244
Width: 806
VWidth: 1533
Flags: W
HStem: -8 66<137.574 233.464> 205 63<141.948 226.3 224.323 228.277 228.277 247> 339 55<130.921 232.489> 569 55<132.682 244.107>
VStem: 46 55<425.191 537.639> 49 69<76.6818 181.533> 247 123<71.5405 124 124 163 267 351> 276 94<423.713 537.768> 607 123<77 613>
Fore
201 624 m 0xfa80
 307 624 370 560 370 457 c 2
 370 233 l 1xf980
 607 77 l 1
 607 613 l 1
 730 613 l 1
 730 0 l 1
 609 0 l 1
 370 163 l 1
 370 144 l 2
 370 45 305 -8 201 -8 c 0
 100 -8 49 62 49 130 c 0xf680
 49 216 118 268 209 268 c 0
 232 268 236 267 247 267 c 1
 247 351 l 1
 228 343 208 339 189 339 c 256
 112 339 46 402 46 481 c 0
 46 547 92 624 201 624 c 0xfa80
189 394 m 256
 239 394 276 436 276 481 c 256
 276 532 235 569 189 569 c 256
 139 569 101 528 101 481 c 256
 101 435 139 394 189 394 c 256
186 58 m 0
 207 58 247 69 247 124 c 2
 247 202 l 1
 238 204 224 205 201 205 c 0
 154 205 118 175 118 129 c 0xf680
 118 84 152 58 186 58 c 0
EndSplineSet
EndChar
StartChar: uni0E22
Encoding: 3618 3618 245
Width: 751
VWidth: 1533
Flags: W
HStem: 0 61<248 552> 339 50<230.928 343.211> 555 66<230.372 344.195>
VStem: 31 92<362.386 477.056> 126 122<61 197.72> 147 57<415.082 501.862> 370 58<415.869 528.658> 552 123<61 613>
Fore
383 276 m 1xf7
 355 267 248 229 248 159 c 2
 248 61 l 1
 552 61 l 1
 552 613 l 1
 675 613 l 1
 675 0 l 1
 126 0 l 1
 126 144 l 2xfb
 126 182 165 234 225 250 c 1
 114 256 31 326 31 431 c 0
 31 545 122 621 241 621 c 0
 385 621 428 536 428 471 c 0
 428 399 366 339 287 339 c 0
 193 339 147 402 147 471 c 0
 147 478 148 493 153 506 c 1
 132 495 123 451 123 434 c 0
 123 342 203 297 276 297 c 0
 300 297 328 302 357 317 c 1
 383 276 l 1xf7
287 389 m 256
 336 389 370 426 370 472 c 256
 370 521 333 555 287 555 c 256
 233 555 204 512 204 473 c 0xf7
 204 422 241 389 287 389 c 256
EndSplineSet
EndChar
StartChar: uni0E23
Encoding: 3619 3619 246
Width: 668
VWidth: 1533
Flags: W
HStem: -11 51<336.574 454.108> 227 51<336.155 442.106> 386 54<132 461> 504 59<372.313 479.028> 557 64<185.804 328.722>
VStem: 245 57<73.9727 192.525> 461 123<264 386> 489 95<78.4509 191.998>
Fore
432 563 m 0xf6
 478 563 487 596 489 613 c 1
 635 613 l 1
 623 512 516 504 477 504 c 0xf5
 387 504 324 557 255 557 c 0
 157 557 136 469 132 440 c 1
 584 440 l 1
 584 169 l 2xed
 584 50 494 -11 396 -11 c 0
 313 -11 245 53 245 133 c 0
 245 213 312 278 396 278 c 0
 421 278 443 273 461 264 c 1
 461 386 l 1
 0 386 l 1
 5 492 44 621 219 621 c 0xee
 334 621 376 563 432 563 c 0xf6
396 40 m 256
 445 40 489 80 489 133 c 0
 489 183 449 227 396 227 c 256
 342 227 302 184 302 133 c 0
 302 83 343 40 396 40 c 256
EndSplineSet
EndChar
StartChar: uni0E24
Encoding: 3620 3620 247
Width: 732
VWidth: 1533
Flags: W
HStem: -199 21G<534 656> -8 56<201.392 313.833> 222 56<213.317 315.245> 570 54<254.746 459.902>
VStem: 77 93<78.8979 191.102> 77 122<265 328.199> 345 55<79.0755 190.786> 534 122<-199 501.483>
Fore
357 624 m 0xf7
 474 624 656 582 656 414 c 2
 656 -199 l 1
 534 -199 l 1
 534 429 l 2
 534 523 457 570 357 570 c 256
 258 570 172 519 172 422 c 1
 268 422 l 1
 268 382 l 1
 222 365 199 331 199 282 c 2
 199 265 l 1xf7
 218 274 238 278 258 278 c 256
 341 278 400 206 400 135 c 0
 400 66 350 -8 245 -8 c 0
 139 -8 77 56 77 159 c 2xfb
 77 268 l 2
 77 316 119 370 187 380 c 1
 41 380 l 1
 55 544 194 624 357 624 c 0xf7
258 48 m 256
 308 48 345 90 345 135 c 256
 345 185 303 222 258 222 c 256
 207 222 170 181 170 135 c 256xfb
 170 89 208 48 258 48 c 256
EndSplineSet
EndChar
StartChar: uni0E25
Encoding: 3621 3621 248
Width: 777
VWidth: 1533
Flags: W
HStem: -11 59<190.897 308.692> 235 56<202.04 307.416> 388 57<265.644 458.038> 570 54<285.326 495.37>
VStem: 61 95<88.534 198.517> 343 62<83.6219 200.946> 578 123<0 274.181 356 489.204>
Fore
60 434 m 1
 99 563 234 624 389 624 c 0
 649 624 701 487 701 396 c 2
 701 0 l 1
 578 0 l 1
 578 182 l 2
 578 313 471 388 357 388 c 0
 255 388 201 323 187 281 c 1
 204 288 225 291 250 291 c 0
 344 291 405 219 405 141 c 0
 405 55 329 -11 250 -11 c 0
 159 -11 61 45 61 192 c 0
 61 308 148 445 354 445 c 0
 463 445 534 402 578 356 c 1
 578 426 l 2
 578 520 493 570 389 570 c 256
 265 570 203 499 186 434 c 1
 60 434 l 1
250 48 m 256
 303 48 343 92 343 141 c 256
 343 194 299 235 250 235 c 256
 197 235 156 190 156 141 c 256
 156 88 201 48 250 48 c 256
EndSplineSet
EndChar
StartChar: uni0E26
Encoding: 3622 3622 249
Width: 873
VWidth: 1533
Flags: W
HStem: -199 21G<673 796> -8 56<101.632 212.77> 222 52<102.466 204.518> 570 54<393.929 600.387>
VStem: 15 56<78.7548 191.221> 216 123<267 332.436> 245 94<78.7413 191.15> 673 123<-199 500.292>
Fore
497 624 m 0xfd
 632 624 796 570 796 414 c 2
 796 -199 l 1
 673 -199 l 1
 673 429 l 2
 673 523 597 570 497 570 c 256
 395 570 311 517 311 422 c 1
 408 422 l 1
 408 382 l 1
 362 365 339 331 339 282 c 2xfd
 339 163 l 2xfb
 339 54 268 -8 166 -8 c 0
 63 -8 15 69 15 135 c 0
 15 207 73 274 158 274 c 0
 187 274 205 271 216 267 c 1
 216 281 l 2
 216 335 277 368 327 380 c 1
 181 380 l 1
 195 544 334 624 497 624 c 0xfd
158 48 m 256
 208 48 245 90 245 135 c 256xfb
 245 185 203 222 158 222 c 256
 108 222 71 180 71 135 c 256
 71 85 113 48 158 48 c 256
EndSplineSet
EndChar
StartChar: uni0E27
Encoding: 3623 3623 250
Width: 671
VWidth: 1533
Flags: W
HStem: -11 51<347.686 465.984> 227 51<347.267 453.189> 570 54<213.506 401.526>
VStem: 256 57<73.3498 193.363> 472 123<264 499.565> 500 95<79.7564 193.659>
Fore
307 624 m 0xf8
 467 624 595 566 595 400 c 2xf8
 595 169 l 2xf4
 595 52 507 -11 406 -11 c 0
 323 -11 256 53 256 133 c 0
 256 214 322 278 406 278 c 0
 432 278 454 273 472 264 c 1
 472 426 l 2
 472 486 438 570 307 570 c 0
 176 570 128 475 126 419 c 1
 0 419 l 1
 12 484 65 624 307 624 c 0xf8
406 40 m 256
 460 40 500 83 500 133 c 256xf4
 500 187 457 227 406 227 c 256
 356 227 313 187 313 133 c 256
 313 80 357 40 406 40 c 256
EndSplineSet
EndChar
StartChar: uni0E28
Encoding: 3624 3624 251
Width: 774
VWidth: 1533
Flags: W
HStem: 0 21G<78 202.473 575 698> 198 57<339.273 436.521> 570 54<283.702 436.692>
VStem: 61 125<285.79 475.025> 80 118<72 227> 465 56<282.719 391.949> 575 123<0 441.14>
Fore
534 603 m 1xf6
 550 625 564 649 573 675 c 1
 707 675 l 1
 695 650 683 624 610 566 c 1
 691 509 698 439 698 405 c 2
 698 0 l 1
 575 0 l 1
 575 432 l 2
 575 463 563 490 538 515 c 1
 499 492 459 471 438 463 c 1
 485 443 521 399 521 336 c 0
 521 261 467 198 382 198 c 0
 371 198 324 198 274 241 c 1
 196 0 l 1
 78 0 l 1
 79 24 80 48 80 72 c 0xee
 80 199 61 246 61 389 c 0
 61 544 232 624 386 624 c 0
 436 624 485 617 534 603 c 1xf6
386 570 m 0
 277 570 186 506 186 411 c 0xf6
 186 356 198 255 198 227 c 1
 236 351 l 2
 255 411 292 467 365 472 c 1
 428 505 463 532 484 550 c 1
 453 563 420 570 386 570 c 0
382 255 m 0
 425 255 465 290 465 337 c 256
 465 385 425 420 382 420 c 0
 338 420 299 385 299 337 c 0
 299 294 335 255 382 255 c 0
EndSplineSet
EndChar
StartChar: uni0E29
Encoding: 3625 3625 252
Width: 880
VWidth: 1533
Flags: W
HStem: 0 61<339 644> 152 49<567.575 624.461 621.046 627.875 627.875 644> 339 55<101.732 201.489> 354 46<450.029 544.298> 569 55<102.71 213.107>
VStem: 15 56<425.589 538.249> 216 123<61 351> 245 94<423.713 537.768> 383 51<244.216 338.27> 561 51<243.767 338.575> 644 123<61 155 274 613> 811 95<307.876 385>
Fore
612 291 m 0xdef0
 612 248 591 219 567 202 c 1
 577 201 586 201 596 201 c 0
 612 201 628 202 644 205 c 1
 644 613 l 1
 767 613 l 1
 767 274 l 1
 793 306 808 343 811 385 c 1
 906 385 l 1
 897 304 837 234 767 195 c 1
 767 0 l 1
 216 0 l 1
 216 351 l 1xdef0
 197 343 177 339 158 339 c 256
 80 339 15 404 15 481 c 0
 15 547 61 624 170 624 c 0
 276 624 339 560 339 457 c 2xedf0
 339 61 l 1
 644 61 l 1
 644 155 l 1
 629 152 615 152 598 152 c 0
 509 152 383 180 383 291 c 0
 383 351 434 400 498 400 c 0
 558 400 612 358 612 291 c 0xdef0
497 228 m 256
 534 228 561 257 561 291 c 256
 561 325 534 354 497 354 c 256
 460 354 434 325 434 291 c 256
 434 254 463 228 497 228 c 256
158 394 m 256xedf0
 208 394 245 436 245 481 c 256
 245 532 204 569 158 569 c 256
 112 569 71 531 71 481 c 256
 71 431 113 394 158 394 c 256xedf0
EndSplineSet
EndChar
StartChar: uni0E2A
Encoding: 3626 3626 253
Width: 777
VWidth: 1533
Flags: W
HStem: -11 59<190.897 308.692> 235 56<202.04 307.416> 388 57<265.258 362> 570 54<285.326 443.987>
VStem: 61 95<88.534 198.177> 343 62<83.6219 200.946> 578 123<0 274.181 356 493.135>
Fore
60 434 m 1
 99 563 234 624 389 624 c 0
 446 624 494 617 535 604 c 1
 554 629 567 652 573 675 c 1
 707 675 l 1
 695 650 679 621 615 567 c 1
 644 547 701 499 701 396 c 2
 701 0 l 1
 578 0 l 1
 578 182 l 2
 578 313 471 388 357 388 c 0
 255 388 201 323 187 281 c 1
 204 288 225 291 250 291 c 0
 344 291 405 219 405 141 c 0
 405 55 329 -11 250 -11 c 0
 159 -11 61 45 61 192 c 0
 61 293 129 445 362 445 c 1
 402 469 459 516 494 550 c 1
 462 563 427 570 389 570 c 0
 265 570 203 499 186 434 c 1
 60 434 l 1
578 426 m 2
 578 460 567 489 544 514 c 1
 513 488 469 458 432 437 c 1
 448 433 510 421 578 356 c 1
 578 426 l 2
250 48 m 256
 303 48 343 92 343 141 c 256
 343 194 299 235 250 235 c 256
 197 235 156 190 156 141 c 256
 156 88 201 48 250 48 c 256
EndSplineSet
EndChar
StartChar: uni0E2B
Encoding: 3627 3627 254
Width: 824
VWidth: 1533
Flags: W
HStem: 0 21G<216 339 626 748> 339 55<101.732 201.489> 351 48<537.142 591.969> 569 55<102.71 213.107 532.781 650.58>
VStem: 15 56<425.589 538.249> 216 123<0 226.583 308 351> 245 94<423.713 537.768> 443 61<429.695 541.351> 626 122<0 311.562> 679 62<429.293 541.565>
Fore
693 385 m 1xdd40
 744 351 748 303 748 282 c 2
 748 0 l 1
 626 0 l 1
 626 305 l 2
 626 342 591 351 569 351 c 0
 476 351 339 268 339 150 c 2
 339 0 l 1
 216 0 l 1
 216 351 l 1xbd80
 197 343 177 339 158 339 c 256
 80 339 15 404 15 481 c 0
 15 547 61 624 170 624 c 0
 276 624 339 560 339 457 c 2xdb
 339 308 l 1
 360 334 433 381 481 392 c 1
 454 416 443 453 443 486 c 0
 443 557 495 624 592 624 c 256
 687 624 741 558 741 486 c 0
 741 439 720 404 693 385 c 1xdd40
592 399 m 256
 642 399 679 441 679 486 c 256xb940
 679 536 637 573 592 573 c 256
 547 573 504 536 504 486 c 256
 504 436 547 399 592 399 c 256
158 394 m 256xdb
 208 394 245 436 245 481 c 256
 245 532 204 569 158 569 c 256
 112 569 71 531 71 481 c 256
 71 431 113 394 158 394 c 256xdb
EndSplineSet
EndChar
StartChar: uni0E2C
Encoding: 3628 3628 255
Width: 910
VWidth: 1533
Flags: W
HStem: 0 21G<216 359.042 677.887 819> 339 55<101.732 201.489> 402 59<552.068 676.652> 569 55<102.71 213.107 551.078 673.748>
VStem: 15 56<425.589 538.249> 216 123<109 351> 245 94<423.713 537.768> 451 84<479.144 554.554> 696 123<109 405>
Fore
813 515 m 1xfd80
 826 522 854 539 875 560 c 1
 926 500 l 1
 878 461 842 445 819 435 c 1
 819 0 l 1
 690 0 l 1
 518 284 l 1
 347 0 l 1
 216 0 l 1
 216 351 l 1xfd80
 197 343 177 339 158 339 c 256
 80 339 15 404 15 481 c 0
 15 547 61 624 170 624 c 0
 276 624 339 560 339 457 c 2xfb80
 339 109 l 1
 518 396 l 1
 696 109 l 1
 696 405 l 1
 681 402 664 402 647 402 c 0
 556 402 451 429 451 511 c 0
 451 550 490 624 627 624 c 0
 704 624 798 598 813 515 c 1xfd80
618 461 m 0
 633 461 666 462 695 471 c 1
 695 497 l 2
 695 544 659 572 610 572 c 0
 583 572 535 555 535 514 c 0
 535 488 567 461 618 461 c 0
158 394 m 256
 208 394 245 436 245 481 c 256xfb80
 245 532 204 569 158 569 c 256
 112 569 71 531 71 481 c 256
 71 431 113 394 158 394 c 256
EndSplineSet
Substitution2: "Single Substitution lookup 22 subtable" uni0E2C.alt1
Substitution2: "Single Substitution lookup 22 subtable" uni0E2C.alt1
EndChar
StartChar: uni0E2D
Encoding: 3629 3629 256
Width: 760
VWidth: 1533
Flags: W
HStem: 0 61<207 561> 132 54<219.742 322.407> 360 54<209.696 322.067> 570 54<267.208 477.403>
VStem: 43 126<451.528 513.53> 84 123<61 143> 84 94<216.85 327.073> 353 56<216.426 328.771> 561 123<61 490.879>
Fore
373 624 m 256xf980
 519 624 684 564 684 399 c 2
 684 0 l 1
 84 0 l 1
 84 245 l 2xf380
 84 350 150 414 258 414 c 0
 369 414 409 331 409 273 c 0
 409 190 345 132 265 132 c 0
 244 132 224 136 207 143 c 1
 207 61 l 1xf580
 561 61 l 1
 561 425 l 2
 561 512 486 570 373 570 c 0
 210 570 175 455 169 426 c 1
 43 426 l 1
 83 584 258 624 373 624 c 256xf980
265 186 m 256
 316 186 353 227 353 273 c 256
 353 319 315 360 265 360 c 256
 215 360 178 318 178 273 c 256
 178 223 220 186 265 186 c 256
EndSplineSet
EndChar
StartChar: uni0E2E
Encoding: 3630 3630 257
Width: 768
VWidth: 1533
Flags: W
HStem: 0 61<207 561> 115 52<220.367 323.824> 331 52<206.495 324.735> 412 60<238.148 482.864> 567 55<213.772 425.694>
VStem: 58 124<492.643 540.78> 84 123<61 126> 84 94<195.617 301.311> 353 56<196.16 302.99> 561 123<61 441.841>
Fore
599 560 m 1xfcc0
 607 565 648 594 668 624 c 1
 751 547 l 1
 722 524 693 505 662 492 c 1
 677 467 684 438 684 405 c 2
 684 0 l 1
 84 0 l 1
 84 224 l 2xf9c0
 84 323 152 383 258 383 c 0
 369 383 409 306 409 250 c 0
 409 174 349 115 265 115 c 0
 253 115 234 116 207 126 c 1
 207 61 l 1xfac0
 561 61 l 1
 561 412 l 2
 561 425 560 437 557 448 c 1
 491 428 419 412 327 412 c 0
 190 412 58 450 58 506 c 0
 58 552 131 622 340 622 c 0
 477 622 557 587 599 560 c 1xfcc0
182 514 m 0xfcc0
 182 480 291 472 339 472 c 0
 408 472 472 487 524 509 c 1
 474 557 385 567 340 567 c 0
 259 567 182 546 182 514 c 0xfcc0
265 167 m 256
 311 167 353 200 353 250 c 0
 353 295 315 331 265 331 c 256
 216 331 178 295 178 250 c 0xf9c0
 178 204 216 167 265 167 c 256
EndSplineSet
EndChar
StartChar: uni0E2F
Encoding: 3631 3631 258
Width: 662
VWidth: 1533
Flags: W
HStem: 0 21G<463 586> 331 52<229.294 328.115> 572 49<98.1294 209.169>
VStem: 15 56<433.55 544.887> 238 56<433.681 544.354> 463 123<0 434>
Fore
247 383 m 0
 378 383 446 522 465 621 c 1
 500 621 529 615 552 604 c 0
 575 593 586 571 586 538 c 2
 586 0 l 1
 463 0 l 1
 463 434 l 1
 436 391 348 331 245 331 c 0
 100 331 15 405 15 494 c 0
 15 573 88 621 154 621 c 0
 224 621 294 574 294 494 c 0
 294 453 266 406 227 385 c 1
 227 384 235 383 247 383 c 0
153 406 m 0
 202 406 238 444 238 489 c 0
 238 533 203 572 153 572 c 256
 104 572 71 533 71 489 c 256
 71 445 104 406 153 406 c 0
EndSplineSet
EndChar
StartChar: uni0E30
Encoding: 3632 3632 259
Width: 648
VWidth: 1533
Flags: W
HStem: -8 56<267.908 358.131> 224 46<134.985 240.246> 328 55<268.036 361.047> 560 46<134.77 240.371>
VStem: 58 54<95.7064 201.749 430.941 537.46> 264 53<96.7114 201.475 431.973 537.094> 472 114<159.005 265.796 264.523 267.07 267.07 278 492.033 601.14 600.023 602.256 602.256 613>
Fore
472 575 m 0
 472 589 470 601 466 613 c 1
 584 613 l 1
 585 605 586 596 586 587 c 0
 586 483 506 328 287 328 c 0
 150 328 58 390 58 484 c 0
 58 557 118 606 189 606 c 256
 255 606 317 564 317 484 c 0
 317 444 298 402 265 383 c 1
 416 383 472 507 472 575 c 0
472 240 m 0
 472 253 470 266 466 278 c 1
 584 278 l 1
 585 269 586 261 586 251 c 0
 586 134 490 -8 287 -8 c 0
 149 -8 58 55 58 149 c 0
 58 222 119 270 189 270 c 256
 262 270 317 222 317 149 c 0
 317 106 298 65 265 48 c 1
 431 48 472 189 472 240 c 0
187 409 m 256
 231 409 264 444 264 484 c 256
 264 525 232 560 187 560 c 256
 142 560 112 524 112 484 c 256
 112 446 142 409 187 409 c 256
187 74 m 256
 232 74 264 108 264 149 c 256
 264 189 231 224 187 224 c 256
 142 224 112 187 112 149 c 256
 112 110 142 74 187 74 c 256
EndSplineSet
EndChar
StartChar: uni0E31
Encoding: 3633 3633 260
Width: 0
VWidth: 1533
Flags: W
HStem: 691 49<-214.623 -109.528> 892 46<-343.093 -247.115>
VStem: -411 54<781.869 877.857> -232 57<782.41 877.227> -13 115<830.346 927.176 926.523 927.829 927.829 938>
Fore
-197 740 m 0
 -94 740 -13 821 -13 906 c 0
 -13 917 -15 928 -18 938 c 1
 100 938 l 1
 101 931 102 923 102 915 c 0
 102 810 2 691 -196 691 c 0
 -366 691 -411 775 -411 831 c 0
 -411 879 -378 938 -296 938 c 256
 -212 938 -175 879 -175 832 c 0
 -175 789 -189 758 -218 741 c 1
 -211 740 -204 740 -197 740 c 0
-296 767 m 0
 -258 767 -232 795 -232 829 c 256
 -232 865 -258 892 -296 892 c 0
 -333 892 -357 864 -357 829 c 256
 -357 792 -330 767 -296 767 c 0
EndSplineSet
Substitution2: "Single Substitution lookup 22 subtable" uni0E31.alt1
Substitution2: "Single Substitution lookup 22 subtable" uni0E31.alt1
EndChar
StartChar: uni0E32
Encoding: 3634 3634 261
Width: 640
VWidth: 1533
Flags: W
HStem: 0 21G<442 564> 570 54<213.846 383.323>
VStem: 442 122<0 504.923>
Fore
15 419 m 1
 26 479 72 624 299 624 c 0
 430 624 564 579 564 400 c 2
 564 0 l 1
 442 0 l 1
 442 426 l 2
 442 492 413 570 299 570 c 0
 173 570 144 464 141 419 c 1
 15 419 l 1
EndSplineSet
EndChar
StartChar: uni0E33
Encoding: 3635 3635 262
Width: 640
VWidth: 1533
Flags: W
HStem: 0 21<442 564> 570 54<213.846 383.323> 690 49<-180.279 -66.4102> 895 53<-180.279 -66.4102>
VStem: -259 52<765.171 869.426> -41 52<765.389 868.996> 442 122<0 504.923>
Back
-5 819 m 256
 -5 801.667 -8.5 785 -15.5 769 c 128
 -22.5 753 -32.1667 739.167 -44.5 727.5 c 128
 -56.8333 715.833 -71.1667 706.667 -87.5 700 c 128
 -103.833 693.333 -121.333 690 -140 690 c 256
 -158 690 -175.167 693.333 -191.5 700 c 128
 -207.833 706.667 -222.167 715.833 -234.5 727.5 c 128
 -246.833 739.167 -256.5 753 -263.5 769 c 128
 -270.5 785 -274 801.667 -274 819 c 256
 -274 836.333 -270.5 852.833 -263.5 868.5 c 128
 -256.5 884.167 -246.833 898 -234.5 910 c 128
 -222.167 922 -207.833 931.333 -191.5 938 c 128
 -175.167 944.667 -158 948 -140 948 c 256
 -121.333 948 -103.833 944.667 -87.5 938 c 128
 -71.1667 931.333 -56.8333 922 -44.5 910 c 128
 -32.1667 898 -22.5 884.167 -15.5 868.5 c 128
 -8.5 852.833 -5 836.333 -5 819 c 256
442 0 m 1
 442 426 l 2
 442 467.333 430.667 501.667 408 529 c 128
 385.333 556.333 349 570 299 570 c 0
 272.333 570 249.5 565.667 230.5 557 c 128
 211.5 548.333 195.667 536.833 183 522.5 c 128
 170.333 508.167 160.5 491.833 153.5 473.5 c 128
 146.5 455.167 142.333 437 141 419 c 1
 15 419 l 1
 26.3333 482.333 56 532.333 104 569 c 128
 152 605.667 217 624 299 624 c 0
 379.667 624 444 606.333 492 571 c 128
 540 535.667 564 478.667 564 400 c 2
 564 0 l 1
 442 0 l 1
-57 817 m 256
 -57 838.333 -65.1667 856.667 -81.5 872 c 128
 -97.8333 887.333 -117.333 895 -140 895 c 256
 -162 895 -181.167 887.333 -197.5 872 c 128
 -213.833 856.667 -222 838.333 -222 817 c 256
 -222 795.667 -213.833 777.333 -197.5 762 c 128
 -181.167 746.667 -162 739 -140 739 c 256
 -117.333 739 -97.8333 746.667 -81.5 762 c 128
 -65.1667 777.333 -57 795.667 -57 817 c 256
EndSplineSet
Refer: 284 3661 N 1 0 0 1 0 0 2
Refer: 261 3634 N 1 0 0 1 0 0 2
Substitution2: "Single Substitution lookup 22 subtable" uni0E33.alt1
Substitution2: "Single Substitution lookup 22 subtable" uni0E33.alt1
EndChar
StartChar: uni0E34
Encoding: 3636 3636 263
Width: 0
VWidth: 1533
Flags: W
HStem: 690 44<-558 -212> 833 46<-486.283 -284.072>
Fore
-693 690 m 1
 -689 734 -648 879 -385 879 c 256
 -120 879 -81 733 -77 690 c 1
 -693 690 l 1
-212 734 m 1
 -219 761 -256 833 -385 833 c 0
 -517 833 -551 761 -558 734 c 1
 -212 734 l 1
EndSplineSet
Substitution2: "Single Substitution lookup 22 subtable" uni0E34.alt1
Substitution2: "Single Substitution lookup 22 subtable" uni0E34.alt1
EndChar
StartChar: uni0E35
Encoding: 3637 3637 264
Width: 0
VWidth: 1533
Flags: W
HStem: 690 44<-558 -212> 833 46<-486.283 -281.071>
VStem: -199 122<843 941>
Fore
-385 879 m 0
 -312 879 -248 866 -199 843 c 1
 -199 941 l 1
 -77 941 l 1
 -77 690 l 1
 -693 690 l 1
 -689 734 -648 879 -385 879 c 0
-212 734 m 1
 -219 761 -256 833 -385 833 c 0
 -517 833 -551 761 -558 734 c 1
 -212 734 l 1
EndSplineSet
Substitution2: "Single Substitution lookup 22 subtable" uni0E35.alt1
Substitution2: "Single Substitution lookup 22 subtable" uni0E35.alt1
EndChar
StartChar: uni0E36
Encoding: 3638 3638 265
Width: 0
VWidth: 1533
Flags: W
HStem: 690 44<-558 -261> 718 49<-141.963 -83.6209> 833 46<-497.074 -340.243> 898 51<-197.794 -81.1088>
VStem: -63 58<786.558 879.569>
Fore
-140 949 m 0xb8
 -50 949 -5 893 -5 834 c 256
 -5 788 -37 718 -143 718 c 1x78
 -140 709 -138 699 -138 690 c 1
 -693 690 l 1
 -689 733 -653 879 -415 879 c 0
 -361 879 -314 870 -273 852 c 1
 -264 899 -223 949 -140 949 c 0xb8
-140 767 m 256
 -87 767 -63 803 -63 833 c 256
 -63 871 -96 898 -140 898 c 256
 -184 898 -216 871 -216 833 c 256
 -216 793 -182 767 -140 767 c 256
-261 734 m 1xb8
 -270 771 -310 833 -409 833 c 0
 -512 833 -549 773 -558 734 c 1
 -261 734 l 1xb8
EndSplineSet
Substitution2: "Single Substitution lookup 22 subtable" uni0E36.alt1
Substitution2: "Single Substitution lookup 22 subtable" uni0E36.alt1
EndChar
StartChar: uni0E37
Encoding: 3639 3639 266
Width: 0
VWidth: 1533
Flags: W
HStem: 690 44<-558 -212> 833 46<-486.133 -350.881 -360.946 -340.816>
VStem: -337 92<877 941> -199 122<843 941>
Fore
-693 690 m 1
 -689 733 -645 879 -386 879 c 0
 -359 879 -340 877 -337 877 c 1
 -337 941 l 1
 -245 941 l 1
 -245 860 l 1
 -231 856 -216 850 -199 843 c 1
 -199 941 l 1
 -77 941 l 1
 -77 690 l 1
 -693 690 l 1
-212 734 m 1
 -219 761 -256 833 -385 833 c 0
 -517 833 -551 761 -558 734 c 1
 -212 734 l 1
EndSplineSet
Substitution2: "Single Substitution lookup 22 subtable" uni0E37.alt1
Substitution2: "Single Substitution lookup 22 subtable" uni0E37.alt1
EndChar
StartChar: uni0E38
Encoding: 3640 3640 267
Width: 0
VWidth: 1533
Flags: W
HStem: -311 52<-286.775 -203.905> -113 59<-285.15 -183.826>
VStem: -362 55<-238.921 -135.022> -199 122<-423 -305> -161 84<-238 -137.205>
Fore
-222 -54 m 0xf0
 -130 -54 -77 -112 -77 -210 c 2xe8
 -77 -423 l 1
 -199 -423 l 1
 -199 -305 l 1
 -210 -309 -222 -311 -235 -311 c 0
 -303 -311 -362 -258 -362 -186 c 0
 -362 -123 -318 -54 -222 -54 c 0xf0
-235 -259 m 256
 -192 -259 -161 -227 -161 -187 c 256
 -161 -143 -196 -113 -235 -113 c 256
 -278 -113 -307 -148 -307 -187 c 256
 -307 -230 -275 -259 -235 -259 c 256
EndSplineSet
Substitution2: "Single Substitution lookup 21 subtable" a
Substitution2: "Single Substitution lookup 22 subtable" uni0E38.alt1
Substitution2: "Single Substitution lookup 21 subtable" a
Substitution2: "Single Substitution lookup 22 subtable" uni0E38.alt1
EndChar
StartChar: uni0E39
Encoding: 3641 3641 268
Width: 0
VWidth: 1533
Flags: W
HStem: -392 53<-276 -199> -311 52<-485.775 -403.116> -113 59<-484.188 -381.249>
VStem: -561 55<-238.921 -134.689> -360 84<-238 -137.205> -199 122<-339 -61>
Fore
-422 -54 m 0
 -329 -54 -276 -112 -276 -210 c 2
 -276 -339 l 1
 -199 -339 l 1
 -199 -61 l 1
 -77 -61 l 1
 -77 -392 l 1
 -399 -392 l 1
 -399 -305 l 1
 -409 -309 -421 -311 -434 -311 c 0
 -502 -311 -561 -258 -561 -186 c 0
 -561 -122 -516 -54 -422 -54 c 0
-434 -259 m 256
 -391 -259 -360 -227 -360 -187 c 256
 -360 -143 -395 -113 -434 -113 c 256
 -474 -113 -506 -144 -506 -187 c 256
 -506 -230 -474 -259 -434 -259 c 256
EndSplineSet
Substitution2: "Single Substitution lookup 21 subtable" b
Substitution2: "Single Substitution lookup 22 subtable" uni0E39.alt1
Substitution2: "Single Substitution lookup 21 subtable" b
Substitution2: "Single Substitution lookup 22 subtable" uni0E39.alt1
EndChar
StartChar: uni0E3A
Encoding: 3642 3642 269
Width: 0
VWidth: 1533
Flags: W
HStem: -222 168<-193.927 -82.0727>
VStem: -222 168<-193.927 -82.0727>
Fore
-138 -54 m 256
 -89 -54 -54 -93 -54 -138 c 256
 -54 -187 -93 -222 -138 -222 c 256
 -187 -222 -222 -183 -222 -138 c 256
 -222 -89 -183 -54 -138 -54 c 256
EndSplineSet
Substitution2: "Single Substitution lookup 21 subtable" c
Substitution2: "Single Substitution lookup 22 subtable" uni0E3A.alt1
Substitution2: "Single Substitution lookup 21 subtable" c
Substitution2: "Single Substitution lookup 22 subtable" uni0E3A.alt1
EndChar
StartChar: uni0E3F
Encoding: 3647 3647 270
Width: 852
VWidth: 1533
Flags: W
HStem: 0 61<201 271 328 408 465 589.763> 351 63<201 271 328 408> 652 64<201 271 328 408 465 543.137>
VStem: 74 127<61 351 414 652> 271 57<-140 0 61 351 414 652 716 805> 408 57<-140 0 61 350 419 649 716 805> 621 133<476.699 595.241> 682 141<137.023 273.085>
Fore
271 652 m 1xfc
 201 652 l 1
 201 414 l 1
 271 414 l 1
 271 652 l 1xfc
271 351 m 1
 201 351 l 1
 201 61 l 1
 271 61 l 1
 271 351 l 1
408 652 m 1
 328 652 l 1
 328 414 l 1
 408 414 l 1
 408 652 l 1
408 351 m 1
 328 351 l 1
 328 61 l 1
 408 61 l 1
 408 351 l 1
486 61 m 2
 590 61 682 117 682 201 c 0xfd
 682 311 576 342 465 350 c 1
 465 61 l 1
 486 61 l 2
465 419 m 1
 551 429 621 465 621 534 c 0xfe
 621 622 528 640 465 649 c 1
 465 419 l 1
619 388 m 1
 708 368 823 326 823 204 c 0xfd
 823 41 617 7 465 0 c 1
 465 -140 l 1
 408 -140 l 1
 408 0 l 1
 328 0 l 1
 328 -140 l 1
 271 -140 l 1
 271 0 l 1
 74 0 l 1
 74 716 l 1
 271 716 l 1
 271 805 l 1
 328 805 l 1
 328 716 l 1
 408 716 l 1
 408 805 l 1
 465 805 l 1
 465 716 l 1
 587 711 754 685 754 541 c 0
 754 459 680 412 619 388 c 1
EndSplineSet
EndChar
StartChar: uni0E40
Encoding: 3648 3648 271
Width: 470
VWidth: 1533
Flags: W
HStem: -11 54<232.295 343.481> 216 54<243.31 344.345> 593 20G<107 230>
VStem: 107 123<259 613> 107 94<75.2315 186.287> 374 58<72.1196 186.787>
Fore
288 270 m 0xf4
 365 270 432 214 432 129 c 0
 432 68 387 -11 281 -11 c 0
 174 -11 107 53 107 156 c 2xec
 107 613 l 1
 230 613 l 1
 230 259 l 1
 247 266 267 270 288 270 c 0xf4
288 43 m 256
 341 43 374 87 374 129 c 256
 374 175 339 216 288 216 c 256
 238 216 201 174 201 129 c 256
 201 79 243 43 288 43 c 256
EndSplineSet
EndChar
StartChar: uni0E41
Encoding: 3649 3649 272
Width: 847
VWidth: 1533
Flags: W
HStem: -11 54<232.295 343.481 601.559 713.598> 216 54<243.31 344.345 612.021 712.703> 593 20G<107 230 477 599>
VStem: 107 123<259 613> 107 94<75.2315 186.287> 374 58<72.1196 186.787> 477 122<259 613> 477 93<75.2315 185.102> 744 58<72.3085 186.395>
Fore
658 270 m 0xe680
 733 270 802 213 802 129 c 0
 802 68 758 -11 650 -11 c 0
 544 -11 477 53 477 156 c 2xe580
 477 613 l 1
 599 613 l 1
 599 259 l 1
 617 266 637 270 658 270 c 0xe680
288 270 m 0
 365 270 432 214 432 129 c 0
 432 68 387 -11 281 -11 c 0
 174 -11 107 53 107 156 c 2xec80
 107 613 l 1
 230 613 l 1
 230 259 l 1xf480
 247 266 267 270 288 270 c 0
658 43 m 256
 708 43 744 84 744 129 c 256
 744 178 703 216 658 216 c 256
 607 216 570 175 570 129 c 256xe580
 570 83 608 43 658 43 c 256
288 43 m 256
 341 43 374 87 374 129 c 256
 374 175 339 216 288 216 c 256
 238 216 201 174 201 129 c 256xec80
 201 79 243 43 288 43 c 256
EndSplineSet
EndChar
StartChar: uni0E42
Encoding: 3650 3650 273
Width: 493
VWidth: 1533
Flags: W
HStem: -11 54<247.559 360.198> 216 54<257.65 358.277> 879 52<8 123> 971 58<182.07 314.008> 1010 63<38.5528 166.301>
VStem: 123 122<259 879> 123 93<75.2315 185.102> 389 59<71.6358 186.606>
Fore
304 270 m 0xed
 378 270 448 214 448 129 c 0
 448 66 401 -11 296 -11 c 0
 190 -11 123 53 123 156 c 2xeb
 123 879 l 1
 -126 879 l 1
 -118 986 -61 1073 77 1073 c 0xed
 154 1073 188 1029 239 1029 c 0xf5
 273 1029 285 1058 288 1073 c 1
 432 1073 l 1xed
 418 998 349 971 285 971 c 0xf5
 204 971 171 1010 95 1010 c 0
 47 1010 13 977 8 931 c 1
 245 931 l 1
 245 259 l 1
 262 266 282 270 304 270 c 0xed
304 43 m 256
 348 43 389 79 389 129 c 256
 389 178 349 216 304 216 c 256
 253 216 216 175 216 129 c 256
 216 83 254 43 304 43 c 256
EndSplineSet
EndChar
StartChar: uni0E43
Encoding: 3651 3651 274
Width: 493
VWidth: 1533
Flags: W
HStem: -11 54<247.559 360.198> 216 54<257.65 358.277> 754 52<-5.04621 105.379> 971 52<29.5824 35.5 32.5412 104.632> 1050 54<36.094 193.303>
VStem: -107 73<834.044 943.086> 123 122<259 727.141> 123 93<75.2315 185.102> 132 58<833.379 943.945> 258 113<865.633 986.236> 389 59<71.6358 186.606>
Fore
304 270 m 0xfe60
 378 270 448 214 448 129 c 0
 448 66 401 -11 296 -11 c 0
 190 -11 123 53 123 156 c 2xfd60
 123 664 l 2xfe60
 123 737 181 748 236 833 c 0
 251 855 258 884 258 920 c 0
 258 965 220 1050 118 1050 c 0
 67 1050 35 1030 28 1023 c 1
 33 1023 38 1024 43 1024 c 0
 117 1024 190 970 190 889 c 256xfce0
 190 822 130 754 49 754 c 256
 -27 754 -107 807 -107 908 c 0
 -107 999 -28 1104 130 1104 c 0
 284 1104 371 1024 371 915 c 0
 371 851 332 837 265 760 c 0
 252 745 245 726 245 704 c 2
 245 259 l 1
 262 266 282 270 304 270 c 0xfe60
49 806 m 256
 93 806 132 839 132 889 c 0xfce0
 132 933 97 971 49 971 c 256
 1 971 -34 933 -34 889 c 0
 -34 841 5 806 49 806 c 256
304 43 m 256
 348 43 389 79 389 129 c 256
 389 178 349 216 304 216 c 256
 253 216 216 175 216 129 c 256xfd60
 216 83 254 43 304 43 c 256
EndSplineSet
EndChar
StartChar: uni0E44
Encoding: 3652 3652 275
Width: 493
VWidth: 1533
Flags: W
HStem: -11 54<247.559 360.198> 216 54<257.65 358.277>
VStem: 123 122<259 946> 123 93<75.2315 185.102> 389 59<71.6358 186.606>
Fore
304 270 m 0xe8
 378 270 448 214 448 129 c 0
 448 66 401 -11 296 -11 c 0
 190 -11 123 53 123 156 c 2xd8
 123 946 l 1
 2 845 l 1
 -44 911 -124 971 -224 992 c 1
 -110 1053 l 1
 -51 1028 -6 978 15 934 c 1
 109 1009 l 1
 245 1009 l 1
 245 259 l 1
 262 266 282 270 304 270 c 0xe8
304 43 m 256
 348 43 389 79 389 129 c 256
 389 178 349 216 304 216 c 256
 253 216 216 175 216 129 c 256
 216 83 254 43 304 43 c 256
EndSplineSet
EndChar
StartChar: uni0E45
Encoding: 3653 3653 276
Width: 640
VWidth: 1533
Flags: W
HStem: -199 21G<442 564> 570 54<213.846 383.323>
VStem: 442 122<-199 504.923>
Fore
15 419 m 1
 26 479 72 624 299 624 c 0
 430 624 564 579 564 400 c 2
 564 -199 l 1
 442 -199 l 1
 442 426 l 2
 442 492 413 570 299 570 c 0
 173 570 144 464 141 419 c 1
 15 419 l 1
EndSplineSet
EndChar
StartChar: uni0E46
Encoding: 3654 3654 277
Width: 659
VWidth: 1533
Flags: W
HStem: -199 21G<460 583> 248 43<156.102 260.08> 442 44<167.754 261.016> 569 55<176.541 278.503 347.622 441.313>
VStem: 46 86<332.337 473.836> 284 52<314.178 418.57> 460 123<-199 552.441>
Fore
423 624 m 0
 499 624 583 591 583 460 c 2
 583 -199 l 1
 460 -199 l 1
 460 475 l 2
 460 525 446 569 396 569 c 0
 356 569 337 538 330 515 c 1
 297 515 l 1
 280 559 256 569 228 569 c 0
 174 569 150 518 150 472 c 1
 166 479 185 486 209 486 c 0
 285 486 336 427 336 366 c 0
 336 300 278 248 205 248 c 0
 141 248 46 289 46 437 c 0
 46 530 99 624 218 624 c 0
 276 624 304 592 314 575 c 1
 323 587 358 624 423 624 c 0
209 291 m 256
 251 291 284 327 284 366 c 256
 284 409 248 442 209 442 c 256
 165 442 132 406 132 366 c 256
 132 327 166 291 209 291 c 256
EndSplineSet
EndChar
StartChar: uni0E47
Encoding: 3655 3655 278
Width: 0
VWidth: 1533
Flags: W
HStem: 690 42<-333.964 -239.835> 690 63<-504.69 -440.669> 848 43<-256.562 -177.248> 908 47<-420.072 -231.112>
VStem: -627 101<762.715 870.738> -310 49<773.256 842.477> -172 55<772.857 843.198>
Fore
-311 955 m 2x7e
 -250 955 -210 969 -210 1026 c 1
 -103 1026 l 1
 -103 955 -149 908 -310 908 c 2
 -371 908 l 2
 -416 908 -453 901 -482 886 c 0
 -511 872 -526 848 -526 813 c 0
 -526 759 -490 753 -474 753 c 0x7e
 -463 753 -424 757 -419 799 c 1
 -368 799 l 1
 -362 765 -316 732 -260 732 c 0
 -250 732 -243 733 -239 734 c 1
 -286 746 -310 780 -310 811 c 0
 -310 843 -284 891 -215 891 c 256
 -153 891 -117 851 -117 799 c 0
 -117 712 -206 690 -259 690 c 0xbe
 -336 690 -378 726 -388 736 c 1
 -409 711 -444 690 -492 690 c 0
 -543 690 -627 715 -627 816 c 0
 -627 865 -607 900 -568 922 c 0
 -529 944 -478 955 -415 955 c 2
 -311 955 l 2x7e
-216 768 m 256
 -183 768 -172 792 -172 808 c 256
 -172 824 -183 848 -216 848 c 256
 -243 848 -261 831 -261 808 c 256
 -261 785 -243 768 -216 768 c 256
EndSplineSet
Substitution2: "Single Substitution lookup 22 subtable" uni0E47.alt1
Substitution2: "Single Substitution lookup 22 subtable" uni0E47.alt1
EndChar
StartChar: uni0E48
Encoding: 3656 3656 279
Width: 0
VWidth: 1533
Flags: W
HStem: 987 190<-184 -61 -184 -61 -184 -184>
VStem: -184 123<987 1177>
Fore
-184 987 m 1
 -184 1177 l 1
 -61 1177 l 1
 -61 987 l 1
 -184 987 l 1
EndSplineSet
Substitution2: "Single Substitution lookup 22 subtable" uni0E48.alt2
Substitution2: "Single Substitution lookup 22 subtable" uni0E48.alt2
EndChar
StartChar: uni0E49
Encoding: 3657 3657 280
Width: 0
VWidth: 1533
Flags: W
HStem: 981 252<-301 -198 -301 -255 -255 -255> 1064 41<-296.901 -233.273> 1191 42<-297.776 -215.074>
VStem: -350 46<1122.31 1184.28> -209 53<1112.4 1184.49> -64 110<1152.89 1210>
Fore
-190 1046 m 1x9c
 -116 1079 -69 1162 -64 1210 c 1
 46 1210 l 1
 32 1132 -73 995 -301 981 c 1x9c
 -279 999 -242 1040 -233 1067 c 1
 -239 1065 -247 1064 -256 1064 c 0x5c
 -311 1064 -350 1100 -350 1147 c 0
 -350 1185 -319 1233 -255 1233 c 256
 -198 1233 -156 1194 -156 1136 c 0
 -156 1123 -158 1092 -190 1046 c 1x9c
-256 1105 m 0x7c
 -227 1105 -209 1128 -209 1148 c 0
 -209 1174 -230 1191 -256 1191 c 0
 -285 1191 -304 1174 -304 1148 c 0
 -304 1133 -292 1105 -256 1105 c 0x7c
EndSplineSet
Substitution2: "Single Substitution lookup 22 subtable" uni0E49.alt2
Substitution2: "Single Substitution lookup 22 subtable" uni0E49.alt2
EndChar
StartChar: uni0E4A
Encoding: 3658 3658 281
Width: 0
VWidth: 1533
Flags: W
HStem: 981 42<-305.426 -232.955 -35 4.90094> 987 227<-344.01 -223 -279 -261 54 54> 1105 40<-306.2 -232.749> 1177 42<-304.675 -210.508 -164.439 -102.958>
VStem: -399 88<1029.06 1133.8> -227 45<1028.88 1098.83> -87 85<1044.67 1162.17> 32 85<1047.94 1209.69>
Fore
32 1115 m 0xbf
 32 1194 42 1205 54 1214 c 1
 144 1214 l 1
 131 1205 117 1190 117 1112 c 0
 117 1012 30 987 -38 987 c 2
 -94 987 l 1x4f
 -118 1007 l 1
 -92 1036 -87 1068 -87 1109 c 0
 -87 1145 -112 1177 -143 1177 c 0
 -166 1177 -180 1166 -187 1151 c 1
 -193 1151 l 1
 -203 1169 -228 1177 -251 1177 c 0
 -292 1177 -312 1153 -316 1135 c 1
 -306 1137 -296 1145 -268 1145 c 0
 -218 1145 -182 1110 -182 1065 c 0
 -182 1020 -223 981 -279 981 c 0
 -340 981 -399 1023 -399 1102 c 0
 -399 1150 -363 1219 -261 1219 c 0
 -218 1219 -198 1201 -190 1191 c 1
 -166 1215 -137 1219 -115 1219 c 0
 -67 1219 -2 1198 -2 1112 c 0
 -2 1079 -9 1063 -35 1029 c 1
 -12 1029 32 1041 32 1115 c 0xbf
-270 1023 m 256xaf
 -246 1023 -227 1042 -227 1064 c 256
 -227 1088 -248 1105 -270 1105 c 256
 -294 1105 -311 1086 -311 1064 c 256
 -311 1040 -292 1023 -270 1023 c 256xaf
EndSplineSet
Substitution2: "Single Substitution lookup 22 subtable" uni0E4A.alt2
Substitution2: "Single Substitution lookup 22 subtable" uni0E4A.alt2
EndChar
StartChar: uni0E4B
Encoding: 3659 3659 282
Width: 0
VWidth: 1533
Flags: W
HStem: 1084 54<-284 -178 -67 38>
VStem: -178 111<987 1084 1138 1234>
Fore
-67 1084 m 1
 -67 987 l 1
 -178 987 l 1
 -178 1084 l 1
 -284 1084 l 1
 -284 1138 l 1
 -178 1138 l 1
 -178 1234 l 1
 -67 1234 l 1
 -67 1138 l 1
 38 1138 l 1
 38 1084 l 1
 -67 1084 l 1
EndSplineSet
Substitution2: "Single Substitution lookup 22 subtable" uni0E4B.alt2
Substitution2: "Single Substitution lookup 22 subtable" uni0E4B.alt2
EndChar
StartChar: uni0E4C
Encoding: 3660 3660 283
Width: 0
VWidth: 1533
Flags: W
HStem: 918 42<-245.112 -159.792>
VStem: -310 55<969.456 1055.29> -149 48<970.538 1054.86>
Fore
-204 918 m 0
 -278 918 -310 976 -310 1018 c 0
 -310 1071 -277 1107 -212 1125 c 2
 -178 1136 l 2
 -111 1157 -110 1190 -110 1204 c 1
 -12 1184 l 1
 -12 1131 -90 1106 -150 1096 c 1
 -116 1079 -101 1041 -101 1017 c 0
 -101 969 -134 918 -204 918 c 0
-204 960 m 0
 -175 960 -149 981 -149 1012 c 256
 -149 1040 -172 1066 -204 1066 c 0
 -234 1066 -255 1039 -255 1012 c 256
 -255 981 -232 960 -204 960 c 0
EndSplineSet
Substitution2: "Single Substitution lookup 22 subtable" uni0E4C.alt2
Substitution2: "Single Substitution lookup 22 subtable" uni0E4C.alt2
EndChar
StartChar: uni0E4D
Encoding: 3661 3661 284
Width: 0
VWidth: 1533
Flags: W
HStem: 690 49<-180.279 -66.4102> 895 53<-180.279 -66.4102>
VStem: -259 52<765.171 869.426> -41 52<765.389 868.996>
Fore
-124 948 m 256
 -45 948 11 883 11 819 c 256
 11 754 -45 690 -124 690 c 256
 -204 690 -259 753 -259 819 c 256
 -259 885 -204 948 -124 948 c 256
-124 739 m 256
 -77 739 -41 775 -41 817 c 256
 -41 859 -77 895 -124 895 c 256
 -171 895 -207 859 -207 817 c 256
 -207 775 -171 739 -124 739 c 256
EndSplineSet
Substitution2: "Single Substitution lookup 22 subtable" uni0E4D.alt1
Substitution2: "Single Substitution lookup 22 subtable" uni0E4D.alt1
EndChar
StartChar: uni0E4E
Encoding: 3662 3662 285
Width: 0
VWidth: 1533
Flags: W
HStem: 676 36<-280.501 -220.86 -224.344 -217.375 -217.375 -204> 978 39<-223.234 -147.285 -152.415 -142.154 -142.154 -124>
VStem: -363 62<720.632 801.894> -293 55<883.928 962.204>
Fore
-244 859 m 1
 -266 866 -293 885 -293 923 c 0
 -293 979 -262 1017 -178 1017 c 0
 -153 1017 -131 1015 -110 1010 c 1
 -124 975 l 1
 -131 977 -139 978 -161 978 c 0
 -199 978 -238 965 -238 913 c 0
 -238 896 -234 868 -173 863 c 1
 -184 839 l 1
 -232 834 -301 814 -301 750 c 0
 -301 718 -261 712 -232 712 c 0
 -220 712 -208 713 -192 713 c 1
 -204 681 l 1
 -225 678 -245 676 -265 676 c 0
 -312 676 -363 689 -363 744 c 0
 -363 778 -356 844 -244 859 c 1
EndSplineSet
Substitution2: "Single Substitution lookup 22 subtable" uni0E4E.alt1
Substitution2: "Single Substitution lookup 22 subtable" uni0E4E.alt1
EndChar
StartChar: uni0E4F
Encoding: 3663 3663 286
Width: 766
VWidth: 1533
Flags: W
HStem: -8 46<282.399 485.325> 88 50<305.12 467.348> 474 50<304.743 467.912> 575 46<280.411 486.722>
VStem: 69 46<202.434 408.832> 169 46<227.782 386.966> 551 46<224.274 389.502> 652 46<207.142 408.234>
Fore
383 621 m 256
 562 621 698 476 698 307 c 256
 698 118 543 -8 383 -8 c 256
 214 -8 69 128 69 307 c 256
 69 478 207 621 383 621 c 256
383 38 m 0
 525 38 652 154 652 307 c 256
 652 453 531 575 383 575 c 256
 237 575 115 454 115 307 c 256
 115 155 240 38 383 38 c 0
390 524 m 0
 506 524 597 410 597 307 c 0
 597 201 504 88 394 88 c 0
 288 88 169 179 169 307 c 0
 169 428 279 524 390 524 c 0
551 307 m 0
 551 391 486 474 388 474 c 0
 301 474 215 408 215 307 c 0
 215 206 302 138 387 138 c 0
 482 138 551 219 551 307 c 0
EndSplineSet
EndChar
StartChar: uni0E50
Encoding: 3664 3664 287
Width: 781
VWidth: 1533
Flags: W
HStem: -11 52<299.19 482.169> 419 52<299.277 481.947>
VStem: 74 124<141.486 318.553> 583 124<141.266 318.734>
Fore
391 471 m 0
 574 471 707 375 707 230 c 256
 707 85 574 -11 391 -11 c 0
 204 -11 74 85 74 230 c 256
 74 375 204 471 391 471 c 0
391 41 m 256
 500 41 583 117 583 230 c 0
 583 343 499 419 391 419 c 256
 274 419 198 333 198 230 c 0
 198 118 283 41 391 41 c 256
EndSplineSet
EndChar
StartChar: uni0E51
Encoding: 3665 3665 288
Width: 781
VWidth: 1533
Flags: W
HStem: -51 26<410.532 469.712> -2 54<260.408 364.799> 61 48<321.578 374> 267 46<321.365 427.452> 419 52<300.735 480.663>
VStem: 74 124<129.86 318.73> 241 53<134.81 240.993> 454 61<135.409 240.036> 583 124<133.128 317.064>
Fore
391 471 m 256
 573 471 707 371 707 230 c 0
 707 171 680 3 417 -51 c 1
 350 -25 l 1
 568 19 583 177 583 225 c 0
 583 343 494 419 391 419 c 256
 275 419 198 336 198 227 c 0
 198 124 250 52 328 52 c 0
 353 52 355 54 374 61 c 1
 299 61 241 119 241 187 c 256
 241 249 287 313 374 313 c 0
 463 313 515 253 515 176 c 0
 515 81 430 -2 314 -2 c 0
 183 -2 74 91 74 230 c 256
 74 375 211 471 391 471 c 256
374 109 m 256
 419 109 454 146 454 187 c 256
 454 232 415 267 374 267 c 256
 329 267 294 228 294 187 c 256
 294 142 333 109 374 109 c 256
EndSplineSet
EndChar
StartChar: uni0E52
Encoding: 3666 3666 289
Width: 781
VWidth: 1533
Flags: W
HStem: 0 54<156 616> 104 43<312.817 416.664> 297 45<323.705 417.203> 415 56<330.011 434.556 504.326 597.817> 602 20G<19.5172 84.5>
VStem: 34 122<54 505.759> 202 86<190.098 313.857> 440 52<170.178 274.525> 616 123<54 395.721>
Fore
580 471 m 0
 654 471 739 438 739 307 c 2
 739 0 l 1
 34 0 l 1
 34 480 l 2
 34 501 27 557 -46 564 c 1
 54 622 l 1
 115 616 156 579 156 514 c 2
 156 54 l 1
 616 54 l 1
 616 322 l 2
 616 368 603 415 552 415 c 0
 512 415 494 383 486 362 c 1
 454 362 l 1
 436 404 413 415 385 415 c 0
 333 415 307 379 307 328 c 1
 323 336 342 342 365 342 c 0
 441 342 492 283 492 222 c 0
 492 156 434 104 362 104 c 0
 291 104 202 153 202 293 c 0
 202 364 250 471 374 471 c 0
 434 471 464 433 471 422 c 1
 480 434 515 471 580 471 c 0
365 147 m 256
 409 147 440 183 440 222 c 256
 440 266 405 297 365 297 c 256
 321 297 288 262 288 222 c 256
 288 183 322 147 365 147 c 256
EndSplineSet
EndChar
StartChar: uni0E53
Encoding: 3667 3667 290
Width: 781
VWidth: 1533
Flags: W
HStem: -11 48<204.129 321.287> 224 47<213.876 321.988> 415 56<236.947 341.798 423.969 534.841>
VStem: 61 121<183.781 340.117> 356 56<70.7659 189.8> 560 122<0 387.045>
Fore
506 471 m 0
 579 471 682 436 682 297 c 2
 682 0 l 1
 560 0 l 1
 560 308 l 2
 560 359 544 415 481 415 c 0
 440 415 413 392 403 360 c 1
 359 360 l 1
 353 388 332 415 291 415 c 0
 226 415 182 340 182 279 c 0
 182 271 183 263 184 255 c 1
 197 263 231 271 262 271 c 0
 350 271 412 210 412 130 c 0
 412 55 353 -11 261 -11 c 0
 181 -11 61 35 61 235 c 0
 61 348 134 471 270 471 c 0
 342 471 375 439 385 422 c 1
 395 433 435 471 506 471 c 0
262 37 m 256
 316 37 356 80 356 130 c 256
 356 184 313 224 262 224 c 256
 212 224 169 184 169 130 c 256
 169 77 213 37 262 37 c 256
EndSplineSet
EndChar
StartChar: uni0E54
Encoding: 3668 3668 291
Width: 781
VWidth: 1533
Flags: W
HStem: -11 65<247.443 402.551> 20 40<523.911 648.525> 101 54<480.072 538.604> 317 49<429.869 539.931> 408 52<265.928 564.917> 593 20G<616 740>
VStem: 38 128<139.182 316.909> 331 72<181.532 291.14> 566 58<181.282 290.309> 618 124<510.607 596.738 595 598.477 598.477 613>
Fore
475 460 m 2xbf80
 583 460 618 520 618 584 c 0
 618 593 617 603 616 613 c 1
 739 613 l 1
 741 601 742 589 742 577 c 0
 742 476 673 408 463 408 c 2
 380 408 l 2
 224 408 166 319 166 235 c 0
 166 114 243 54 334 54 c 0xbf40
 369 54 398 57 422 63 c 1
 366 97 331 162 331 221 c 0
 331 324 408 366 483 366 c 0
 566 366 624 310 624 236 c 0
 624 155 558 101 480 101 c 1
 519 78 576 60 719 60 c 1x7f80
 673 -11 l 1xbf80
 636 5 582 20 532 20 c 0x7f80
 441 20 401 -11 304 -11 c 0
 146 -11 38 64 38 228 c 0
 38 396 180 460 337 460 c 2
 475 460 l 2xbf80
484 155 m 256
 531 155 566 192 566 236 c 256x3f80
 566 280 531 317 484 317 c 256
 441 317 403 284 403 236 c 256
 403 187 442 155 484 155 c 256
EndSplineSet
EndChar
StartChar: uni0E55
Encoding: 3669 3669 292
Width: 781
VWidth: 1533
Flags: W
HStem: -11 65<247.583 402.551> 20 40<523.911 648.525> 101 54<480.072 538.604> 317 49<429.869 539.931> 400 52<289.611 412.751 475 565.243> 592 46<291.115 411.466>
VStem: 38 128<136.275 311.245> 204 63<470.382 569.637> 331 72<181.532 291.14> 435 63<469.897 569.637> 566 58<181.282 290.309> 618 124<504.759 596.738 595 598.477 598.477 613>
Fore
484 452 m 0xbfe0
 591 452 618 529 618 584 c 0
 618 593 617 603 616 613 c 1
 739 613 l 1
 741 601 742 589 742 577 c 0
 742 471 669 400 463 400 c 2
 380 400 l 2
 256 400 166 342 166 230 c 0
 166 89 265 54 334 54 c 0xbfd0
 369 54 398 57 422 63 c 1
 366 97 331 162 331 221 c 0
 331 324 408 366 483 366 c 0
 566 366 624 310 624 236 c 0
 624 155 558 101 480 101 c 1
 519 78 576 60 719 60 c 1x7fe0
 673 -11 l 1xbfe0
 636 5 582 20 532 20 c 0x7fe0
 441 20 401 -11 304 -11 c 0
 149 -11 38 68 38 235 c 0
 38 365 142 428 242 443 c 1
 218 459 204 488 204 518 c 0
 204 566 240 638 351 638 c 256
 465 638 498 566 498 518 c 0
 498 478 479 456 475 452 c 1
 484 452 l 0xbfe0
351 448 m 256
 400 448 435 477 435 520 c 256
 435 553 409 592 351 592 c 256
 293 592 267 553 267 520 c 256
 267 477 303 448 351 448 c 256
484 155 m 256
 531 155 566 192 566 236 c 256x3fe0
 566 280 531 317 484 317 c 256
 441 317 403 284 403 236 c 256
 403 187 442 155 484 155 c 256
EndSplineSet
EndChar
StartChar: uni0E56
Encoding: 3670 3670 293
Width: 781
VWidth: 1533
Flags: W
HStem: -11 60<282.973 487.309> 267 50<198.05 299.268> 422 52<314.503 488.381> 604 20G<68.8571 122.5>
VStem: 115 63<144.545 247.273> 319 60<145.08 247.003> 593 125<152.13 323.691>
Fore
405 474 m 0
 637 474 718 346 718 236 c 0
 718 88 580 -11 397 -11 c 0
 218 -11 115 79 115 190 c 0
 115 270 180 317 248 317 c 0
 335 317 379 256 379 198 c 0
 379 143 347 86 273 75 c 1
 304 59 343 49 394 49 c 0
 511 49 593 136 593 235 c 0
 593 344 514 422 389 422 c 0
 286 422 221 369 202 340 c 1
 158 340 l 1
 130 442 56 527 -11 561 c 1
 106 624 l 1
 139 601 189 534 209 420 c 1
 300 473 364 474 405 474 c 0
248 126 m 256
 285 126 319 154 319 196 c 256
 319 233 291 267 248 267 c 256
 210 267 178 237 178 196 c 256
 178 155 210 126 248 126 c 256
EndSplineSet
EndChar
StartChar: uni0E57
Encoding: 3671 3671 294
Width: 781
VWidth: 1533
Flags: W
HStem: -11 49<142.486 258.376> 225 46<152.67 258.445> 415 56<175.848 282.095 363.003 458.547> 602 20G<764.5 801.312>
VStem: 0 121<183.57 340.117> 294 57<73.0978 190.389> 503 123<119.602 359.163> 664 119<266.621 503.107> 676 120<148.649 454.433>
Fore
676 259 m 0xfe80
 676 346 664 381 664 463 c 0
 664 610 758 620 771 622 c 1
 868 558 l 1
 791 549 783 480 783 454 c 0xff
 783 360 796 378 796 265 c 0
 796 120 707 -0 580 0 c 2
 481 0 l 1
 454 31 l 1
 494 77 503 161 503 244 c 0
 503 342 467 415 414 415 c 0
 371 415 350 382 342 360 c 1
 297 360 l 1
 295 373 284 415 230 415 c 0
 165 415 121 340 121 279 c 0
 121 271 122 263 123 255 c 1
 139 264 174 271 201 271 c 0
 288 271 351 210 351 130 c 0
 351 54 290 -11 199 -11 c 0
 119 -11 -0 34 0 235 c 0
 0 348 72 471 209 471 c 0
 281 471 313 439 324 422 c 1
 334 433 374 471 443 471 c 0
 516 471 626 427 626 247 c 0
 626 148 591 78 566 52 c 1
 595 59 621 80 643 113 c 0
 665 146 676 195 676 259 c 0xfe80
201 38 m 256
 254 38 294 83 294 132 c 256
 294 185 250 225 201 225 c 256
 148 225 107 181 107 132 c 256
 107 79 152 38 201 38 c 256
EndSplineSet
EndChar
StartChar: uni0E58
Encoding: 3672 3672 295
Width: 781
VWidth: 1533
Flags: W
HStem: -11 65<240.993 338.695 459.489 569.959> 64 48<532.085 583> 265 49<532.088 635.036> 408 52<292.986 368 368 580.917> 593 20G<632 755>
VStem: 69 127<106.312 316.937> 451 56<135.743 240.142> 634 123<511.223 599.5 599.5 599.5 599.5 613> 661 67<136.929 240.163>
Fore
394 57 m 1xfe80
 344 -5 302 -11 267 -11 c 0
 138 -11 69 79 69 218 c 0
 69 391 202 460 368 460 c 2
 491 460 l 2
 599 460 634 522 634 586 c 0
 634 595 633 604 632 613 c 1
 754 613 l 1
 756 601 757 589 757 577 c 0xff
 757 476 688 408 478 408 c 2
 411 408 l 2
 254 408 196 332 196 219 c 0
 196 84 253 54 291 54 c 0
 340 54 363 107 368 132 c 1
 409 132 l 1
 425 90 477 51 535 51 c 0
 559 51 562 56 583 64 c 1
 504 64 451 124 451 189 c 0
 451 257 504 314 584 314 c 0
 657 314 728 270 728 175 c 0
 728 74 658 -11 544 -11 c 0
 473 -11 425 20 394 57 c 1xfe80
584 112 m 0
 624 112 661 143 661 189 c 0xfe80
 661 228 627 265 584 265 c 0
 540 265 507 228 507 189 c 0
 507 144 542 112 584 112 c 0
EndSplineSet
EndChar
StartChar: uni0E59
Encoding: 3673 3673 296
Width: 781
VWidth: 1533
Flags: W
HStem: -8 63<194.509 292.325> 66 43<252.427 301> 258 49<250.727 355.553> 400 66<619.447 703.393> 419 52<214.403 353.615> 593 20G<739 868.5>
VStem: 8 124<128.631 330.328> 176 52<131.834 235.204> 379 58<131.013 233.586> 752 117<484.581 587.47>
Fore
752 508 m 0xf7c0
 752 529 750 573 739 613 c 1
 868 613 l 1
 869 606 869 600 869 593 c 0
 869 497 815 392 728 343 c 1
 719 363 693 400 661 400 c 0xf7c0
 613 400 602 348 602 312 c 0
 602 222 662 80 733 0 c 1
 592 0 l 1
 497 117 501 312 378 396 c 0
 356 412 329 419 296 419 c 0
 187 419 132 328 132 235 c 0
 132 89 210 55 262 55 c 0
 277 55 295 61 301 66 c 1
 218 66 176 128 176 187 c 256
 176 251 227 307 302 307 c 0
 385 307 437 254 437 176 c 0
 437 90 368 -8 248 -8 c 0
 115 -8 8 88 8 233 c 0
 8 328 59 471 296 471 c 0xefc0
 441 471 510 411 538 376 c 1
 548 417 581 466 645 466 c 0
 685 466 717 447 734 423 c 1
 746 445 752 473 752 508 c 0xf7c0
304 109 m 256
 346 109 379 143 379 182 c 256
 379 225 343 258 304 258 c 256
 260 258 228 222 228 182 c 256
 228 143 261 109 304 109 c 256
EndSplineSet
EndChar
StartChar: uni0E5A
Encoding: 3674 3674 297
Width: 939
VWidth: 1533
Flags: W
HStem: 0 21G<481 604 741 863> 331 52<245.105 347.206> 572 49<116.526 228.211>
VStem: 34 55<433.603 545.093> 256 57<434.061 543.448> 481 123<0 343 402 434> 741 122<0 434 546.359 596.652>
Fore
604 402 m 1
 683 442 732 549 742 621 c 1
 778 621 807 615 830 604 c 0
 852 593 863 571 863 538 c 2
 863 0 l 1
 741 0 l 1
 741 434 l 1
 724 409 680 365 604 343 c 1
 604 0 l 1
 481 0 l 1
 481 434 l 1
 454 391 367 331 264 331 c 0
 128 331 34 396 34 494 c 0
 34 574 107 621 172 621 c 0
 239 621 313 577 313 494 c 0
 313 453 284 407 245 385 c 1
 246 384 254 383 265 383 c 0
 389 383 461 507 483 621 c 1
 519 621 548 615 570 604 c 0
 593 593 604 571 604 538 c 2
 604 402 l 1
172 406 m 256
 221 406 256 445 256 489 c 256
 256 533 221 572 172 572 c 256
 122 572 89 533 89 489 c 0
 89 445 122 406 172 406 c 256
EndSplineSet
EndChar
StartChar: uni0E5B
Encoding: 3675 3675 298
Width: 1320
VWidth: 1533
Flags: W
HStem: 32 63<257.425 440.458> 150 49<303.004 420.315> 196 68<1040 1051.48 1051.48 1151.08> 386 51<301.428 407.496> 511 65<237.464 383.273>
VStem: 38 115<205.069 410.597> 205 63<234.243 352.189> 455 80<242.63 353.557>
Fore
340 95 m 0xdf
 497 95 607 231 607 466 c 1
 644 437 686 394 754 274 c 1
 747 457 l 1
 817 406 870 324 891 285 c 1
 886 434 l 1
 895 429 985 389 1040 264 c 1
 1047 264 1055 263 1063 263 c 0
 1119 263 1228 279 1305 308 c 1
 1283 278 l 1
 1255 258 1175 204 1009 196 c 1xbf
 976 269 972 279 955 296 c 1
 923 163 l 1
 903 156 l 1
 882 197 848 241 813 276 c 1
 779 126 l 1
 756 118 l 1
 725 205 691 250 665 271 c 1
 625 148 483 32 340 32 c 0
 180 32 38 140 38 302 c 0
 38 454 153 576 320 576 c 0
 467 576 535 463 535 328 c 0
 535 239 468 150 360 150 c 0
 273 150 205 220 205 294 c 256
 205 371 278 437 360 437 c 0
 384 437 407 432 429 422 c 1
 413 462 384 511 317 511 c 0
 186 511 153 383 153 302 c 0
 153 194 228 95 340 95 c 0xdf
362 199 m 256xdf
 415 199 455 244 455 293 c 0
 455 349 411 386 362 386 c 256
 313 386 268 349 268 293 c 0
 268 240 313 199 362 199 c 256xdf
EndSplineSet
EndChar
StartChar: zerowidthnonjoiner
Encoding: 8204 8204 299
Width: 0
VWidth: 1533
Flags: W
HStem: -454 807<-61 63 -61 63 -61 -61>
VStem: -61 124<-454 353>
Fore
-61 -454 m 1
 -61 353 l 1
 63 353 l 1
 63 -454 l 1
 -61 -454 l 1
EndSplineSet
EndChar
StartChar: zerowidthjoiner
Encoding: 8205 8205 300
Width: 0
VWidth: 1533
Flags: W
VStem: -61 124<-454 271>
Fore
113 230 m 1
 63 278 l 1
 63 -454 l 1
 -61 -454 l 1
 -61 271 l 1
 -104 230 l 1
 -143 268 l 1
 -34 376 l 1
 -143 484 l 1
 -104 523 l 1
 5 414 l 1
 113 523 l 1
 150 484 l 1
 43 376 l 1
 150 268 l 1
 113 230 l 1
EndSplineSet
EndChar
StartChar: lefttorightmark
Encoding: 8206 8206 301
Width: 0
VWidth: 1533
Flags: W
HStem: 279 78<63 202>
VStem: -61 124<-454 279>
Fore
173 173 m 1
 133 212 l 1
 202 279 l 1
 63 279 l 1
 63 -454 l 1
 -61 -454 l 1
 -61 357 l 1
 204 357 l 1
 133 426 l 1
 173 465 l 1
 317 319 l 1
 173 173 l 1
EndSplineSet
EndChar
StartChar: righttoleftmark
Encoding: 8207 8207 302
Width: 0
VWidth: 1533
Flags: W
HStem: 279 78<-202 -63>
VStem: -319 380<319 357 319 319> -63 124<-454 279>
Fore
-63 -454 m 1xa0
 -63 279 l 1xa0
 -202 279 l 1
 -135 212 l 1
 -173 173 l 1
 -319 319 l 1
 -173 465 l 1
 -135 426 l 1
 -204 357 l 1
 61 357 l 1xc0
 61 -454 l 1
 -63 -454 l 1xa0
EndSplineSet
EndChar
StartChar: endash
Encoding: 8211 8211 303
Width: 594
VWidth: 1533
Flags: W
HStem: 261 64<0 595>
Fore
0 261 m 1
 0 325 l 1
 595 325 l 1
 595 261 l 1
 0 261 l 1
EndSplineSet
EndChar
StartChar: emdash
Encoding: 8212 8212 304
Width: 1154
VWidth: 1533
Flags: W
HStem: 261 64<0 1154>
Fore
0 261 m 1
 0 325 l 1
 1154 325 l 1
 1154 261 l 1
 0 261 l 1
EndSplineSet
EndChar
StartChar: quoteleft
Encoding: 8216 8216 305
Width: 191
VWidth: 1533
Flags: W
HStem: 503 137<79.5049 147.776>
VStem: 17 60<636 676.893>
Fore
101 640 m 0
 139 640 169 607 169 576 c 0
 169 553 154 503 92 503 c 0
 32 503 17 559 17 596 c 0
 17 656 56 734 132 768 c 1
 155 739 l 1
 129 728 82 693 77 636 c 1
 86 638 94 640 101 640 c 0
EndSplineSet
EndChar
StartChar: quoteright
Encoding: 8217 8217 306
Width: 191
VWidth: 1533
Flags: W
HStem: 632 136<42.4533 113.03>
VStem: 115 60<595.746 636>
Fore
97 768 m 0
 159 768 175 713 175 676 c 0
 175 612 132 536 58 503 c 1
 37 534 l 1
 55 540 110 572 115 636 c 1
 108 634 101 632 93 632 c 0
 61 632 21 659 21 695 c 0
 21 718 37 768 97 768 c 0
EndSplineSet
EndChar
StartChar: quotesinglbase
Encoding: 8218 8218 307
Width: 202
VWidth: 1533
Flags: W
HStem: -14 137<50 122.671>
VStem: 123 59<-50.9486 -11>
Fore
104 123 m 0
 166 123 182 69 182 29 c 0
 182 -40 133 -113 66 -144 c 1
 44 -115 l 1
 60 -109 118 -77 123 -11 c 1
 116 -13 108 -14 101 -14 c 0
 61 -14 29 17 29 48 c 0
 29 70 44 123 104 123 c 0
EndSplineSet
EndChar
StartChar: quotedblleft
Encoding: 8220 8220 308
Width: 374
VWidth: 1533
Flags: W
HStem: 503 137<79.5049 146.97 261.505 330.088>
VStem: 17 60<636 676.893> 199 60<636 676.728>
Fore
283 640 m 0
 321 640 351 607 351 576 c 0
 351 553 336 503 276 503 c 0
 214 503 199 559 199 596 c 0
 199 662 246 737 314 768 c 1
 337 739 l 1
 311 728 264 693 259 636 c 1
 268 638 276 640 283 640 c 0
168 573 m 0
 168 553 153 503 92 503 c 0
 32 503 17 559 17 596 c 0
 17 656 56 734 132 768 c 1
 155 739 l 1
 129 728 82 693 77 636 c 1
 86 638 94 640 101 640 c 0
 140 640 168 604 168 573 c 0
EndSplineSet
EndChar
StartChar: quotedblright
Encoding: 8221 8221 309
Width: 374
VWidth: 1533
Flags: W
HStem: 633 135<42.4533 113.225 225.595 296.672>
VStem: 115 59<593.906 636> 297 60<594.163 636>
Fore
281 768 m 0
 342 768 357 715 357 676 c 0
 357 609 311 535 241 503 c 1
 219 534 l 1
 237 540 292 572 297 636 c 1
 290 634 283 633 276 633 c 0
 236 633 204 664 204 695 c 0
 204 721 223 768 281 768 c 0
97 768 m 0
 159 768 174 711 174 673 c 0
 174 611 131 536 58 503 c 1
 37 534 l 1
 55 540 110 572 115 636 c 1
 108 634 101 633 94 633 c 0
 53 633 21 665 21 695 c 0
 21 718 37 768 97 768 c 0
EndSplineSet
EndChar
StartChar: quotedblbase
Encoding: 8222 8222 310
Width: 392
VWidth: 1533
Flags: W
HStem: -14 137<50 122.671 233.746 302.969>
VStem: 304 59<-52.979 -11>
Fore
287 123 m 0
 348 123 363 69 363 29 c 0
 363 -35 321 -111 247 -144 c 1
 227 -115 l 1
 256 -103 300 -66 304 -11 c 1
 296 -13 289 -14 282 -14 c 0
 250 -14 212 9 212 48 c 0
 212 70 227 123 287 123 c 0
104 123 m 0
 166 123 181 69 181 29 c 1
 182 29 l 1
 182 -40 133 -113 66 -144 c 1
 44 -115 l 1
 60 -109 118 -77 123 -11 c 1
 116 -13 108 -14 101 -14 c 0
 61 -14 29 17 29 48 c 0
 29 70 44 123 104 123 c 0
EndSplineSet
EndChar
StartChar: dagger
Encoding: 8224 8224 311
Width: 662
VWidth: 1533
Flags: W
HStem: 386 86<58 270 391 604> 696 20G<270 391>
VStem: 270 121<-143 386 472 716>
Fore
391 386 m 1
 391 -143 l 1
 270 -143 l 1
 270 386 l 1
 58 386 l 1
 58 472 l 1
 270 472 l 1
 270 716 l 1
 391 716 l 1
 391 472 l 1
 604 472 l 1
 604 386 l 1
 391 386 l 1
EndSplineSet
EndChar
StartChar: daggerdbl
Encoding: 8225 8225 312
Width: 622
VWidth: 1533
Flags: W
HStem: 104 77<44 255 366 578> 396 76<44 255 366 578> 698 20G<255 366>
VStem: 255 111<-141 104 181 396 472 718>
Fore
366 104 m 1
 366 -141 l 1
 255 -141 l 1
 255 104 l 1
 44 104 l 1
 44 181 l 1
 255 181 l 1
 255 396 l 1
 44 396 l 1
 44 472 l 1
 255 472 l 1
 255 718 l 1
 366 718 l 1
 366 472 l 1
 578 472 l 1
 578 396 l 1
 366 396 l 1
 366 181 l 1
 578 181 l 1
 578 104 l 1
 366 104 l 1
EndSplineSet
EndChar
StartChar: bullet
Encoding: 8226 8226 313
Width: 582
VWidth: 1533
Flags: W
HStem: 163 390<203.201 380.773>
VStem: 95 393<271.212 446.327>
Fore
291 553 m 256
 400 553 488 466 488 357 c 256
 488 250 401 163 291 163 c 256
 186 163 95 246 95 357 c 256
 95 456 173 553 291 553 c 256
EndSplineSet
EndChar
StartChar: ellipsis
Encoding: 8230 8230 314
Width: 1103
VWidth: 1533
Flags: W
HStem: -14 143<122.569 225.125 502.875 605.875 878.875 981.431>
VStem: 103 142<5.79599 108.592> 483 143<6.25 108.592> 859 142<5.79599 108.592>
Fore
931 129 m 0
 969 129 1001 99 1001 58 c 0
 1001 16 969 -14 931 -14 c 0
 888 -14 859 18 859 58 c 0
 859 95 888 129 931 129 c 0
555 129 m 0
 596 129 626 96 626 58 c 0
 626 16 593 -14 555 -14 c 0
 512 -14 483 18 483 58 c 0
 483 95 512 129 555 129 c 0
173 129 m 0
 216 129 245 95 245 58 c 0
 245 18 216 -14 173 -14 c 0
 135 -14 103 16 103 58 c 0
 103 99 135 129 173 129 c 0
EndSplineSet
EndChar
StartChar: perthousand
Encoding: 8240 8240 315
Width: 1223
VWidth: 1533
Flags: W
HStem: -2 57<568.823 665.165 965.349 1062.13> 282 57<160.815 261.331> 350 56<568.323 665.695 964.996 1062.84> 635 55<161.516 260.132>
VStem: 29 104<392.29 581.211> 287 102<390.513 582.099> 435 105<105.756 298.226> 693 103<107.826 298.54> 833 105<105.782 298.409> 1090 104<105.392 300.767>
Fore
1013 406 m 256
 1113 406 1194 318 1194 202 c 256
 1194 84 1109 -2 1013 -2 c 256
 921 -2 833 82 833 202 c 256
 833 321 919 406 1013 406 c 256
615 406 m 256
 717 406 796 314 796 202 c 256
 796 89 714 -2 615 -2 c 256
 516 -2 435 91 435 202 c 256
 435 311 513 406 615 406 c 256
233 -17 m 1
 141 -17 l 1
 590 705 l 1
 681 705 l 1
 233 -17 l 1
209 690 m 256
 302 690 389 606 389 486 c 256
 389 368 303 282 210 282 c 0
 101 282 29 384 29 486 c 256
 29 594 107 690 209 690 c 256
1013 55 m 0
 1075 55 1090 110 1090 202 c 256
 1090 295 1075 350 1013 350 c 0
 953 350 938 291 938 202 c 256
 938 114 953 55 1013 55 c 0
616 55 m 0
 678 55 693 110 693 202 c 256
 693 295 678 350 616 350 c 0
 550 350 540 277 540 202 c 256
 540 128 550 55 616 55 c 0
210 339 m 0
 272 339 287 393 287 486 c 256
 287 578 272 635 210 635 c 0
 148 635 133 576 133 486 c 256
 133 395 148 339 210 339 c 0
EndSplineSet
EndChar
StartChar: minute
Encoding: 8242 8242 316
Width: 223
VWidth: 1533
Flags: W
HStem: 495 295
VStem: 25 187<495 745 495 495>
Fore
161 790 m 0
 190 790 212 766 212 745 c 0
 212 722 206 715 193 688 c 2
 75 495 l 1
 25 495 l 1
 103 733 l 2
 121 787 147 790 161 790 c 0
EndSplineSet
EndChar
StartChar: second
Encoding: 8243 8243 317
Width: 371
VWidth: 1533
Flags: W
HStem: 495 295<170 194>
VStem: 31 326<495 745 495 495>
Fore
307 790 m 0
 337 790 357 766 357 745 c 0
 357 728 356 719 339 688 c 2
 222 495 l 1
 170 495 l 1
 250 733 l 2
 271 788 294 790 307 790 c 0
166 790 m 0
 194 790 218 768 218 745 c 0
 218 722 212 715 199 688 c 2
 83 495 l 1
 31 495 l 1
 109 733 l 2
 130 788 153 790 166 790 c 0
EndSplineSet
EndChar
StartChar: guilsinglleft
Encoding: 8249 8249 318
Width: 326
VWidth: 1533
Flags: W
HStem: 72 391<201 202 201 201>
VStem: 21 284<72 267 267 267>
Fore
202 72 m 1
 21 267 l 1
 201 463 l 1
 304 463 l 1
 124 267 l 1
 305 72 l 1
 202 72 l 1
EndSplineSet
EndChar
StartChar: guilsinglright
Encoding: 8250 8250 319
Width: 326
VWidth: 1533
Flags: W
HStem: 72 391<23 126 23 23>
VStem: 21 284<72 267 72 72>
Fore
126 72 m 1
 21 72 l 1
 202 267 l 1
 23 463 l 1
 127 463 l 1
 305 267 l 1
 126 72 l 1
EndSplineSet
EndChar
StartChar: fraction
Encoding: 8260 8260 320
Width: 303
VWidth: 1533
Flags: W
HStem: -20 21G<-213 -117.71> 685 20G<292.655 386>
Fore
-132 -20 m 1
 -213 -20 l 1
 307 705 l 1
 386 705 l 1
 -132 -20 l 1
EndSplineSet
EndChar
StartChar: Euro
Encoding: 8364 8364 321
Width: 783
VWidth: 1533
Flags: W
HStem: -18 50<392.09 555.116> 239 63<55 106 270 576> 386 65<55 107 268 622> 659 46<388.112 561.837>
VStem: 118 152<182.81 239 451 505.489>
Fore
121 451 m 1
 166 603 298 705 478 705 c 0
 597 705 714 673 783 506 c 1
 644 506 l 1
 636 595 570 659 480 659 c 0
 310 659 274 484 268 451 c 1
 655 451 l 1
 622 386 l 1
 259 386 l 1
 259 302 l 1
 609 302 l 1
 576 239 l 1
 270 239 l 1
 310 46 431 32 486 32 c 0
 555 32 631 95 659 192 c 1
 765 127 l 1
 730 80 654 -18 488 -18 c 0
 279 -18 150 103 118 239 c 1
 21 239 l 1
 55 302 l 1
 106 302 l 1
 106 344 l 2
 106 364 106 377 107 386 c 1
 21 386 l 1
 55 451 l 1
 121 451 l 1
EndSplineSet
EndChar
StartChar: uni2113
Encoding: 8467 8467 322
Width: 532
VWidth: 1533
Flags: W
HStem: -18 67<267.014 364.545> 698 50<243.606 305.383>
VStem: 95 133<94.8878 190 190 218 380.764 600.498> 325 92<492.221 680.95>
Fore
95 400 m 0
 95 590 133 748 284 748 c 0
 374 748 417 678 417 598 c 0
 417 478 344 389 228 299 c 1
 228 190 l 2
 228 131 246 49 317 49 c 0
 372 49 404 115 409 176 c 1
 524 156 l 1
 497 28 387 -18 290 -18 c 0
 136 -18 103 86 98 218 c 1
 26 181 l 1
 8 215 l 1
 104 274 l 1
 102 287 95 350 95 400 c 0
228 380 m 1
 299 455 325 506 325 590 c 0
 325 645 307 698 278 698 c 0
 238 698 228 648 228 604 c 2
 228 380 l 1
EndSplineSet
EndChar
StartChar: trademark
Encoding: 8482 8482 323
Width: 1060
VWidth: 1533
Flags: W
HStem: 259 455<477 731 314 477> 676 38<29 193 274 437>
VStem: 193 81<268 676> 477 49<267 615> 915 80<267 610>
Fore
915 267 m 1x78
 915 610 l 1
 731 259 l 1
 708 259 l 1
 526 615 l 1
 526 267 l 1
 477 267 l 1
 477 714 l 1
 566 714 l 1xb8
 742 368 l 1
 923 714 l 1
 995 714 l 1
 995 267 l 1
 915 267 l 1x78
274 676 m 1x78
 274 268 l 1
 193 268 l 1
 193 676 l 1
 29 676 l 1
 29 714 l 1x78
 437 714 l 1xb8
 437 676 l 1
 274 676 l 1x78
EndSplineSet
EndChar
StartChar: Ohm
Encoding: 8486 8486 324
Width: 981
VWidth: 1533
Flags: W
HStem: 0 90<77 276 707 906> 645 62<386.271 596.518>
VStem: 95 158<279.621 494.993> 730 158<280.361 494.623>
Fore
888 383 m 0
 888 237 766 133 707 90 c 1
 931 90 l 1
 906 0 l 1
 576 0 l 1
 555 38 l 1
 671 168 730 242 730 388 c 256
 730 532 649 645 492 645 c 0
 303 645 253 495 253 388 c 0
 253 205 353 125 428 38 c 1
 406 0 l 1
 77 0 l 1
 52 90 l 1
 276 90 l 1
 176 162 95 266 95 383 c 0
 95 604 304 707 492 707 c 0
 678 707 888 603 888 383 c 0
EndSplineSet
EndChar
StartChar: estimated
Encoding: 8494 8494 325
Width: 576
VWidth: 1533
Flags: W
HStem: -18 59<241.789 365.379> 342 60<181 420> 543 58<237.327 356.795>
VStem: 31 129<166.391 335.272 328.708 341.836> 437 115<134.494 230>
Fore
31 284 m 0
 31 438 120 601 301 601 c 0
 458 601 546 491 558 342 c 1
 161 342 l 1
 161 338 160 328 160 315 c 0
 160 79 251 41 311 41 c 0
 387 41 430 140 437 230 c 1
 552 230 l 1
 546 81 439 -18 311 -18 c 0
 133 -18 31 134 31 284 c 0
420 402 m 1
 408 471 370 543 294 543 c 0
 226 543 190 465 181 402 c 1
 420 402 l 1
EndSplineSet
EndChar
StartChar: partialdiff
Encoding: 8706 8706 326
Width: 693
VWidth: 1533
Flags: W
HStem: -18 66<247.354 370.437> 396 70<277.917 430.183> 616 21G<103.848 205> 716 67<261.342 407.184>
VStem: 52 150<112.31 309.881> 504 138<321.189 538.642>
Fore
311 783 m 0
 531 783 642 581 642 402 c 0
 642 231 553 -18 304 -18 c 0
 150 -18 52 72 52 219 c 0
 52 382 212 466 343 466 c 0
 407 466 462 443 503 411 c 1
 504 419 504 431 504 444 c 0
 504 601 439 716 342 716 c 0
 277 716 231 686 179 616 c 1
 55 649 l 1
 130 776 265 783 311 783 c 0
202 181 m 0
 202 134 223 48 308 48 c 0
 415 48 471 203 486 322 c 1
 461 355 417 396 362 396 c 0
 266 396 202 342 202 181 c 0
EndSplineSet
EndChar
StartChar: Delta
Encoding: 8710 8710 327
Width: 696
VWidth: 1533
Flags: W
HStem: 0 63<87 518>
Fore
-11 0 m 1
 327 776 l 1
 716 0 l 1
 -11 0 l 1
288 543 m 1
 87 63 l 1
 518 63 l 1
 288 543 l 1
EndSplineSet
EndChar
StartChar: product
Encoding: 8719 8719 328
Width: 728
VWidth: 1533
Flags: W
HStem: 642 63<204 524>
VStem: 66 138<-86 642> 524 138<-86 642>
Fore
524 -86 m 1
 524 642 l 1
 204 642 l 1
 204 -86 l 1
 66 -86 l 1
 66 705 l 1
 662 705 l 1
 662 -86 l 1
 524 -86 l 1
EndSplineSet
EndChar
StartChar: summation
Encoding: 8721 8721 329
Width: 717
VWidth: 1533
Flags: W
HStem: -87 105<172 639> 641 63<218 642>
Fore
639 -87 m 1
 29 -87 l 1
 29 -34 l 1
 296 297 l 1
 37 650 l 1
 37 704 l 1
 642 704 l 1
 647 641 l 1
 218 641 l 1
 438 343 l 1
 172 18 l 1
 675 18 l 1
 639 -87 l 1
EndSplineSet
EndChar
StartChar: minus
Encoding: 8722 8722 330
Width: 706
VWidth: 1533
Flags: W
HStem: 259 65<46 661>
Fore
46 259 m 1
 46 324 l 1
 661 324 l 1
 661 259 l 1
 46 259 l 1
EndSplineSet
EndChar
StartChar: radical
Encoding: 8730 8730 331
Width: 691
VWidth: 1533
Flags: W
Fore
477 -130 m 1
 426 -158 l 1
 158 403 l 1
 55 353 l 1
 29 403 l 1
 244 509 l 1
 455 57 l 1
 612 918 l 1
 678 902 l 1
 477 -130 l 1
EndSplineSet
EndChar
StartChar: infinity
Encoding: 8734 8734 332
Width: 1048
VWidth: 1533
Flags: W
HStem: 213 72<218.877 363.613 685.716 833.685> 521 74<218.136 359.993 689.407 830.836>
VStem: 31 136<336.774 470.626> 882 136<335.086 471.87>
Fore
1018 403 m 256
 1018 271 887 213 776 213 c 0
 725 213 643 231 523 340 c 1
 493 312 385 213 268 213 c 0
 156 213 31 271 31 403 c 256
 31 537 155 595 273 595 c 0
 362 595 451 533 524 460 c 1
 581 515 676 595 777 595 c 0
 885 595 1018 557 1018 403 c 256
882 403 m 256
 882 484 815 521 762 521 c 0
 688 521 609 445 576 400 c 1
 619 345 691 285 767 285 c 0
 819 285 882 325 882 403 c 256
167 403 m 0
 167 338 223 285 282 285 c 0
 358 285 429 343 472 402 c 1
 452 423 372 521 287 521 c 0
 234 521 167 483 167 403 c 0
EndSplineSet
EndChar
StartChar: integral
Encoding: 8747 8747 333
Width: 473
VWidth: 1533
Flags: W
HStem: -210 66<118.52 174.91> 730 21G<373.5 421.723> 808 64<295.084 343.32>
VStem: 166 118<294.798 704.776> 189 121<-41.6897 416.588>
Fore
166 495 m 0xf0
 166 684 203 872 353 872 c 0
 377 872 417 867 474 777 c 1
 383 730 l 1
 364 799 329 808 316 808 c 0
 297 808 284 786 284 676 c 0xf0
 284 448 310 381 310 140 c 0
 310 14 281 -210 121 -210 c 0
 73 -210 33 -174 0 -113 c 1
 89 -66 l 1
 99 -104 127 -144 153 -144 c 0
 175 -144 189 -105 189 26 c 0xe8
 189 243 166 278 166 495 c 0xf0
EndSplineSet
EndChar
StartChar: approxequal
Encoding: 8776 8776 334
Width: 682
VWidth: 1533
Flags: W
HStem: 115 77<388.378 526.632> 192 78<155.504 303.921> 299 78<389.429 526.632> 377 77<156.267 303.938>
Fore
44 348 m 1
 86 413 153 454 225 454 c 0
 329 454 390 377 463 377 c 0
 506 377 545 404 581 458 c 1
 639 403 l 1
 562 307 502 299 468 299 c 0
 360 299 314 377 219 377 c 0
 162 377 122 329 101 297 c 1
 44 348 l 1
230 270 m 0
 329 270 384 192 463 192 c 0
 506 192 545 219 581 274 c 1
 639 221 l 1
 562 123 502 115 468 115 c 0
 362 115 311 192 219 192 c 0
 175 192 136 165 101 112 c 1
 44 163 l 1
 62 191 118 270 230 270 c 0
EndSplineSet
EndChar
StartChar: notequal
Encoding: 8800 8800 335
Width: 702
VWidth: 1533
Flags: W
HStem: -2 21G<217.97 270.333> 133 79<58 239 360 644> 353 78<58 342 461 644>
Fore
324 133 m 1
 261 -2 l 1
 190 31 l 1
 239 133 l 1
 58 133 l 1
 58 212 l 1
 274 212 l 1
 342 353 l 1
 58 353 l 1
 58 431 l 1
 377 431 l 1
 437 561 l 1
 507 529 l 1
 461 431 l 1
 644 431 l 1
 644 353 l 1
 426 353 l 1
 360 212 l 1
 644 212 l 1
 644 133 l 1
 324 133 l 1
EndSplineSet
EndChar
StartChar: lessequal
Encoding: 8804 8804 336
Width: 659
VWidth: 1533
Flags: W
HStem: 0 72<21 638>
Fore
169 370 m 1
 616 186 l 1
 616 92 l 1
 41 336 l 1
 41 405 l 1
 618 649 l 1
 618 553 l 1
 169 370 l 1
21 0 m 1
 21 72 l 1
 638 72 l 1
 638 0 l 1
 21 0 l 1
EndSplineSet
EndChar
StartChar: greaterequal
Encoding: 8805 8805 337
Width: 659
VWidth: 1533
Flags: W
HStem: 0 72<21 638>
Fore
43 92 m 1
 43 186 l 1
 491 370 l 1
 41 553 l 1
 41 649 l 1
 618 405 l 1
 618 336 l 1
 43 92 l 1
21 0 m 1
 21 72 l 1
 638 72 l 1
 638 0 l 1
 21 0 l 1
EndSplineSet
EndChar
StartChar: lozenge
Encoding: 9674 9674 338
Width: 703
VWidth: 1533
Flags: W
Fore
400 -81 m 1
 305 -81 l 1
 44 333 l 1
 307 751 l 1
 400 751 l 1
 659 333 l 1
 400 -81 l 1
351 644 m 1
 161 337 l 1
 351 23 l 1
 543 337 l 1
 351 644 l 1
EndSplineSet
EndChar
StartChar: dottedcircle
Encoding: 9676 9676 339
Width: 625
VWidth: 1533
Flags: W
HStem: 35 57<298.35 338.752> 57 55<186.534 240.463 385.531 436.469> 110 57<103.534 158.41 465.59 519.469> 195 56<48.5339 102.463 520.534 575.41> 293 57<27.1747 82.8253 542.101 596.873> 389 57<48.7976 102.337 520.729 575.202> 475 55<103.659 158.271 463.736 519.345> 530 56<186.534 240.463 383.537 436.469> 549 57<298.957 338.825>
VStem: 26 58<294.092 348.967> 48 55<195.422 250.533 389.596 445.58> 103 56<110.537 166.41 475.477 529.407> 186 55<57.4668 111.58 530.422 585.533> 282 58<36.3898 90.7805 564.864 604.774> 385 52<57.5312 111.41 530.422 585.533> 465 55<110.956 165.952 475.59 529.268> 520 56<195.534 250.41 389.596 445.469> 541 57<308.864 349.082>
Fore
520 500 m 0x1e1f
 520 483 511 475 494 475 c 0
 473 475 463 483 463 500 c 0
 463 520 473 530 494 530 c 0
 511 530 520 520 520 500 c 0x1e1f
437 557 m 0
 437 539 428 530 411 530 c 0
 392 530 383 539 383 557 c 0
 383 576 392 586 411 586 c 0x1e1f
 428 586 437 576 437 557 c 0
576 420 m 0x1e1f
 576 399 566 389 547 389 c 0
 529 389 520 399 520 420 c 0
 520 437 530 446 549 446 c 0
 567 446 576 437 576 420 c 0x1e1f
241 557 m 0
 241 539 232 530 213 530 c 256
 195 530 186 539 186 557 c 0
 186 576 195 586 213 586 c 256x1e1f
 232 586 241 576 241 557 c 0
576 222 m 0x1e1f
 576 204 566 195 547 195 c 0
 529 195 520 204 520 222 c 0
 520 241 529 251 547 251 c 0
 566 251 576 241 576 222 c 0x1e1f
159 500 m 0
 159 483 149 475 130 475 c 0
 112 475 103 483 103 500 c 0
 103 520 112 530 130 530 c 0
 149 530 159 520 159 500 c 0
520 138 m 0
 520 119 511 110 494 110 c 0
 475 110 465 119 465 138 c 0
 465 157 475 167 494 167 c 0x3e1f
 511 167 520 157 520 138 c 0
437 83 m 0
 437 66 428 57 411 57 c 256
 394 57 385 66 385 83 c 0
 385 102 394 112 411 112 c 256x5e1f
 428 112 437 102 437 83 c 0
103 420 m 0x1e3f
 103 399 94 389 77 389 c 0
 58 389 48 399 48 420 c 0
 48 437 57 446 75 446 c 256
 94 446 103 437 103 420 c 0x1e3f
103 222 m 0
 103 204 94 195 75 195 c 256
 57 195 48 204 48 222 c 0
 48 241 57 251 75 251 c 256
 94 251 103 241 103 222 c 0
241 86 m 0
 241 67 232 57 213 57 c 256
 195 57 186 66 186 83 c 0
 186 102 195 112 213 112 c 256x5e1f
 232 112 241 103 241 86 c 0
159 138 m 0
 159 119 149 110 130 110 c 0
 112 110 103 119 103 138 c 0
 103 157 112 167 130 167 c 0x3e1f
 149 167 159 157 159 138 c 0
311 606 m 256x1e9f
 326 606 340 594 340 576 c 0
 340 565 328 549 311 549 c 256
 299 549 282 561 282 576 c 0
 282 595 299 606 311 606 c 256x1e9f
311 92 m 256x9e1f
 325 92 340 80 340 63 c 0
 340 52 327 35 311 35 c 256
 296 35 282 52 282 63 c 0
 282 81 299 92 311 92 c 256x9e1f
570 350 m 0
 585 350 598 337 598 320 c 0
 598 309 587 293 570 293 c 0
 553 293 541 309 541 320 c 0x1e1f40
 541 338 554 350 570 350 c 0
55 350 m 256
 70 350 84 338 84 320 c 0
 84 309 71 293 55 293 c 256
 39 293 26 309 26 320 c 0x1e5f
 26 338 40 350 55 350 c 256
EndSplineSet
EndChar
StartChar: uni0E10.alt1
Encoding: 63232 63232 340
Width: 665
VWidth: 1533
Flags: W
HStem: 0 21G<443.677 570> 95 45<153.216 273.272> 333 44<153.432 273.519> 397 49<152 477> 498 59<385.894 493.896> 558 63<199.6 324.509>
VStem: 61 56<177.544 295.414> 453 116<63.4688 261.657> 477 126<189.127 397>
Fore
432 557 m 0xfe80
 461 557 489 578 489 613 c 1
 630 613 l 1
 614 505 510 498 477 498 c 0
 387 498 346 558 267 558 c 0
 190 558 152 495 152 446 c 1
 603 446 l 1
 603 429 l 2xfe80
 603 301 569 134 569 36 c 0
 569 24 569 12 570 0 c 1
 455 0 l 1
 348 189 l 1
 329 129 265 95 210 95 c 0
 124 95 61 159 61 236 c 0
 61 310 122 377 210 377 c 0
 303 377 343 323 365 285 c 2
 454 126 l 1
 453 134 453 142 453 151 c 0xff
 453 211 477 317 477 397 c 1
 8 397 l 1
 8 526 82 621 219 621 c 256
 339 621 368 557 432 557 c 0xfe80
310 236 m 256
 310 286 268 333 213 333 c 0
 156 333 117 284 117 236 c 256
 117 183 162 140 212 140 c 0
 269 140 310 186 310 236 c 256
EndSplineSet
EndChar
StartChar: uni0E48.alt2
Encoding: 63242 63242 350
Width: 0
VWidth: 1533
Flags: W
HStem: 690 236<-184 -61 -184 -61 -184 -184>
VStem: -184 123<690 926>
Fore
-184 690 m 1
 -184 926 l 1
 -61 926 l 1
 -61 690 l 1
 -184 690 l 1
EndSplineSet
Substitution2: "Single Substitution lookup 20 subtable" uni0E48.alt3
Substitution2: "Single Substitution lookup 21 subtable" uni0E48
Substitution2: "Single Substitution lookup 22 subtable" uni0E48.alt1
Substitution2: "Single Substitution lookup 20 subtable" uni0E48.alt3
Substitution2: "Single Substitution lookup 21 subtable" uni0E48
Substitution2: "Single Substitution lookup 22 subtable" uni0E48.alt1
EndChar
StartChar: uni0E49.alt2
Encoding: 63243 63243 351
Width: 0
VWidth: 1533
Flags: W
HStem: 690 281<-365 -251 -365 -314 -314 -314> 782 46<-360.363 -290.732> 925 46<-361.026 -272.5>
VStem: -420 440<821 919 874 944 874 874> -420 50<838.079 915.077> -264 59<837 915.483>
Fore
-242 762 m 1x84
 -180 792 -114 865 -103 944 c 1
 20 944 l 1
 -6 821 -155 702 -365 690 c 1x90
 -341 712 -301 754 -290 785 c 1
 -298 783 -307 782 -316 782 c 0
 -376 782 -420 819 -420 874 c 0x50
 -420 919 -385 971 -314 971 c 256
 -251 971 -205 928 -205 863 c 0
 -205 823 -226 784 -242 762 c 1x84
-316 828 m 0x6c
 -287 828 -264 850 -264 875 c 0
 -264 905 -287 925 -316 925 c 0
 -346 925 -370 905 -370 875 c 0
 -370 850 -346 828 -316 828 c 0x6c
EndSplineSet
Substitution2: "Single Substitution lookup 20 subtable" uni0E49.alt3
Substitution2: "Single Substitution lookup 21 subtable" uni0E49
Substitution2: "Single Substitution lookup 22 subtable" uni0E49.alt1
Substitution2: "Single Substitution lookup 20 subtable" uni0E49.alt3
Substitution2: "Single Substitution lookup 21 subtable" uni0E49
Substitution2: "Single Substitution lookup 22 subtable" uni0E49.alt1
EndChar
StartChar: uni0E4A.alt2
Encoding: 63244 63244 352
Width: 0
VWidth: 1533
Flags: W
HStem: 691 46<-504.165 -424.817 -204 -162.534> 698 257<-541.503 -416 -474 -454 -293 -293> 829 45<-497.698 -424.385> 909 46<-499.13 -384.812 -332.651 -280.452>
VStem: -607 96<748.624 858.261> -417 49<744.851 820.701> -261 95<785.444 889.223> -129 94<768.031 944.109>
Fore
-129 839 m 0x4f
 -129 922 -121 937 -104 951 c 1
 -5 951 l 1
 -20 941 -35 926 -35 836 c 0
 -35 726 -130 698 -207 698 c 2
 -268 698 l 1x4f
 -296 721 l 1
 -281 735 -261 756 -261 833 c 0
 -261 873 -288 909 -324 909 c 0
 -339 909 -357 906 -373 880 c 1
 -379 880 l 1
 -385 890 -405 909 -443 909 c 0
 -488 909 -511 882 -515 862 c 1
 -496 871 -484 874 -463 874 c 0
 -401 874 -368 825 -368 782 c 0
 -368 732 -414 691 -474 691 c 0xbf
 -538 691 -607 736 -607 825 c 0
 -607 877 -568 955 -454 955 c 0
 -416 955 -391 943 -376 925 c 1
 -346 951 -317 955 -293 955 c 0
 -243 955 -166 931 -166 836 c 0
 -166 819 -166 787 -204 744 c 1
 -177 744 -129 759 -129 839 c 0x4f
-465 737 m 0xaf
 -441 737 -417 756 -417 783 c 0
 -417 810 -441 829 -465 829 c 0
 -492 829 -511 808 -511 783 c 0
 -511 756 -490 737 -465 737 c 0xaf
EndSplineSet
Substitution2: "Single Substitution lookup 20 subtable" uni0E4A.alt3
Substitution2: "Single Substitution lookup 21 subtable" uni0E4A
Substitution2: "Single Substitution lookup 22 subtable" uni0E4A.alt1
Substitution2: "Single Substitution lookup 20 subtable" uni0E4A.alt3
Substitution2: "Single Substitution lookup 21 subtable" uni0E4A
Substitution2: "Single Substitution lookup 22 subtable" uni0E4A.alt1
EndChar
StartChar: uni0E4B.alt2
Encoding: 63245 63245 353
Width: 0
VWidth: 1533
Flags: W
HStem: 797 60<-420 -302 -179 -61>
VStem: -302 123<690 797 857 964>
Fore
-179 797 m 1
 -179 690 l 1
 -302 690 l 1
 -302 797 l 1
 -420 797 l 1
 -420 857 l 1
 -302 857 l 1
 -302 964 l 1
 -179 964 l 1
 -179 857 l 1
 -61 857 l 1
 -61 797 l 1
 -179 797 l 1
EndSplineSet
Substitution2: "Single Substitution lookup 20 subtable" uni0E4B.alt3
Substitution2: "Single Substitution lookup 21 subtable" uni0E4B
Substitution2: "Single Substitution lookup 22 subtable" uni0E4B.alt1
Substitution2: "Single Substitution lookup 20 subtable" uni0E4B.alt3
Substitution2: "Single Substitution lookup 21 subtable" uni0E4B
Substitution2: "Single Substitution lookup 22 subtable" uni0E4B.alt1
EndChar
StartChar: uni0E4C.alt2
Encoding: 63246 63246 354
Width: 0
VWidth: 1533
Flags: W
HStem: 690 47<-249.075 -158.442>
VStem: -322 60<749.975 842.472> -144 52<751.106 841.804>
Fore
-205 690 m 0
 -286 690 -322 751 -322 800 c 0
 -322 857 -286 897 -213 918 c 2
 -177 929 l 2
 -106 951 -103 989 -103 1004 c 1
 5 981 l 1
 5 924 -85 895 -147 886 c 1
 -108 869 -92 823 -92 799 c 0
 -92 743 -131 690 -205 690 c 0
-205 737 m 0
 -169 737 -144 765 -144 796 c 256
 -144 827 -169 856 -205 856 c 0
 -240 856 -262 826 -262 796 c 256
 -262 766 -240 737 -205 737 c 0
EndSplineSet
Substitution2: "Single Substitution lookup 20 subtable" uni0E4C.alt3
Substitution2: "Single Substitution lookup 21 subtable" uni0E4C
Substitution2: "Single Substitution lookup 22 subtable" uni0E4C.alt1
Substitution2: "Single Substitution lookup 20 subtable" uni0E4C.alt3
Substitution2: "Single Substitution lookup 21 subtable" uni0E4C
Substitution2: "Single Substitution lookup 22 subtable" uni0E4C.alt1
EndChar
StartChar: uni0E0D.alt1
Encoding: 63247 63247 355
Width: 1085
VWidth: 1533
Flags: W
HStem: -8 56<201.392 313.833> 0 61<656 885> 222 56<213.317 315.245> 570 54<254.746 459.902>
VStem: 77 93<78.8979 191.102> 77 122<265 328.199> 345 55<79.0755 190.786> 534 122<61 501.483> 885 122<61 613>
Fore
357 624 m 0xb780
 474 624 656 582 656 414 c 2
 656 61 l 1
 885 61 l 1
 885 613 l 1
 1007 613 l 1
 1007 0 l 1
 534 0 l 1
 534 429 l 2
 534 523 457 570 357 570 c 256
 258 570 172 519 172 422 c 1
 268 422 l 1
 268 382 l 1
 222 365 199 331 199 282 c 2
 199 265 l 1x7780
 218 274 238 278 258 278 c 256
 341 278 400 206 400 135 c 0
 400 66 350 -8 245 -8 c 0
 139 -8 77 56 77 159 c 2xbb80
 77 268 l 2
 77 316 119 370 187 380 c 1
 41 380 l 1
 55 544 194 624 357 624 c 0xb780
258 48 m 256xbb80
 308 48 345 90 345 135 c 256
 345 185 303 222 258 222 c 256
 207 222 170 181 170 135 c 256
 170 89 208 48 258 48 c 256xbb80
EndSplineSet
EndChar
StartChar: uni0E0E.alt1
Encoding: 63259 63259 367
Width: 873
VWidth: 1533
Flags: W
HStem: -270 57<240.603 359.964> -115 66<556.924 617.303> -103 62<230.755 413.193> -8 56<101.632 212.77> 222 52<102.466 204.518> 570 54<393.929 600.387>
VStem: 15 56<78.7548 191.221> 100 110<-198.62 -122.301> 216 123<267 332.436> 245 94<78.7413 191.15> 673 123<-186 500.292>
Fore
497 624 m 0xdfa0
 632 624 796 570 796 414 c 2
 796 -261 l 1
 665 -261 l 1
 617 -231 569 -201 501 -167 c 1
 450 -198 395 -270 270 -270 c 0
 186 -270 100 -237 100 -164 c 0
 100 -90 189 -41 294 -41 c 0xbfa0
 370 -41 404 -52 492 -90 c 1
 516 -76 552 -61 630 -49 c 1
 630 -115 l 1
 616 -116 569 -129 569 -129 c 1
 632 -158 665 -181 673 -186 c 1
 673 429 l 2
 673 523 597 570 497 570 c 256
 395 570 311 517 311 422 c 1
 408 422 l 1
 408 382 l 1
 362 365 339 331 339 282 c 2xdfa0
 339 163 l 2xdf60
 339 54 268 -8 166 -8 c 0
 63 -8 15 69 15 135 c 0
 15 207 73 274 158 274 c 0
 187 274 205 271 216 267 c 1
 216 281 l 2
 216 335 277 368 327 380 c 1
 181 380 l 1
 195 544 334 624 497 624 c 0xdfa0
158 48 m 256
 208 48 245 90 245 135 c 256x9f60
 245 185 203 222 158 222 c 256
 108 222 71 180 71 135 c 256
 71 85 113 48 158 48 c 256
210 -163 m 256
 210 -203 260 -213 285 -213 c 0
 320 -213 356 -205 435 -135 c 1
 397 -115 351 -103 299 -103 c 0xbf20
 254 -103 210 -124 210 -163 c 256
EndSplineSet
EndChar
StartChar: uni0E0F.alt1
Encoding: 63260 63260 368
Width: 873
VWidth: 1533
Flags: W
HStem: -279 60<134.231 253.834> -104 60<124.315 286.036> -8 56<101.632 212.77> 222 52<102.466 204.518> 570 54<393.929 600.387>
VStem: 14 90<-204.987 -124.365> 15 56<78.7548 191.221> 216 123<267 332.436> 245 94<78.7413 191.15> 673 123<-173 500.732>
Fore
497 624 m 0xfb40
 632 624 796 570 796 414 c 2
 796 -261 l 1
 670 -261 l 1
 572 -172 l 1
 466 -273 l 1
 416 -218 387 -198 368 -179 c 1
 323 -221 267 -279 170 -279 c 0
 118 -279 14 -257 14 -167 c 0
 14 -75 121 -44 196 -44 c 0
 249 -44 304 -58 365 -92 c 1
 399 -64 423 -52 466 -43 c 1
 466 -110 l 1
 452 -113 421 -130 420 -130 c 1
 439 -147 459 -162 472 -175 c 1
 572 -86 l 1
 673 -173 l 1
 673 429 l 2
 673 524 597 570 497 570 c 256
 395 570 311 517 311 422 c 1
 408 422 l 1
 408 382 l 1
 362 365 339 331 339 282 c 2xfd40
 339 163 l 2xf8c0
 339 54 268 -8 166 -8 c 0
 63 -8 15 69 15 135 c 0
 15 207 73 274 158 274 c 0
 187 274 205 271 216 267 c 1
 216 281 l 2
 216 335 277 368 327 380 c 1
 181 380 l 1
 195 544 334 624 497 624 c 0xfb40
158 48 m 256
 208 48 245 90 245 135 c 256
 245 185 203 222 158 222 c 256
 108 222 71 180 71 135 c 256xfac0
 71 85 113 48 158 48 c 256
104 -167 m 0xfc40
 104 -209 152 -219 179 -219 c 0
 230 -219 256 -202 319 -144 c 1
 281 -120 243 -104 193 -104 c 256
 163 -104 104 -117 104 -167 c 0xfc40
EndSplineSet
EndChar
StartChar: uni0E2C.alt1
Encoding: 63261 63261 369
Width: 910
VWidth: 1533
Flags: W
HStem: 0 21G<216 359.042 677.887 819> 339 55<101.732 201.489> 402 59<552.068 676.652> 569 55<102.71 213.107 551.078 673.748>
VStem: 15 56<425.589 538.249> 216 123<109 351> 245 94<423.713 537.768> 451 84<479.144 554.554> 696 123<109 405>
Fore
813 515 m 1xfd80
 826 522 854 539 875 560 c 1
 926 500 l 1
 878 461 842 445 819 435 c 1
 819 0 l 1
 690 0 l 1
 518 284 l 1
 347 0 l 1
 216 0 l 1
 216 351 l 1xfd80
 197 343 177 339 158 339 c 256
 80 339 15 404 15 481 c 0
 15 547 61 624 170 624 c 0
 276 624 339 560 339 457 c 2xfb80
 339 109 l 1
 518 396 l 1
 696 109 l 1
 696 405 l 1
 681 402 664 402 647 402 c 0
 556 402 451 429 451 511 c 0
 451 550 490 624 627 624 c 0
 704 624 798 598 813 515 c 1xfd80
618 461 m 0
 633 461 666 462 695 471 c 1
 695 497 l 2
 695 544 659 572 610 572 c 0
 583 572 535 555 535 514 c 0
 535 488 567 461 618 461 c 0
158 394 m 256
 208 394 245 436 245 481 c 256xfb80
 245 532 204 569 158 569 c 256
 112 569 71 531 71 481 c 256
 71 431 113 394 158 394 c 256
EndSplineSet
EndChar
StartChar: uni0E4F.liga
Encoding: 63616 63616 370
Width: 781
VWidth: 1533
Flags: W
HStem: -8 46<290.399 491.812> 88 50<312.964 474.26> 474 50<311.919 476.352> 575 46<287.99 492.832> 716 21G<290.5 330.5 460.5 500.5>
VStem: 77 46<202.434 408.41> 176 46<227.782 385.774> 268 79<899.404 1008.42> 438 79<899.404 1008.42> 559 46<224.086 386.913> 659 46<202.856 409.589>
Fore
308 1036 m 256
 339 1036 347 1007 347 984 c 0
 347 930 345 861 316 716 c 1
 299 716 l 1
 282 812 268 887 268 987 c 0
 268 1008 276 1036 308 1036 c 256
391 621 m 256
 562 621 705 483 705 307 c 256
 705 128 560 -8 391 -8 c 256
 222 -8 77 128 77 307 c 256
 77 478 215 621 391 621 c 256
391 38 m 0
 535 38 659 157 659 307 c 256
 659 453 538 575 391 575 c 256
 243 575 123 452 123 307 c 0
 123 155 248 38 391 38 c 0
398 524 m 0
 518 524 605 405 605 307 c 0
 605 212 520 88 402 88 c 0
 297 88 176 179 176 307 c 0
 176 431 289 524 398 524 c 0
559 307 m 0
 559 392 493 474 395 474 c 0
 305 474 222 403 222 307 c 256
 222 206 310 138 394 138 c 0
 489 138 559 218 559 307 c 0
478 1036 m 256
 509 1036 517 1007 517 984 c 0
 517 930 515 861 486 716 c 1
 469 716 l 1
 452 812 438 887 438 987 c 0
 438 1008 446 1036 478 1036 c 256
EndSplineSet
LCarets2: 1 0 
Ligature2: "'liga' Standard Ligatures in Latin lookup 19 subtable" uni0E4F quotedbl
EndChar
StartChar: uni0E24.liga
Encoding: 63617 63617 371
Width: 1126
VWidth: 1533
Flags: W
HStem: -199 21G<549 672 928 1050> -8 56<217.301 328.244> 222 56<229.968 330.245> 570 54<272.537 475.033 691.088 854.436>
VStem: 92 123<265 328.199> 92 94<78.8496 192.287> 360 55<78.1865 190.786> 549 123<-199 500.292> 928 122<-199 499.164>
Fore
273 48 m 256xf780
 323 48 360 90 360 135 c 256
 360 185 318 222 273 222 c 256
 223 222 186 180 186 135 c 256
 186 85 228 48 273 48 c 256xf780
373 624 m 256
 504 624 575 579 592 567 c 1
 624 595 697 624 762 624 c 0
 891 624 1050 579 1050 400 c 2
 1050 -199 l 1
 928 -199 l 1
 928 426 l 2
 928 499 874 570 762 570 c 0
 742 570 666 564 630 530 c 1
 658 497 672 459 672 414 c 2
 672 -199 l 1
 549 -199 l 1
 549 429 l 2
 549 523 473 570 373 570 c 256
 273 570 187 519 187 422 c 1
 284 422 l 1
 284 382 l 1
 238 365 215 331 215 282 c 2
 215 265 l 1xfb80
 234 274 254 278 273 278 c 256
 356 278 415 206 415 135 c 0
 415 69 370 -8 261 -8 c 0
 155 -8 92 56 92 159 c 2xf780
 92 268 l 2xfb80
 92 316 134 370 202 380 c 1
 57 380 l 1
 68 538 204 624 373 624 c 256
EndSplineSet
LCarets2: 1 0 
Ligature2: "'liga' Standard Ligatures in Latin lookup 19 subtable" uni0E24 uni0E45
Ligature2: "'liga' Standard Ligatures in Latin lookup 19 subtable" uni0E24 uni0E32
EndChar
StartChar: uni0E26.liga
Encoding: 63618 63618 372
Width: 1244
VWidth: 1533
Flags: W
HStem: -199 21G<665 788 1046 1168> -8 56<93.9081 208.104> 222 52<94.5358 197.058> 570 54<386.746 591.623 808.118 972.436>
VStem: 8 55<78.5368 191.006> 209 122<267 332.436> 238 93<78.8979 191.102> 665 123<-199 503.355> 1046 122<-199 499.164>
Fore
150 48 m 256xfb80
 201 48 238 89 238 135 c 256
 238 181 200 222 150 222 c 256
 100 222 63 180 63 135 c 256
 63 85 105 48 150 48 c 256xfb80
489 624 m 256
 549 624 638 615 708 566 c 1
 740 596 814 624 880 624 c 0
 1009 624 1168 579 1168 400 c 2
 1168 -199 l 1
 1046 -199 l 1
 1046 426 l 2
 1046 499 992 570 880 570 c 0
 860 570 782 564 748 530 c 1
 772 501 788 464 788 414 c 2
 788 -199 l 1
 665 -199 l 1
 665 429 l 2
 665 523 589 570 489 570 c 256
 390 570 304 519 304 422 c 1
 400 422 l 1
 400 382 l 1
 354 365 331 331 331 282 c 2xfd80
 331 163 l 2xfb80
 331 54 260 -8 158 -8 c 0
 56 -8 8 68 8 135 c 0
 8 206 65 274 150 274 c 0
 172 274 192 272 209 267 c 1
 209 281 l 2xfd80
 209 335 269 368 319 380 c 1
 173 380 l 1
 187 544 326 624 489 624 c 256
EndSplineSet
LCarets2: 1 0 
Ligature2: "'liga' Standard Ligatures in Latin lookup 19 subtable" uni0E26 uni0E45
Ligature2: "'liga' Standard Ligatures in Latin lookup 19 subtable" uni0E26 uni0E32
EndChar
StartChar: fi
Encoding: 64257 64257 373
Width: 556
VWidth: 1533
Flags: W
HStem: 0 21G<385 489> 461 51<57 124 230 385> 667 73<258.067 377.427>
VStem: 124 106<-196 461 512 609.641> 385 104<0 461>
Fore
311 667 m 0
 280 667 230 649 230 593 c 2
 230 512 l 1
 489 512 l 1
 489 0 l 1
 385 0 l 1
 385 461 l 1
 230 461 l 1
 230 -196 l 1
 124 -196 l 1
 124 461 l 1
 28 461 l 1
 57 512 l 1
 124 512 l 1
 124 659 243 740 361 740 c 0
 370 740 379 740 388 739 c 1
 388 639 l 1
 374 647 342 667 311 667 c 0
EndSplineSet
LCarets2: 1 0 
Ligature2: "'liga' Standard Ligatures in Latin lookup 19 subtable" f i
EndChar
StartChar: fl
Encoding: 64258 64258 374
Width: 541
VWidth: 1533
Flags: W
HStem: 0 21G<368 474> 461 51<57 124 230 279> 673 66<264.918 380.598>
VStem: 28 446<461 705 461 510> 124 106<-196 461 512 611.367> 368 106<0 650>
Fore
380 739 m 0xe8
 426 739 474 705 474 705 c 1xf0
 474 0 l 1
 368 0 l 1
 368 650 l 1
 354 667 329 673 311 673 c 0
 274 673 230 645 230 593 c 2
 230 512 l 1
 310 512 l 1
 279 461 l 1
 230 461 l 1
 230 -196 l 1
 124 -196 l 1
 124 461 l 1xec
 28 461 l 1xf0
 57 512 l 1
 124 512 l 1
 124 664 247 739 380 739 c 0xe8
EndSplineSet
LCarets2: 1 0 
Ligature2: "'liga' Standard Ligatures in Latin lookup 19 subtable" f l
EndChar
StartChar: franc
Encoding: 8355 8355 467
Width: 588
VWidth: 1533
Flags: W
HStem: 0 21G<94 216> 132 64<-20 94 216 396> 343 66<216 521> 679 66<216 546>
VStem: 94 122<0 132 196 343 409 679>
Fore
-20 132 m 1
 -20 196 l 1
 94 196 l 1
 94 745 l 1
 546 745 l 1
 546 679 l 1
 216 679 l 1
 216 409 l 1
 521 409 l 1
 521 343 l 1
 216 343 l 1
 216 196 l 1
 396 196 l 1
 396 132 l 1
 216 132 l 1
 216 0 l 1
 94 0 l 1
 94 132 l 1
 -20 132 l 1
EndSplineSet
EndChar
StartChar: dong
Encoding: 8363 8363 468
Width: 697
VWidth: 1533
Flags: W
HStem: -163 54<52 638> -17 61<265.272 415.585> 501 60<264.073 416.512> 624 40<432 526 638 721>
VStem: 28 125<164.771 376.462> 526 112<-2 67 167.032 373.588 469 624 664 742>
Fore
28 271 m 0
 28 445 154 561 324 561 c 0
 411 561 478 530 526 469 c 1
 526 624 l 1
 432 624 l 1
 432 664 l 1
 526 664 l 1
 526 742 l 1
 638 742 l 1
 638 664 l 1
 721 664 l 1
 721 624 l 1
 638 624 l 1
 638 -2 l 1
 526 -2 l 1
 526 67 l 1
 482 18 414 -17 324 -17 c 0
 168 -17 28 100 28 271 c 0
52 -109 m 1
 638 -109 l 1
 638 -163 l 1
 52 -163 l 1
 52 -109 l 1
526 270 m 256
 526 394 440 501 342 501 c 0
 241 501 153 401 153 270 c 0
 153 123 256 44 342 44 c 256
 438 44 526 145 526 270 c 256
EndSplineSet
EndChar
StartChar: Dcroat
Encoding: 272 272 475
Width: 881
VWidth: 1533
Flags: W
HStem: 0 61<201 526.673> 353 61<-6 74 201 415> 653 61<201 528.328>
VStem: 74 127<61 353 414 653> 711 146<241.391 496.074>
Fore
350 714 m 2
 787 714 857 513 857 379 c 0
 857 76 617 -0 356 0 c 2
 74 0 l 1
 74 353 l 1
 -6 353 l 1
 -6 414 l 1
 74 414 l 1
 74 714 l 1
 350 714 l 2
371 61 m 2
 634 61 711 186 711 379 c 0
 711 543 618 653 371 653 c 2
 201 653 l 1
 201 414 l 1
 415 414 l 1
 415 353 l 1
 201 353 l 1
 201 61 l 1
 371 61 l 2
EndSplineSet
EndChar
StartChar: dcroat
Encoding: 273 273 476
Width: 697
VWidth: 1533
Flags: W
HStem: -17 61<265.272 416.445> 501 60<264.216 416.512> 626 38<432 526 638 721>
VStem: 28 125<165.048 377.139> 526 112<-2 67 169.674 373.588 469 626 664 742>
Fore
28 273 m 0
 28 446 155 561 324 561 c 0
 411 561 478 530 526 469 c 1
 526 626 l 1
 432 626 l 1
 432 664 l 1
 526 664 l 1
 526 742 l 1
 638 742 l 1
 638 664 l 1
 721 664 l 1
 721 626 l 1
 638 626 l 1
 638 -2 l 1
 526 -2 l 1
 526 67 l 1
 482 18 414 -17 324 -17 c 0
 168 -17 28 99 28 273 c 0
526 270 m 0
 526 394 440 501 342 501 c 0
 241 501 153 401 153 270 c 0
 153 123 256 44 342 44 c 256
 442 44 526 151 526 270 c 0
EndSplineSet
EndChar
StartChar: Idotaccent
Encoding: 304 304 481
Width: 248
VWidth: 1533
Flags: W
HStem: 0 21G<94 155> 828 113<81.2129 171.778>
VStem: 69 115<840.358 928.391> 94 61<0 745>
Fore
94 0 m 1xd0
 94 745 l 1
 155 745 l 1
 155 0 l 1
 94 0 l 1xd0
124 828 m 0
 98 828 69 850 69 883 c 0
 69 919 97 941 124 941 c 0
 159 941 184 917 184 883 c 0xe0
 184 852 159 828 124 828 c 0
EndSplineSet
EndChar
StartChar: dotlessi
Encoding: 305 305 482
Width: 282
VWidth: 1533
Flags: W
HStem: 0 584<90 192 90 192 90 90>
VStem: 90 102<0 584>
Fore
90 0 m 1
 90 584 l 1
 192 584 l 1
 192 0 l 1
 90 0 l 1
EndSplineSet
EndChar
StartChar: Ohorn
Encoding: 416 416 487
Width: 953
VWidth: 1533
Flags: W
HStem: -26 55<369.008 586.477> 685 54<369.413 586.333>
VStem: 38 146<241.527 469.684> 773 145<243.92 472.988> 865 112<655.613 750>
Back
977 750 m 1
 977 673 947 578 774 558 c 1
 774 590 l 1
 810 599 834 618 846 649 c 128
 859 680 865 713 865 750 c 1
 977 750 l 1
478 739 m 256
 726 739 918 565 918 357 c 256
 918 151 724 -26 477 -26 c 256
 235 -26 38 143 38 356 c 256
 38 566 233 739 478 739 c 256
477 29 m 256
 655 29 773 172 773 357 c 256
 773 543 655 685 478 685 c 0
 302 685 184 540 184 356 c 256
 184 170 301 29 477 29 c 256
EndSplineSet
Fore
477 29 m 0xf0
 655 29 773 172 773 357 c 0
 773 543 655 685 478 685 c 0
 302 685 184 540 184 356 c 0
 184 170 301 29 477 29 c 0xf0
812 606 m 1
 853 634 865 701 865 750 c 1
 977 750 l 1xe8
 977 684 955 606 842 572 c 1
 890 510 918 436 918 357 c 0
 918 151 724 -26 477 -26 c 0
 235 -26 38 143 38 356 c 0
 38 566 233 739 478 739 c 0
 613 739 732 687 812 606 c 1
EndSplineSet
EndChar
StartChar: ohorn
Encoding: 417 417 488
Width: 716
VWidth: 1533
Flags: W
HStem: -15 59<260.36 451.635> 489 60<262.213 450.918>
VStem: 31 128<157.598 375.892> 550 128<160.381 373.347> 638 109<457.676 547>
Back
553 402 m 1
 587 410 610 428 621 454 c 128
 632 482 638 512 638 547 c 1
 747 547 l 1
 747 475 716 386 553 366 c 1
 553 402 l 1
678 267 m 256
 678 98 539 -15 353 -15 c 0
 165 -15 31 98 31 267 c 256
 31 438 169 549 354 549 c 0
 540 549 678 436 678 267 c 256
550 267 m 256
 550 445 441 489 354 489 c 256
 265 489 159 441 159 267 c 256
 159 89 269 44 356 44 c 256
 442 44 550 89 550 267 c 256
EndSplineSet
Fore
550 267 m 0xf0
 550 445 441 489 354 489 c 0
 265 489 159 441 159 267 c 0
 159 89 269 44 356 44 c 0
 442 44 550 89 550 267 c 0xf0
615 442 m 1
 626 459 638 500 638 547 c 1
 747 547 l 1xe8
 747 492 729 428 649 391 c 1
 668 355 678 313 678 267 c 0
 678 98 539 -15 353 -15 c 0
 165 -15 31 98 31 267 c 0
 31 438 169 549 354 549 c 0
 464 549 557 510 615 442 c 1
EndSplineSet
EndChar
